<svg version="1.2" xmlns="http://www.w3.org/2000/svg" viewBox="0 0 750 420" width="750" height="420">
	<title>404-svg</title>
	<style>
		tspan { white-space:pre } 
		.s0 { fill: #ebebeb } 
		.s1 { fill: none;stroke: #ebebeb;stroke-miterlimit:10 } 
		.s2 { fill: #263238 } 
		.t3 { font-size: 16px;fill: #000000;font-weight: bold;font-family: "' Quicksand Bold" } 
		.s4 { fill: #f7a9a0 } 
		.s5 { fill: #a6a6a6 } 
		.s6 { opacity: .1;fill: #000000 } 
		.s7 { fill: #ffc727 } 
		.s8 { fill: #000000 } 
		.s9 { fill: #37474f } 
		.s10 { fill: #dbdbdb } 
		.s11 { fill: #ffffff } 
		.s12 { fill: none;stroke: #ffc727;stroke-miterlimit:10 } 
		.s13 { fill: #d3766a } 
		.s14 { fill: #ff99ba } 
		.s15 { fill: #455a64 } 
		.s16 { fill: #ad6359 } 
		.s17 { fill: #eb9481 } 
		.s18 { fill: #c7c7c7 } 
	</style>
	<g id="Background_Complete">
		<g id="Layer">
			<path id="Layer" fill-rule="evenodd" class="s0" d="m57.6 70.7l-5.9-9.5 2.9-1.8c0.9-0.5 1.4-1.5 1.3-2.5q-0.1-0.8-0.1-1.7c0-1-0.5-1.9-1.4-2.4l-3-1.6 5.3-9.8 3 1.6c0.9 0.5 2 0.4 2.8-0.2q0.7-0.5 1.4-0.9c0.9-0.5 1.4-1.4 1.4-2.4l-0.1-3.4 11.2-0.4 0.1 3.5c0 1 0.6 1.9 1.5 2.3q0.4 0.2 0.7 0.4 0.4 0.2 0.8 0.4c0.8 0.5 1.9 0.5 2.7 0l3-1.8 5.8 9.5-2.9 1.8c-0.8 0.5-1.3 1.5-1.2 2.5q0.1 0.8 0.1 1.6c-0.1 1 0.5 2 1.3 2.4l3.1 1.7-5.3 9.8-3-1.6c-0.9-0.5-2-0.4-2.8 0.2q-0.7 0.4-1.4 0.8c-0.9 0.5-1.5 1.4-1.4 2.4l0.1 3.5-11.2 0.3-0.1-3.4c0-1-0.6-1.9-1.5-2.3q-0.4-0.2-0.8-0.4-0.3-0.2-0.7-0.4c-0.9-0.5-1.9-0.5-2.8 0zm9.5-7.1c4.4 2.4 10 0.8 12.4-3.7 2.3-4.5 0.7-10-3.8-12.4-4.4-2.4-10-0.7-12.4 3.8-2.4 4.4-0.7 9.9 3.8 12.3z"/>
			<path id="Layer" fill-rule="evenodd" class="s1" d="m367.5 129.2l-5.9-9.5 2.9-1.8c0.9-0.5 1.4-1.5 1.3-2.5q-0.1-0.8-0.1-1.6c0-1-0.5-2-1.4-2.5l-3-1.6 5.3-9.8 3 1.6c0.9 0.5 2 0.4 2.8-0.2q0.7-0.5 1.4-0.9c0.9-0.4 1.4-1.4 1.4-2.4l-0.1-3.4 11.2-0.3 0.1 3.4c0 1 0.6 1.9 1.5 2.3q0.4 0.2 0.7 0.4 0.4 0.2 0.8 0.4c0.8 0.5 1.9 0.5 2.7 0l3-1.8 5.8 9.5-2.9 1.8c-0.8 0.5-1.3 1.5-1.2 2.5q0.1 0.8 0.1 1.7c-0.1 1 0.5 1.9 1.3 2.4l3.1 1.6-5.3 9.8-3-1.6c-0.9-0.5-2-0.4-2.8 0.2q-0.7 0.5-1.4 0.9c-0.9 0.4-1.5 1.4-1.4 2.4l0.1 3.4-11.2 0.3-0.1-3.4c0-1-0.6-1.9-1.5-2.3q-0.4-0.2-0.8-0.4-0.3-0.2-0.7-0.4c-0.9-0.5-1.9-0.5-2.8 0zm9.5-7c4.4 2.3 10 0.7 12.3-3.8 2.4-4.4 0.8-10-3.7-12.4-4.4-2.4-10-0.7-12.4 3.8-2.4 4.4-0.7 10 3.8 12.4z"/>
			<path id="Layer" fill-rule="evenodd" class="s0" d="m526.5 230.9l3.9-6.8 2 1.2c0.6 0.3 1.4 0.3 2-0.1q0.5-0.3 1-0.6c0.6-0.3 1-0.9 1-1.6v-2.4h7.9v2.4c0 0.7 0.4 1.3 1 1.6q0.5 0.3 1 0.6c0.6 0.4 1.3 0.4 2 0.1l2-1.2 3.9 6.8-2 1.2c-0.7 0.3-1 1-1 1.7q0.1 0.3 0.1 0.6 0 0.2-0.1 0.5c0 0.7 0.3 1.4 0.9 1.8l2.1 1.2-3.9 6.7-2.1-1.2c-0.6-0.3-1.3-0.3-1.9 0.1q-0.5 0.3-1 0.6c-0.6 0.3-1 0.9-1 1.6v2.4h-7.9v-2.4c0-0.7-0.4-1.3-1-1.6q-0.5-0.3-1-0.6c-0.6-0.4-1.3-0.4-2-0.1l-2 1.2-3.9-6.7 2-1.2c0.6-0.4 1-1.1 0.9-1.8q0-0.3 0-0.5 0-0.3 0-0.6c0.1-0.7-0.3-1.4-0.9-1.7zm7.5 3.5c0 3.5 2.9 6.4 6.4 6.4 3.6 0 6.4-2.9 6.4-6.4 0-3.6-2.8-6.5-6.4-6.5-3.5 0-6.4 2.9-6.4 6.5z"/>
			<g id="Layer">
				<g id="Layer">
					<path id="Layer" fill-rule="evenodd" class="s0" d="m677.5 62.8c16.9 0 30.5 13.6 30.5 30.5 0 16.8-13.6 30.4-30.5 30.4-16.8 0-30.4-13.6-30.4-30.4 0-16.9 13.6-30.5 30.4-30.5zm0 44.7c7.9 0 14.3-6.4 14.3-14.2 0-7.9-6.4-14.3-14.3-14.3-7.8 0-14.2 6.4-14.2 14.3 0 7.8 6.4 14.2 14.2 14.2z"/>
					<path id="Layer" class="s0" d="m671.7 64.1h11.7l-0.7-8.3h-10.4z"/>
					<path id="Layer" class="s0" d="m694 68l8.3 8.3 5.4-6.3-7.4-7.4z"/>
					<path id="Layer" class="s0" d="m707 86.6v11.7l8.3-0.7v-10.4z"/>
					<path id="Layer" class="s0" d="m703 108.9l-8.3 8.3 6.3 5.4 7.4-7.4z"/>
					<path id="Layer" class="s0" d="m684.4 121.9h-11.7l0.7 8.3h10.4z"/>
					<path id="Layer" class="s0" d="m662.1 117.9l-8.2-8.3-5.5 6.3 7.4 7.4z"/>
					<path id="Layer" class="s0" d="m649.2 99.3v-11.7l-8.3 0.7v10.4z"/>
					<path id="Layer" class="s0" d="m653.1 77l8.3-8.2-6.3-5.5-7.4 7.4z"/>
				</g>
			</g>
			<g id="Layer">
				<g id="Layer">
					<path id="Layer" fill-rule="evenodd" class="s1" d="m226.8 279.4c-0.7 4-2.1 7.8-4.2 11.1l5 5.9-7.4 7.3-5.5-4.7c-3.3 2.4-7.1 4.2-11.2 5.1l-0.5 7.2h-10.5l-0.5-6.8c-4.3-0.6-8.3-2.2-11.8-4.5l-5.2 4.5-7.4-7.4 4.3-5c-2.5-3.4-4.2-7.4-5.1-11.7l-6.8-0.5v-10.5l6.7-0.5c0.8-4.2 2.5-8.2 4.8-11.6l-4.6-5.4 7.3-7.4 5.5 4.7c3.3-2.3 7.1-3.9 11.2-4.7l0.6-7.6h10.4l0.6 7.6c4 0.8 7.7 2.3 10.9 4.5l6.1-5.2 7.3 7.3-5.1 6c2.2 3.2 3.9 6.8 4.7 10.7l8 0.6v10.4zm-15.8-5c0-7.8-6.4-14.2-14.2-14.2-7.9 0-14.3 6.4-14.3 14.2 0 7.9 6.4 14.3 14.3 14.3 7.8 0 14.2-6.4 14.2-14.3z"/>
				</g>
			</g>
		</g>
		<g id="Layer">
			<g id="Layer">
				<path id="Layer" fill-rule="evenodd" class="s0" d="m113.3 329.8c-5.8 0.1-20.2 0.3-25.8 0.4h-8.7-0.4v-0.4l-0.1-11.2v-0.5h0.5l17.2 0.1c4.3 0 13 0.1 17.3 0.2h0.2v0.2zm0 0l-0.2-10.9c-4.4 0-12.8 0.1-17 0.1l-16.8 0.1v10.3h8.1c5.4 0.1 20.3 0.3 25.9 0.4zm-0.2-10.9q0.1 0 0.2 0l-0.2-0.3zm-33.8 0.3v-0.5l-0.5 0.5zm0 10.2h-0.5l0.5 0.5z"/>
			</g>
			<g id="Layer">
				<path id="Layer" fill-rule="evenodd" class="s0" d="m94 343.9c-5.7 0.1-20.2 0.4-25.7 0.4l-8.7 0.1h-0.5v-0.5-11.2-0.5h0.5l17.2 0.1c4.3 0 13 0.1 17.2 0.2h0.3v0.2zm0 0l-0.2-10.9c-4.4 0-12.8 0.1-17 0.2h-16.8v10.3h8.1c5.4 0.1 20.2 0.3 25.9 0.4zm-0.2-10.9q0.1 0 0.2 0l-0.3-0.3zm-33.7 0.3v-0.5l-0.5 0.5zm0 10.2h-0.5l0.5 0.5z"/>
			</g>
			<g id="Layer">
				<path id="Layer" fill-rule="evenodd" class="s0" d="m292.5 91l-17.1 0.3-8.6 0.1h-8.7-0.5v-0.4-11.2-0.5h0.5l17.2 0.1h8.6l8.6 0.1h0.3v0.3zm0 0l-0.3-11-8.4 0.1-8.6 0.1-16.7 0.1v10.2l8 0.1 8.6 0.1zm-0.2-11h0.2l-0.2-0.2zm-33.8 0.3v-0.5l-0.5 0.5zm0 10.2h-0.4l0.4 0.5z"/>
			</g>
			<g id="Layer">
				<path id="Layer" fill-rule="evenodd" class="s0" d="m273.3 105.1l-17.1 0.3-8.7 0.1h-8.7-0.4v-0.4l-0.1-11.2v-0.5h0.5l17.3 0.1h8.6l8.6 0.2h0.2v0.2zm0 0l-0.2-11-8.4 0.2h-8.6l-16.7 0.1-0.1 10.2 8.1 0.1 8.6 0.1zm-0.2-10.9h0.2l-0.3-0.3zm-33.7 0.3v-0.5l-0.5 0.5zm0 10.2h-0.5l0.5 0.5z"/>
			</g>
			<path id="Layer" class="s0" d="m277.3 93.9h34.4v11.2h-34.4z"/>
			<path id="Layer" class="s0" d="m640.1 332.7h34.4v11.2h-34.4z"/>
			<path id="Layer" class="s0" d="m640.1 15.2h34.4v11.2h-34.4z"/>
			<g id="Layer">
				<path id="Layer" fill-rule="evenodd" class="s0" d="m693.8 40.5l-17.2 0.3-8.6 0.2h-8.7-0.5v-0.5-11.1-0.5h0.5 17.2l8.6 0.1 8.7 0.1h0.2v0.3zm0 0l-0.2-11-8.4 0.1-8.6 0.1-16.8 0.1v10.2h8.1l8.5 0.2zm-0.2-11h0.2l-0.2-0.2zm-33.7 0.2v-0.5l-0.5 0.5zm-0.1 10.3h-0.4l0.4 0.4z"/>
			</g>
			<g id="Layer">
				<path id="Layer" fill-rule="evenodd" class="s0" d="m90.7 26.4l-17.1 0.3-8.7 0.2h-8.7-0.4v-0.5l-0.1-11.1v-0.5h0.5 17.3l8.6 0.1 8.6 0.1h0.3l-0.1 0.3zm0 0l-0.2-11-8.4 0.1-8.6 0.1-16.7 0.1-0.1 10.2h8.1l8.6 0.2zm-0.2-11h0.2l-0.2-0.2zm-33.8 0.2v-0.5l-0.5 0.5zm0 10.3h-0.5l0.5 0.4z"/>
			</g>
			<path id="Layer" class="s0" d="m418.6 293.6h-34.4v-11.2h34.4z"/>
			<g id="Layer">
				<path id="Layer" fill-rule="evenodd" class="s0" d="m403.4 268.3c5.7-0.1 20.2-0.3 25.8-0.4h8.7 0.4v0.4l0.1 11.2v0.5h-0.5l-17.3-0.1c-4.3 0-12.9-0.1-17.2-0.1l-0.3-0.1 0.1-0.2zm0 0l0.2 11c4.4-0.1 12.8-0.2 17-0.2l16.7-0.1 0.1-10.2-8.1-0.1c-5.5 0-20.3-0.3-25.9-0.4zm0.2 11q-0.1 0-0.2 0l0.2 0.2zm33.7-0.3v0.5l0.5-0.5zm0.1-10.2h0.4l-0.4-0.4z"/>
			</g>
		</g>
	</g>
	<g id="Floor">
		<g id="Layer">
			<path id="Layer" class="s2" d="m43.6 405.1c212.3-0.7 450.5-0.7 662.8 0-212.3 0.6-450.5 0.6-662.8 0z"/>
		</g>
	</g>
	<g id="Text">
		<text id="ERROR - PAGE NOT FOUND!" style="transform: matrix(1,0,0,1,262.55,438.726)" >
			<tspan x="0" y="0" class="t3">ERROR - PAGE NOT FOUND!
</tspan>
		</text>
	</g>
	<g id="Character_4">
		<g id="Layer">
			<g id="Layer">
				<path id="Layer" class="s2" d="m625.1 163.7c0.5 0.1 2.8 0.5 6.2 1 1.4-2 3.3-5.6 3.5-11.1 0-0.9 1.4 4.5-0.4 11.6 6.5 1.1 15.3 2.5 23 3.6 0.6-3 1.3-5.7 1.3-5.7-0.1 2.2 0.1 4.2 0.4 6q1.6 0.2 3.1 0.4c0.4-4.7 2.3-12.8 2.3-12.8 0 5.8 1.2 10.6 2.1 13.5 4.9 0.7 8.2 1 8 0.8-6.3-9.6-0.2-13.8-1.3-21.5-1.3-9.4-8.9-11.9-7.7-18.6 0.9-5.5 2.9-15.4-3.7-18.4 0 0-4.8-7-14.2-4.8-11.5 2.7-9.5 20.3-10.7 23.6-1.7 4.8-4.3 6.2-6.8 11.6-2.6 5.5-0.5 9.6-0.7 13.5-0.3 3.9-5.6 7.1-4.4 7.3z"/>
				<path id="Layer" class="s2" d="m675 169.8c-0.8-1.7-1.5-3.4-1.8-5.2-0.3-1.7 0.2-3.4 0.8-5.1 0.5-1.8 1.2-3.5 1.6-5.3 0.4-1.9 0.6-3.9 0.2-5.8-0.3-1.9-1.1-3.7-2.3-5.3-1.1-1.5-2.4-2.8-3.7-4.1-1.3-1.3-2.5-2.6-3.4-4.2-0.9-1.5-1.4-3.3-1.3-5.1-0.3 1.8-0.1 3.7 0.7 5.4 0.8 1.8 2 3.3 3.2 4.6 1.2 1.4 2.4 2.7 3.4 4.2 1 1.5 1.7 3.1 2 4.8 0.3 1.7 0.2 3.4-0.2 5.2-0.3 1.7-0.9 3.4-1.4 5.2-0.2 0.9-0.4 1.8-0.5 2.8-0.1 1 0 2 0.2 2.9 0.5 1.8 1.4 3.5 2.5 5z"/>
				<path id="Layer" class="s2" d="m640.7 113.2c-1.2 2-1.8 4.2-2.4 6.3-0.6 2.2-1.1 4.5-1.5 6.7l-0.7 3.3c-0.2 1.1-0.5 2.1-0.9 3.1-0.8 2-2.2 3.6-3.8 5.2-0.7 0.9-1.5 1.8-2.2 2.7q-1 1.5-1.7 3.2-0.6 1.6-0.9 3.3c-0.2 1.2-0.3 2.4-0.3 3.5 0.1 1.2 0.2 2.3 0.4 3.4q0.2 1.7 0 3.3c-0.1 2.2-1.5 4.2-3.4 5.3 2.1-0.9 3.8-2.8 4.1-5.2 0.2-1.1 0.3-2.3 0.2-3.5 0-1.1-0.2-2.2-0.1-3.3 0-2.1 0.5-4.3 1.3-6.3q0.7-1.5 1.6-2.8c0.6-0.9 1.3-1.7 2.1-2.6 0.7-0.8 1.5-1.7 2.2-2.6 0.7-1 1.3-2 1.8-3.1 0.4-1.1 0.7-2.3 0.9-3.4q0.3-1.7 0.5-3.3c0.4-2.3 0.7-4.5 1.1-6.7 0.4-2.2 0.9-4.4 1.7-6.5z"/>
			</g>
			<g id="Layer">
				<g id="Layer">
					<path id="Layer" class="s4" d="m650.9 150.6c-8.5 5.5-43.7 8.7-52.2 4.7-12.6-5.8-26.3-20-30.8-25.6-2-2.4 18.7-16 21.1-13.7 5.3 4.8 15.3 17.7 17.5 18.8 2.2 1.1 22.2 5.3 33.1 6.3 14.7 1.3 15.6 6.7 11.3 9.5z"/>
					<g id="Layer">
						<g id="Layer">
							<path id="Layer" class="s4" d="m574 136.4c-1.3-0.9-11.9-7.5-15.6-13.3-1.9-3.1-6.3-12.2-4.6-13.6 1.6-1.3 3.4 0.9 3.4 0.9 0 0-1.9-4.1 0.3-5.8 2.2-1.8 5.1 2.1 5.1 2.1 0 0-1.7-4.4 0.7-6 2.3-1.6 4.5 2.8 4.5 2.8 0 0-1.6-3.9 0.8-4.4 3-0.7 5.3 6.9 8 9.8 0.7 0.7 13.5 12.9 13.5 12.9z"/>
							<g id="Layer">
								<path id="Layer" class="s2" d="m568 103.5c1.7 5.5 3.4 7.6 7.7 11.3 0.1 0.1 0 0.2-0.1 0.2-4.5-3.3-7-5.6-7.9-11.5 0-0.2 0.2-0.3 0.3 0z"/>
								<path id="Layer" class="s2" d="m562.8 106.6c2.2 5.6 4.1 7.9 8.3 12.1 0.1 0.1 0 0.2-0.1 0.2-4.5-3.8-7-6.2-8.5-12.1-0.1-0.3 0.2-0.4 0.3-0.2z"/>
								<path id="Layer" class="s2" d="m557.4 110.6c2.6 5.3 4.5 7.9 9.1 11.5 0.1 0 0 0.2-0.1 0.1-5.1-3.1-7.5-6.4-9.1-11.5-0.2-0.3-0.1-0.4 0.1-0.1z"/>
							</g>
						</g>
						<g id="Layer">
							<path id="Layer" class="s4" d="m594.8 122c0 0-3-6.5-5-9.1-2-2.6-12.9-9.6-14.5-7.3-2.1 2.9 3.4 8.2 6.4 10.4 0 0-4.9 6.8-1.8 11.4 3.2 4.6 14.9-5.4 14.9-5.4z"/>
							<path id="Layer" class="s2" d="m575 106.6c0 4 4.1 6.7 6.9 9.1 0.2 0.2 0.1 0.4 0 0.5-1.9 3-3.6 7.7-2.2 11.1 0.1 0.1-0.1 0.2-0.1 0.1-2.1-3.4-0.7-8.2 1.5-11.3-2.9-2.4-6.9-5.3-6.2-9.5q0-0.1 0.1 0z"/>
						</g>
					</g>
				</g>
				<g id="Layer">
					<path id="Layer" class="s5" d="m628.9 138.4l-6.3 19.5c0 0 22.2-3.8 28.5-6.8 7-3.4 3.7-6.2-3.2-8.7-7-2.5-19-4-19-4z"/>
					<g id="Layer">
						<g id="Layer">
							<path id="Layer" class="s2" d="m626.9 156.3c0.4-0.7 2.4-6.7 2.8-8 0.5-1.4 2.2-6.8 2.5-8.2 0 0 0-0.1-0.1 0-0.5 1.3-2.3 6.7-2.8 8.1-0.4 1.3-2.3 7.4-2.4 8.1-0.1 0 0 0 0 0z"/>
						</g>
					</g>
					<path id="Layer" class="s6" d="m651.1 151.1c-6.3 3-28.5 6.8-28.5 6.8l2-6.3c5.6-2.4 15.9-6.9 22.1-9.6q0.6 0.2 1.2 0.4c6.9 2.5 10.1 5.3 3.2 8.7z"/>
				</g>
			</g>
			<g id="Layer">
				<g id="Layer">
					<path id="Layer" class="s7" d="m633.5 36l8.8 8.6q0 0.1 0.1 0.1l-8.8-8.6q0 0-0.1-0.1z"/>
				</g>
				<g id="Layer">
					<path id="Layer" class="s7" d="m500.5 192.7l-8.7-8.6q0.1 0.2 0.3 0.4l8.8 8.5q-0.2-0.1-0.4-0.3z"/>
				</g>
				<g id="Layer">
					<g id="Layer">
						<path id="Layer" class="s7" d="m603.2 93l8.8 8.5-65 66.7-8.8-8.6z"/>
					</g>
					<g id="Layer" style="opacity: .1">
						<path id="Layer" class="s8" d="m603.2 93l8.8 8.5-65 66.7-8.8-8.6z"/>
					</g>
				</g>
				<g id="Layer">
					<g id="Layer">
						<path id="Layer" class="s7" d="m600.4 204.2l-89.6-6.9c-1.1-0.1-1.5-0.2-2-0.2-2.7-0.5-5.3-1.5-7.4-3.6l-8.8-8.6c2.1 2.1 4.7 3.2 7.4 3.6 0.5 0.1 1 0.1 2 0.2l89.7 6.9z"/>
					</g>
					<g id="Layer" style="opacity: .1">
						<path id="Layer" class="s8" d="m600.4 204.2l-89.6-6.9c-1.1-0.1-1.5-0.2-2-0.2-2.7-0.5-5.3-1.5-7.4-3.6l-8.8-8.6c2.1 2.1 4.7 3.2 7.4 3.6 0.5 0.1 1 0.1 2 0.2l89.7 6.9z"/>
					</g>
				</g>
				<g id="Layer">
					<g id="Layer">
						<path id="Layer" class="s7" d="m635.5 175l-8.8-8.6 13.1-116.2q0.1-0.4 0.1-0.8c0.1-0.6-0.2-0.9-0.1-1.5 0.1-0.8 0.1-1.1-0.1-1.7 0-0.3-0.2-0.9-0.2-1.2-0.2-0.9-0.1-1.2-0.3-1.8-0.3-0.3-0.5-0.9-0.5-1.2-0.5-0.9-0.7-1.2-1-1.5-0.2-0.3-0.4-0.9-0.7-1.2-0.3-0.3-0.5-0.6-1-1.2q0-0.2-0.1-0.3l8.7 8.5q0.2 0.2 0.2 0.3c0.5 0.6 0.7 1 1 1.3 0.2 0.3 0.4 0.9 0.7 1.2 0.2 0.3 0.5 0.6 1 1.5 0 0.3 0.2 0.9 0.4 1.2 0.2 0.6 0.2 0.9 0.4 1.8 0 0.3 0.2 0.9 0.2 1.1 0.2 0.6 0.1 0.9 0.1 1.8-0.1 0.6 0.1 0.9 0.1 1.5q-0.1 0.4-0.1 0.8z"/>
					</g>
					<g id="Layer" style="opacity: .1">
						<path id="Layer" class="s8" d="m635.5 175l-8.8-8.6 13.1-116.2q0.1-0.4 0.1-0.8c0.1-0.6-0.2-0.9-0.1-1.5 0.1-0.8 0.1-1.1-0.1-1.7 0-0.3-0.2-0.9-0.2-1.2-0.2-0.9-0.1-1.2-0.3-1.8-0.3-0.3-0.5-0.9-0.5-1.2-0.5-0.9-0.7-1.2-1-1.5-0.2-0.3-0.4-0.9-0.7-1.2-0.3-0.3-0.5-0.6-1-1.2q0-0.2-0.1-0.3l8.7 8.5q0.2 0.2 0.2 0.3c0.5 0.6 0.7 1 1 1.3 0.2 0.3 0.4 0.9 0.7 1.2 0.2 0.3 0.5 0.6 1 1.5 0 0.3 0.2 0.9 0.4 1.2 0.2 0.6 0.2 0.9 0.4 1.8 0 0.3 0.2 0.9 0.2 1.1 0.2 0.6 0.1 0.9 0.1 1.8-0.1 0.6 0.1 0.9 0.1 1.5q-0.1 0.4-0.1 0.8z"/>
					</g>
				</g>
				<g id="Layer">
					<g id="Layer">
						<path id="Layer" class="s7" d="m652.6 192.3c-1 8.9-8.9 15.2-17.8 14.5l-2.9-0.2-8.7-8.6 2.8 0.3c8.9 0.7 16.8-5.7 17.8-14.6 0.6-4.9-1.2-9.5-4.5-12.7l8.8 8.6c3.3 3.2 5.1 7.8 4.5 12.7z"/>
					</g>
					<g id="Layer" style="opacity: .1">
						<path id="Layer" class="s8" d="m652.6 192.3c-1 8.9-8.9 15.2-17.8 14.5l-2.9-0.2-8.7-8.6 2.8 0.3c8.9 0.7 16.8-5.7 17.8-14.6 0.6-4.9-1.2-9.5-4.5-12.7l8.8 8.6c3.3 3.2 5.1 7.8 4.5 12.7z"/>
					</g>
				</g>
				<g id="Layer">
					<g id="Layer">
						<path id="Layer" class="s7" d="m629.5 228.5c-1 8.9-8.7 15.3-17.6 14.6q-0.6-0.1-1.2-0.2c-3.3-0.5-6.2-1.9-8.4-4.1l-8.7-8.5c2.1 2.1 5 3.5 8.3 4.1q0.6 0.1 1.3 0.1c8.8 0.7 16.5-5.7 17.5-14.6l2.5-21.9 8.7 8.6z"/>
					</g>
					<g id="Layer" style="opacity: .1">
						<path id="Layer" class="s8" d="m629.5 228.5c-1 8.9-8.7 15.3-17.6 14.6q-0.6-0.1-1.2-0.2c-3.3-0.5-6.2-1.9-8.4-4.1l-8.7-8.5c2.1 2.1 5 3.5 8.3 4.1q0.6 0.1 1.3 0.1c8.8 0.7 16.5-5.7 17.5-14.6l2.5-21.9 8.7 8.6z"/>
					</g>
				</g>
				<g id="Layer">
					<path id="Layer" fill-rule="evenodd" class="s7" d="m643.8 183.7c-1 8.9-8.9 15.3-17.8 14.6l-2.8-0.3-2.5 21.9c-1 8.9-8.7 15.3-17.5 14.6q-0.7 0-1.3-0.1c-8.2-1.3-13.7-8.4-12.7-16.9l2.5-21.9-89.7-6.9c-1-0.1-1.5-0.1-2-0.2-2.9-0.5-5.7-1.6-7.9-4-6.5-6.1-6.3-15.9-0.1-22.4l120.9-124.1c0.3 0 0.3-0.3 0.6-0.5 0.3-0.3 0.7-0.6 1-1.1 0.9-0.2 1.2-0.5 1.5-0.8 0.4-0.2 1-0.5 1.3-0.7 0.6-0.3 0.9-0.5 1.8-0.5 0.3-0.5 0.6-0.8 1.2-0.7 0.3-0.3 0.9-0.3 1.8-0.5 0.3 0 0.8 0.1 1.2-0.2 0.5 0.1 1.4 0.1 2 0.2 0 0 0.3 0 0.5 0 0.3 0 0.3 0 0.6 0.1 0.6 0 1.4 0.1 1.7 0.1 0.4 0.2 0.6 0.3 0.9 0.3 0.8 0.4 1.6 0.5 2.2 0.8 1.6 1 2.1 1.3 2.4 1.6 0.5 0.4 0.8 0.7 1.3 1 0.6 0.4 1.1 0.7 1.1 1 0.5 0.6 0.7 0.9 1 1.2 0.3 0.3 0.5 0.9 0.7 1.2 0.3 0.3 0.5 0.6 1 1.5 0 0.3 0.2 0.9 0.5 1.2 0.2 0.6 0.1 0.9 0.3 1.8 0 0.3 0.2 0.9 0.2 1.2 0.2 0.6 0.2 0.9 0.1 1.7-0.1 0.6 0.2 0.9 0.1 1.5q0 0.4-0.1 0.8l-13.1 116.2 2.9 0.2q0.6 0.1 1.2 0.2c8.2 1.3 14 8.7 13 16.9zm-105.6-24.1l57 4.4 8-71z"/>
				</g>
			</g>
			<g id="Layer">
				<g id="Layer">
					<g id="Layer">
						<g id="Layer">
							<path id="Layer" class="s4" d="m656.6 193.2c0 0-18.2 91.3-19.5 98-0.3 1.5 0.8 83.2 0.8 83.2h-33.8c0 0-3.3-71.3-1.6-84.8 1.6-13.5 22.2-96.4 22.2-96.4z"/>
							<path id="Layer" class="s6" d="m656.6 193.2c0 0-8.9 44.4-14.7 73.6l-17.2-73.6z"/>
						</g>
						<g id="Layer">
							<path id="Layer" class="s9" d="m613.2 238.8l35.9 4.3 7.5-49.9h-31.9z"/>
							<g id="Layer">
								<path id="Layer" class="s2" d="m647.8 236.2c-3.8-0.7-7.7-1.2-11.6-1.6q-5.8-0.7-11.6-1.3c-2.2-0.2-4.4-0.4-6.6-0.6-0.2 0-0.2 0.2 0 0.3 3.8 0.7 7.7 1.1 11.6 1.6q5.7 0.8 11.5 1.4 3.3 0.4 6.7 0.5c0.2 0.1 0.2-0.2 0-0.3z"/>
								<path id="Layer" class="s2" d="m651.6 196.1q-4 14.3-7.6 28.8-0.5 2-1 4c-0.4 1.4-0.7 2.8-0.9 4.2 0 0.1 0.1 0.2 0.1 0.1 0.9-2.4 1.4-4.9 2.1-7.3q1-3.5 1.9-7.1c1.2-4.8 2.4-9.6 3.6-14.4q1-4.1 2-8.3c0-0.1-0.2-0.1-0.2 0z"/>
							</g>
						</g>
						<g id="Layer">
							<path id="Layer" class="s4" d="m579.1 405.4c1.9 0.6 55.1 0.5 57.2-0.8 0.7-0.5 1.2-8.3 1.4-17.7q0.1-3 0.1-6.2c0.1-2.5 0.1-5.1 0.1-7.6 0.1-11.1-0.3-20.9-0.3-20.9h-34.4v20.9 7.6l0.2 6.2c0 0-20.4 9.2-22.5 10.9-2 1.6-3.7 7-1.8 7.6z"/>
							<path id="Layer" class="s10" d="m579.1 405.4c1.9 0.6 55.1 0.5 57.2-0.8 0.7-0.5 1.2-8.3 1.4-17.7q0.1-3 0.1-6.2c0.1-2.5 0.1-5.1 0.1-7.6h-34.7v7.6l0.2 6.2c0 0-20.4 9.2-22.5 10.9-2 1.6-3.7 7-1.8 7.6z"/>
							<g id="Layer">
								<path id="Layer" class="s7" d="m578.9 405.5c1.3 0.4 23.9 0.5 40.5 0.1 3.8-0.1 7.3-0.2 10.1-0.3 3.9-0.2 6.5-0.4 6.9-0.6 1-0.7 1.4-12 1.6-24.1h-34.8l0.1 6.3c0 0-20.4 9.3-22.5 10.9-2.1 1.7-3.7 7.1-1.9 7.7z"/>
								<g id="Layer">
									<g id="Layer">
										<path id="Layer" class="s2" d="m579.7 403.3c9-0.2 45.2-0.4 54.1 0.1 0.1 0 0.1 0 0 0-8.9 0.5-45.1 0.3-54.1 0.1-0.2 0-0.2-0.2 0-0.2z"/>
										<path id="Layer" class="s2" d="m602.1 384.9c3.5-0.6 7.8-0.1 10.5 2.4 0.1 0.1 0 0.2-0.1 0.2-3.5-1.1-6.8-1.8-10.4-2.1-0.3 0-0.3-0.4 0-0.5z"/>
										<path id="Layer" class="s2" d="m599.5 386.5c3.6-0.7 7.9-0.2 10.6 2.3 0.1 0.1 0 0.3-0.2 0.3-3.5-1.1-6.7-1.8-10.4-2.2-0.2 0-0.2-0.4 0-0.4z"/>
										<path id="Layer" class="s2" d="m597 388c3.5-0.7 7.8-0.1 10.5 2.4 0.1 0.1 0 0.2-0.1 0.2-3.5-1.1-6.8-1.8-10.4-2.1-0.3-0.1-0.3-0.4 0-0.5z"/>
										<path id="Layer" class="s2" d="m594.4 389.6c3.6-0.7 7.9-0.2 10.6 2.3 0.1 0.1 0 0.3-0.2 0.2-3.4-1-6.7-1.7-10.4-2.1-0.2 0-0.2-0.4 0-0.4z"/>
									</g>
									<g id="Layer">
										<path id="Layer" fill-rule="evenodd" class="s2" d="m595.5 376.8c1.4-1.9 4-1.1 5.5 0.1 2.4 2 4.5 5.2 5.4 8.1 0.1 0.1 0 0.1 0 0.2-0.1 0.2-0.3 0.5-0.6 0.4-2.9-1.1-6.2-1.9-8.7-3.8-1.4-1.1-2.9-3.2-1.6-5zm6.2 6.3c1.4 0.5 2.9 1 4.3 1.6-1.1-1.5-2.1-3.2-3.3-4.6-0.6-0.7-1.2-1.4-1.9-2-1.1-1-5.2-3-4.6 0.9 0.4 2.1 3.8 3.4 5.5 4.1z"/>
										<path id="Layer" fill-rule="evenodd" class="s2" d="m615.4 384.1c-2.9 1.2-6.2 1.2-9.3 1.5-0.4 0-0.5-0.3-0.5-0.6q-0.1 0 0-0.1c1.7-2.6 4.5-5.1 7.3-6.5 1.7-0.8 4.5-1 5.3 1.2 0.8 2.1-1.1 3.7-2.8 4.5zm1.6-2.5c1.6-3.6-3-2.7-4.2-2.1-0.8 0.5-1.6 1-2.3 1.5-1.6 1.1-3 2.4-4.4 3.7 1.5-0.2 3-0.4 4.6-0.5 1.8-0.3 5.4-0.7 6.3-2.6z"/>
									</g>
								</g>
								<path id="Layer" class="s6" d="m637.9 385.6c-0.2 10-0.7 18.5-1.5 19.1-0.4 0.2-3 0.4-6.9 0.6-2.8 0.1-6.3 0.2-10.1 0.3-2.5 0.1-5.1 0.1-7.7 0.1z"/>
							</g>
						</g>
					</g>
					<g id="Layer">
						<g id="Layer">
							<g id="Layer">
								<path id="Layer" class="s4" d="m646.9 370.2l34.7-0.4c0 0-6.8-118.5-9.8-143.1 0 0 5.7-13.4-4.9-33.6h-42.3c0 0 2.9 19.2 7.7 31.4 0 0 3.2 0.8 8.9 4z"/>
							</g>
							<g id="Layer">
								<path id="Layer" class="s9" d="m641.8 243.4h33.2l-2.5-16.7c0 0 5-17-4.8-33.6h-43.1c0 0 1.8 18 7.1 31.6l5.4 2.4z"/>
								<g id="Layer">
									<path id="Layer" class="s2" d="m637.1 227.1c0-0.2-0.5-0.2-0.4 0 1.7 9.9 4.5 14.6 4.7 15.1 0 0.1 0.1 0.1 0.1 0 0.2-0.5-3.6-11-4.4-15.1z"/>
									<g id="Layer">
										<path id="Layer" class="s2" d="m630.7 224c3.8 1.3 7.5 3.2 11 5.1 0.2 0.1 0.1 0.3-0.1 0.3-3.7-1.6-7.5-3.1-11.1-4.9-0.3-0.2-0.1-0.6 0.2-0.5z"/>
										<path id="Layer" class="s2" d="m629.5 198.6c0.1-0.2 0.3-0.2 0.3 0 0 4.4 0.2 8.2 0.6 12.3 0.2 2 1.7 12.5 5 11.7 0.6-0.1 0.9-0.6 0.9-1.5 0.2-1-0.2-2.2-0.4-3.2q-0.5-3.3-0.8-6.7c-0.4-4.1-0.4-8.3 0.1-12.5 0-0.1 0.2-0.1 0.2 0.1 0 5.7 0.2 11.5 1 17.2 0.4 2.7 1.8 6.9-1.1 7.3-2.9 0.4-4.8-6.5-5.1-8.4-1-5.3-1.1-11-0.7-16.3z"/>
										<path id="Layer" class="s2" d="m635.3 222.9q0.5 1.1 0.8 2.2c0.1 0.6 0.4 1.2 0.3 1.8 0 0.1-0.2 0.1-0.2 0.1-0.4-0.5-0.6-1.2-0.8-1.8q-0.4-1-0.8-2c-0.1-0.5 0.6-0.7 0.7-0.3z"/>
									</g>
									<path id="Layer" class="s2" d="m666.2 211.5c-3.2-0.3-6.4-0.3-9.3-1.7-2.9-1.4-4.8-4.2-6.3-7-1-1.8-1.6-3.6-2.1-5.5 0-0.1-0.2-0.1-0.2 0 0.1 1.8 0.6 3.6 1.3 5.2 0.7 1.6 1.5 3.2 2.5 4.6 1 1.3 2.1 2.6 3.6 3.4 1.4 0.8 3 1.2 4.7 1.4 1.9 0.2 3.9 0.2 5.8-0.1 0.2 0 0.2-0.3 0-0.3z"/>
									<path id="Layer" class="s2" d="m670.5 230.2c-0.4-1.5-0.9-3.1-1-4.7 0-1.5 0.8-2.9 1.3-4.3 1.8-5.7 1-11.8-1-17.3-1.1-3.1-2.6-6.1-4.3-9 0-0.1-0.1 0-0.1 0.1 2.8 5.3 5.2 11 5.7 17.1 0.3 2.9 0.1 5.9-0.8 8.7-0.4 1.3-1.2 2.6-1.3 4-0.1 1.4 0.4 2.9 0.7 4.3 0.4 1.8 1.6 7.1 2.2 8.8 0 0.2 0.3 0.2 0.3 0-0.3-1.6-1.4-6.1-1.7-7.7z"/>
									<path id="Layer" class="s2" d="m672.9 239.1c-3.9-0.3-7.9-0.3-11.8-0.3q-5.8 0.1-11.6 0.2c-2.2 0-4.4 0.1-6.6 0.3-0.2 0-0.2 0.2 0 0.2 3.9 0.2 7.8 0.2 11.7 0.2q5.8 0.1 11.6 0 3.4-0.1 6.7-0.3c0.2 0 0.2-0.3 0-0.3z"/>
								</g>
							</g>
						</g>
						<g id="Layer">
							<path id="Layer" class="s4" d="m622.5 405.6c1.8 0.6 55.1 1 57.2-0.3 0.7-0.4 1.2-8.2 1.6-17.6q0.1-3 0.2-6.2c0-2.5 0.1-5.1 0.1-7.6 0.2-11.1-1.5-21.8-1.5-21.8l-33 0.6-0.2 20.9-0.1 7.5 0.1 6.3c0 0-20.4 9-22.5 10.6-2.1 1.6-3.8 7-1.9 7.6z"/>
							<path id="Layer" class="s10" d="m622.5 405.6c1.8 0.6 55.1 1 57.2-0.3 0.7-0.4 1.2-8.2 1.6-17.6q0.1-3 0.2-6.2c0-2.5 0.1-5.1 0.1-7.6l-34.7-0.3-0.1 7.5 0.1 6.3c0 0-20.4 9-22.5 10.6-2.1 1.6-3.8 7-1.9 7.6z"/>
							<g id="Layer">
								<path id="Layer" class="s7" d="m622.3 405.7c1.2 0.4 23.9 0.7 40.4 0.5 3.9 0 7.4-0.1 10.2-0.2 3.9-0.1 6.5-0.3 6.9-0.6 1-0.6 1.5-12 1.8-24l-34.8-0.3 0.1 6.3c0 0-20.6 9-22.7 10.6-2 1.7-3.7 7-1.9 7.7z"/>
								<g id="Layer">
									<g id="Layer">
										<path id="Layer" class="s2" d="m623.1 403.5c9-0.1 45.2 0.1 54.1 0.6 0.1 0 0.1 0.1 0 0.1-8.9 0.3-45.1-0.2-54.1-0.5-0.2 0-0.2-0.2 0-0.2z"/>
										<path id="Layer" class="s2" d="m645.7 385.4c3.5-0.7 7.8-0.1 10.5 2.4 0.1 0.1 0 0.3-0.2 0.2-3.4-1.1-6.7-1.8-10.3-2.2-0.3 0-0.3-0.4 0-0.4z"/>
										<path id="Layer" class="s2" d="m643.1 386.9c3.5-0.7 7.9-0.1 10.5 2.4 0.1 0.1 0 0.3-0.1 0.3-3.5-1.2-6.7-1.9-10.4-2.3-0.2 0-0.3-0.4 0-0.4z"/>
										<path id="Layer" class="s2" d="m640.5 388.4c3.6-0.6 7.9-0.1 10.6 2.5 0.1 0.1-0.1 0.2-0.2 0.2-3.5-1.2-6.7-1.9-10.4-2.3-0.2 0-0.2-0.4 0-0.4z"/>
										<path id="Layer" class="s2" d="m638 389.9c3.5-0.6 7.8-0.1 10.5 2.5 0.1 0.1 0 0.2-0.1 0.2-3.5-1.1-6.8-1.9-10.4-2.2-0.3-0.1-0.3-0.4 0-0.5z"/>
									</g>
									<g id="Layer">
										<path id="Layer" fill-rule="evenodd" class="s2" d="m639.2 377.1c1.4-1.9 4-1 5.4 0.3 2.4 2 4.5 5.1 5.4 8.1q0 0.1-0.1 0.1c0 0.3-0.2 0.6-0.5 0.5-2.9-1.1-6.2-2-8.7-3.9-1.4-1.2-2.8-3.3-1.5-5.1zm6.1 6.4c1.4 0.6 2.9 1.1 4.3 1.7-1.1-1.6-2.1-3.2-3.3-4.7-0.6-0.7-1.2-1.4-1.8-2-1.1-1-5.2-3.1-4.6 0.8 0.3 2.2 3.7 3.5 5.4 4.2z"/>
										<path id="Layer" fill-rule="evenodd" class="s2" d="m659 384.6c-2.9 1.3-6.3 1.2-9.4 1.4-0.3 0.1-0.4-0.3-0.4-0.5 0-0.1-0.1-0.1 0-0.2 1.7-2.6 4.5-5 7.4-6.4 1.7-0.8 4.4-0.9 5.3 1.3 0.8 2.1-1.2 3.7-2.9 4.4zm1.6-2.5c1.6-3.6-2.9-2.7-4.2-2-0.8 0.4-1.6 0.9-2.3 1.4-1.6 1.1-3 2.4-4.4 3.7 1.5-0.3 3-0.4 4.6-0.5 1.8-0.2 5.4-0.6 6.3-2.6z"/>
									</g>
								</g>
							</g>
						</g>
					</g>
				</g>
				<g id="Layer">
					<g id="Layer">
						<path id="Layer" class="s5" d="m628 174.7l-3.3 18.5 43-0.1c0 0 0.6-32.4-10.4-46.7-5.5-7.1-10.3-6.6-15.2-2.4-1.3 1.1-13.8 13.9-15.9 20.7-1.8 6 1.8 10 1.8 10z"/>
						<g id="Layer">
							<path id="Layer" class="s2" d="m634.6 173c1.9 0.5 3.8 1.1 5.7 1.9q1.3 0.7 2.7 1.4 0.6 0.4 1.3 0.7c0.5 0.2 1 0.5 1.5 0.5 0 0.1 0 0.1-0.1 0.1-0.4 0-0.9-0.1-1.4-0.2q-0.7-0.2-1.3-0.5c-1-0.4-1.9-0.9-2.8-1.3-1.9-0.9-3.7-1.7-5.7-2.4-0.1-0.1 0-0.2 0.1-0.2z"/>
							<path id="Layer" class="s2" d="m629.4 174.4c1.7 0.1 3.3 0.2 5 0.4q1.2 0.2 2.4 0.5 0.6 0.1 1.1 0.3c0.4 0.1 0.8 0.3 1.3 0.4 0 0.1 0 0.1-0.1 0.1-0.4-0.1-0.8-0.1-1.2-0.1q-0.6-0.1-1.2-0.2-1.2-0.2-2.4-0.4-2.4-0.5-4.9-0.8c-0.1 0 0-0.2 0-0.2z"/>
						</g>
					</g>
					<g id="Layer">
						<g id="Layer">
							<path id="Layer" class="s4" d="m653.1 144.2c-0.3 0.9-5.4 5.9-9.4 5.1-1.3-0.3-0.1-7.4-0.1-7.4l-0.1-0.6-0.4-7.6 9.5-4.2 1.4-0.5c0 0 0 2.1-0.1 4.7q0 0.2 0 0.4 0 0.2 0 0.4 0 0.6 0 1.2 0 0.4 0 0.9 0 0.5 0 0.9c-0.2 3.2-0.7 6.4-0.8 6.7z"/>
							<path id="Layer" class="s2" d="m643.1 133.7l0.4 7.3c5.6-1 8.9-4.5 10.4-6.6v-0.7c0.1-2.6 0.1-4.7 0.1-4.7l-1.4 0.5z"/>
						</g>
						<g id="Layer">
							<path id="Layer" class="s4" d="m636.9 117.9c-6.4 11.8 0 17 2.6 18.4 2.3 1.2 10.3 5.2 17.9-5.9 7.5-11.2 4.1-17.9-1.1-21-5.1-3.1-13-3.3-19.4 8.5z"/>
							<g id="Layer">
								<path id="Layer" class="s2" d="m639.7 117c0.3 0.1 0.5 0.2 0.9 0.2 0.3 0.1 0.6 0.2 0.9 0.1 0.2-0.1 0.3-0.4 0.3-0.6-0.2-0.4-0.6-0.6-1-0.7-0.4-0.1-0.8-0.1-1.2 0.1-0.4 0.2-0.3 0.8 0.1 0.9z"/>
								<path id="Layer" class="s2" d="m647.9 120.9c-0.3-0.2-0.5-0.4-0.7-0.6-0.3-0.2-0.6-0.3-0.7-0.7 0-0.2 0.1-0.4 0.3-0.5 0.4-0.2 0.8 0 1.1 0.2 0.4 0.3 0.6 0.6 0.8 1.1 0.1 0.4-0.4 0.7-0.8 0.5z"/>
								<g id="Layer">
									<g id="Layer">
										<path id="Layer" class="s2" d="m645.1 122.3c0-0.1 0.1 0 0 0.1-0.4 0.8-0.8 1.8-0.1 2.4 0 0-0.1 0.1-0.1 0-0.8-0.5-0.3-1.9 0.2-2.5z"/>
										<path id="Layer" class="s2" d="m646.3 121.8c1.3 0.5 0.1 3.2-1.1 2.7-1.3-0.5-0.1-3.2 1.1-2.7z"/>
									</g>
									<path id="Layer" class="s2" d="m646.7 122.1c0.2 0.3 0.3 0.7 0.6 0.8 0.3 0.2 0.7 0 1-0.1q0.1-0.1 0 0c-0.2 0.5-0.6 1-1.2 0.8-0.5-0.2-0.7-0.8-0.6-1.4 0-0.1 0.2-0.2 0.2-0.1z"/>
								</g>
								<g id="Layer">
									<g id="Layer">
										<path id="Layer" class="s2" d="m640.5 120c0 0-0.1 0-0.1 0.1-0.4 0.8-0.9 1.7-1.8 1.7 0-0.1 0 0 0 0 1 0.3 1.7-0.9 1.9-1.8z"/>
										<path id="Layer" class="s2" d="m640.2 118.8c-1.3-0.7-2.7 1.9-1.5 2.6 1.2 0.7 2.5-2 1.5-2.6z"/>
									</g>
									<path id="Layer" class="s2" d="m639.5 118.7c-0.3 0-0.6 0.2-0.9 0.1-0.3-0.1-0.3-0.5-0.4-0.9q0-0.1 0 0c-0.3 0.5-0.4 1.1 0 1.5 0.4 0.3 1 0 1.4-0.4 0-0.1 0-0.3-0.1-0.3z"/>
								</g>
								<path id="Layer" class="s2" d="m641.4 128.8c-0.3 0.1-0.6 0.3-0.9 0.1-0.3-0.1-0.6-0.4-0.8-0.6 0-0.1 0-0.1 0 0 0 0.4 0.3 0.8 0.7 1 0.4 0.1 0.8-0.1 1.1-0.4 0 0 0-0.1-0.1-0.1z"/>
								<g id="Layer">
									<g id="Layer">
										<path id="Layer" class="s2" d="m642.8 126.8c-0.8 0.4-1.6 0.4-2.4 0.2q-0.5-0.2-1-0.5-0.1-0.1-0.2-0.1 0-0.1-0.1-0.1-0.1-0.2-0.1-0.3 0.1-0.1 0.1-0.1 0 0 0 0v-0.1c0.3-0.6 0.9-1.5 0.9-1.5-0.3 0-1.7-0.1-1.5-0.4 1.6-2.5 3.4-5.3 5.6-7.5 0 0 0.1 0 0.1 0.1-1.5 2.5-3.3 4.7-4.8 7.2 0.4 0 1.1 0.1 1.4 0.3 0.1 0.1-1.1 1.7-1.2 2q0 0 0 0c0.9 0.7 1.8 0.8 3.2 0.7 0.1 0 0.1 0.1 0 0.1z"/>
									</g>
								</g>
							</g>
							<path id="Layer" class="s2" d="m656.3 130.8c-3-1.6 0.7-11.4 1.2-12.6-0.4 0.8-2.1 4.7-2.5 4.7-0.1 0-0.4-0.2-0.9-0.7q0.3-0.6 0.6-1.4c0.1-0.2-0.3 0.4-0.9 1.2q-0.2-0.2-0.4-0.4c0.4-0.8 0.8-1.9 1.1-3.1 0.1-0.4-0.8 1.2-1.9 2.4-1.8-1.5-4.4-3.8-7.2-5.3q-1.1-0.6-2-0.9c0.5-1.2 1.2-2.3 1-2.1-0.6 0.6-1.1 1.3-1.5 1.9q-0.5-0.2-0.9-0.4c0.7-1.6 2.8-3.8 2.3-3.5-1.7 1-2.9 2.4-3.5 3.2-1.2-0.4-1.6-0.3-1.5-0.6 0.2-0.5 3.1-4.7 8.2-6.3 5.5-1.7 13.5 1.1 15.1 8.7 0 0 2.4 4 1.2 8-1.3 4-5.8 8.1-7.5 7.2z"/>
							<g id="Layer">
								<g id="Layer">
									<path id="Layer" class="s4" d="m655 130.2c0 0 4.4-2.6 5.7-0.9 1.3 1.7-3.1 6.4-5.5 6.3-2.4-0.1-2.3-2.4-2.3-2.4z"/>
									<path id="Layer" class="s2" d="m659.4 130.6c0 0 0 0.1 0 0.1-1.7-0.1-3 0.9-4.2 2.1 0.7-0.4 1.4-0.4 1.9 0.4 0 0 0 0.1-0.1 0.1-0.5-0.4-1-0.5-1.6-0.2-0.4 0.2-0.8 0.6-1.2 0.8-0.1 0.1-0.3 0-0.2-0.1q0-0.1 0.1-0.1c0.7-1.8 3.2-3.8 5.3-3.1z"/>
								</g>
								<path id="Layer" class="s11" d="m654 134.4c-0.1 0.3 0 0.7 0.4 0.9 0.3 0.1 0.7 0 0.9-0.4 0.1-0.3 0-0.7-0.4-0.8-0.3-0.2-0.7 0-0.9 0.3z"/>
							</g>
						</g>
					</g>
					<path id="Layer" class="s12" d=""/>
					<g id="Layer">
						<path id="Layer" class="s4" d="m659.8 160.2c-0.1 7.2-0.7 32.5-6.4 39.5-3.8 4.6-31.9 13.9-39.1 15.4-3 0.6-10.6-20.7-7.3-20.8 2.4-0.2 29.8-7.4 32-8.4 0 0 6.3-15.8 10.7-26.9 4.3-11 10.2-10.8 10.1 1.2z"/>
						<g id="Layer">
							<path id="Layer" class="s4" d="m598.3 198.3c1.3-0.8 0.9-1.4-1.7-1.7-2.6-0.3-13.1 0.8-13.1-2.9-0.1-3.7 14.7-5 19-4.2 4.2 0.8 10.8 3.6 10.8 3.6-2.8 0.8-9.4 3.5-15 5.2z"/>
							<path id="Layer" class="s4" d="m617.2 214.5c-8.1 2-18 5.1-27 2.5-1.8-0.6-2.5-1.7-2.5-1.7-4.1-1.1-4.8-3.4-4.8-3.4-3.4-2.2-3.8-4.6-3.8-4.6 0 0-4.8-1.3-4.5-4.3 0.4-3.4 7-0.8 11.5-1.7 10.3-1.8 24.3-7.4 27.3-8.2z"/>
							<g id="Layer">
								<path id="Layer" class="s2" d="m598.2 206.9c-3 0.5-6 1.1-9 1.2-3.4 0.1-6.7-0.4-10-0.8-0.1 0-0.2 0.1-0.1 0.1 6 1.7 13.3 1.5 19.2-0.3 0.1-0.1 0.1-0.2-0.1-0.2z"/>
								<path id="Layer" class="s2" d="m600.3 213c-3 0.3-8.2 0.8-17.4-1.2 0 0 0 0.1 0 0.1 5.8 2.1 11.4 2.4 17.4 1.2 0.2 0 0.2-0.1 0-0.1z"/>
								<path id="Layer" class="s2" d="m601.3 216.2c-5.1 0.4-8.3 0-13.6-1 0 0 0 0.1 0 0.1 5.9 1.7 8.2 1.6 13.6 1.1 0.2 0 0.2-0.2 0-0.2z"/>
							</g>
						</g>
						<g id="Layer">
							<path id="Layer" class="s5" d="m642.4 172.7l17.9 9.9c0 0 0.5-22.5-1.2-29.2-2-7.5-5.4-4.9-9.2 1.5-3.8 6.3-7.5 17.8-7.5 17.8z"/>
							<g id="Layer">
								<g id="Layer">
									<path id="Layer" class="s2" d="m659.6 178.1c-0.6-0.5-6.2-3.7-7.4-4.3-1.2-0.7-6.2-3.4-7.5-4-0.1-0.1-0.1 0 0 0.1 1.1 0.8 6.1 3.6 7.4 4.3 1.2 0.7 6.8 3.7 7.4 3.9 0.1 0.1 0.1 0 0.1 0z"/>
								</g>
								<path id="Layer" class="s2" d="m643.8 173.5c-0.5-0.3-1.4-0.8-1.4-0.8 0.8-2.3 5.4-13.4 6.5-16.2 0 0 0 0-0.1 0q-1 2.3-2.1 4.5 0.1-0.3 0.2-0.6c0.2-0.7 0.4-1.4 0.6-2.2 0 0-0.1 0-0.1 0-0.3 0.7-0.6 1.4-0.7 2.1q-0.2 0.8-0.4 1.6-0.5 1.3-1.1 2.6c-1.1 2.7-2.4 5.4-3.3 8.2 0 0 1.1 0.7 1.8 0.9 0.1 0.1 0.2 0 0.1-0.1z"/>
								<g id="Layer">
									<g id="Layer">
										<path id="Layer" class="s2" d="m658.6 181.7q0.9 0.4 1.8 0.8l-0.2 0.1c0-4.8-0.1-11.5 0.1-16.2q0.3 2 0.4 4c0.3 4.2 0.3 8.4-0.2 12.5-0.7-0.4-1.3-0.8-1.9-1.2z"/>
									</g>
									<g id="Layer">
										<path id="Layer" class="s2" d="m660.5 171.5c0.1-1.1 0.2-2.1 0.6-3.2 0.3 1.1 0.1 2.3-0.6 3.2z"/>
									</g>
								</g>
							</g>
						</g>
					</g>
				</g>
			</g>
		</g>
	</g>
	<g id="Character_2">
		<g id="Layer">
			<g id="Layer">
				<g id="Layer">
					<g id="Layer">
						<path id="Layer" class="s7" d="m426.4 85.8c-2.7-1.9-5.6-3.2-8.5-3.8q-2.4-0.6-4.9-0.6c-7.6-0.1-16.3 3.8-25.3 12-10.9 10.4-21 27-26.1 47.3-5.2 20.1-4.2 39.5 0.5 53.1 3.3 9.4 7.9 15.8 13.2 19.6l-9.9-7.2c-5.3-3.8-9.9-10.2-13.2-19.6-4.7-13.6-5.7-33-0.6-53.1 5.2-20.4 15.3-36.9 26.2-47.3 9-8.2 17.7-12.1 25.3-12.1q2.5 0.1 4.9 0.7c2.9 0.5 5.8 1.8 8.5 3.8z"/>
					</g>
					<g id="Layer" style="opacity: .1">
						<path id="Layer" class="s8" d="m426.4 85.8c-2.7-1.9-5.6-3.2-8.5-3.8q-2.4-0.6-4.9-0.6c-7.6-0.1-16.3 3.8-25.3 12-10.9 10.4-21 27-26.1 47.3-5.2 20.1-4.2 39.5 0.5 53.1 3.3 9.4 7.9 15.8 13.2 19.6l-9.9-7.2c-5.3-3.8-9.9-10.2-13.2-19.6-4.7-13.6-5.7-33-0.6-53.1 5.2-20.4 15.3-36.9 26.2-47.3 9-8.2 17.7-12.1 25.3-12.1q2.5 0.1 4.9 0.7c2.9 0.5 5.8 1.8 8.5 3.8z"/>
					</g>
				</g>
				<g id="Layer">
					<g id="Layer">
						<path id="Layer" class="s7" d="m471.2 165.7c-6.9 25.6-19.3 48-36.1 63.3-13.4 12.5-30.4 21.2-48.2 21q-5.7-0.1-11.4-1.4c-7.1-1.6-13.5-4.6-19.2-8.7l-9.9-7.2c5.7 4 12.1 7.1 19.2 8.7q5.7 1.3 11.4 1.4c17.8 0.1 34.8-8.5 48.2-21 16.8-15.4 29.2-37.7 36.1-63.4 6.3-26.1 5.9-51-1.7-71.9-4.7-13.7-12.7-26-23.9-34.1l9.9 7.2c11.2 8.2 19.2 20.4 23.9 34.2 7.6 20.8 8 45.8 1.7 71.9z"/>
					</g>
					<g id="Layer" style="opacity: .1">
						<path id="Layer" class="s8" d="m471.2 165.7c-6.9 25.6-19.3 48-36.1 63.3-13.4 12.5-30.4 21.2-48.2 21q-5.7-0.1-11.4-1.4c-7.1-1.6-13.5-4.6-19.2-8.7l-9.9-7.2c5.7 4 12.1 7.1 19.2 8.7q5.7 1.3 11.4 1.4c17.8 0.1 34.8-8.5 48.2-21 16.8-15.4 29.2-37.7 36.1-63.4 6.3-26.1 5.9-51-1.7-71.9-4.7-13.7-12.7-26-23.9-34.1l9.9 7.2c11.2 8.2 19.2 20.4 23.9 34.2 7.6 20.8 8 45.8 1.7 71.9z"/>
					</g>
				</g>
				<g id="Layer">
					<path id="Layer" fill-rule="evenodd" class="s7" d="m459.6 86.5c7.6 20.9 8 45.8 1.7 71.9-6.9 25.7-19.3 48-36.1 63.4-13.4 12.5-30.4 21.1-48.2 21q-5.7-0.1-11.4-1.4c-21.4-4.8-36.3-22.6-43.4-43.1-7.3-20.8-7.9-46.1-1.4-71.8 6.6-26 19.3-48 35.8-63.4 13.4-12.8 30.6-21.2 48.2-21q5.5 0 11.2 1.3c21.9 5 36.5 22.4 43.6 43.1zm-29.2 64.9c5.2-20.3 4.2-39.4-0.5-53.4-5.3-13.7-13.3-21.5-21.9-23.2q-2.4-0.6-4.9-0.7c-7.6 0-16.3 3.9-25.3 12.1-10.9 10.4-21 26.9-26.2 47.3-5.1 20.1-4.1 39.5 0.6 53.1 5 14 12.8 21.5 21.4 23.4q2.2 0.5 4.7 0.6c7.7 0 16.7-3.6 26.1-12.1 10.8-10.1 20.9-27 26-47.1z"/>
				</g>
			</g>
			<g id="Layer">
				<g id="Layer">
					<g id="Layer">
						<path id="Layer" class="s13" d="m392.1 405.2c-2.1 0.7-60.4 0.9-62.6-0.5-0.9-0.6-1.4-9.1-1.7-19.3q0-0.2 0-0.4c-0.1-2.1-3-37-3-37l38 0.5 2.6 36v0.7c0 0 22.3 9.9 24.6 11.7 2.3 1.8 4.1 7.7 2.1 8.3z"/>
						<path id="Layer" class="s2" d="m392.1 405.2c-2.1 0.7-60.4 0.9-62.6-0.5-0.7-0.5-1.2-6.8-1.6-15 9.2 1.5 53.4 8.7 54.4 5 0.2-0.8-0.8-1.8-2.2-2.8 4.8 2.2 9 4.3 9.9 5 2.3 1.8 4.1 7.7 2.1 8.3z"/>
					</g>
					<g id="Layer">
						<path id="Layer" class="s2" d="m266.3 212.7c0 0 48.6 76.2 49.7 81.6 1.7 8.1 9.9 89.8 9.9 89.8h41.8c0 0-8.1-72.2-15.2-95.7-5.1-16.9-43.2-73.3-43.2-73.3z"/>
						<g id="Layer">
							<path id="Layer" class="s9" d="m364.8 376.9c-6.3-0.2-28.7-0.9-37.1-0.2-0.1 0-0.1 0.1 0 0.1 2.9 0.5 30.8 0.3 37.1 0.2 0.1 0 0.1-0.1 0-0.1z"/>
						</g>
					</g>
				</g>
				<g id="Layer">
					<g id="Layer">
						<path id="Layer" class="s13" d="m301.5 417.3c-2.1 0.1-57.9-16.8-59.6-18.8-0.7-0.8 1.3-9.1 4-19q0-0.1 0.1-0.3c0.5-2 14.4-32.9 14.4-32.9l36.2 11.6-14.5 31.8-0.2 0.6c0 0 18.5 16.1 20.1 18.5 1.7 2.3 1.7 8.5-0.5 8.5z"/>
						<path id="Layer" class="s2" d="m301.5 417.3c-2.1 0.1-57.9-16.8-59.6-18.8-0.6-0.7 0.8-6.8 2.9-14.8 8.3 4.2 48.4 23.9 50.5 20.7 0.4-0.7-0.3-2-1.2-3.3 3.8 3.5 7.3 6.7 7.9 7.7 1.7 2.3 1.7 8.5-0.5 8.5z"/>
					</g>
					<g id="Layer">
						<path id="Layer" class="s2" d="m284.4 391l-41.2-11.6c0 0 43.1-85.5 42.9-90.9-0.2-4.8-28.2-47.2-29.7-55.1-2.3-12.8 4.1-24.2 10.3-31.2l42.6 12.9c0 0-3.5 7.3-9.9 11.9 0 0 26.1 45.4 26.5 60.2 0.4 14.9-41.5 103.8-41.5 103.8z"/>
						<g id="Layer">
							<path id="Layer" class="s9" d="m285.2 383.6c-5.9-1.9-4.2-1.4-10.2-3.2-2.9-0.8-22.2-6.5-25.1-6.8-0.1 0-0.1 0.1 0 0.1 2.6 1.2 22 6.5 24.9 7.4 6 1.6 4.3 1.1 10.4 2.6 0.1 0.1 0.1-0.1 0-0.1z"/>
							<g id="Layer">
								<path id="Layer" class="s9" d="m306 225.4c-4.1 1.4-8.1 3.3-11.9 5.4-0.2 0.1-0.1 0.3 0.1 0.2 4-1.7 8.1-3.3 12-5.1 0.3-0.2 0.1-0.6-0.2-0.5z"/>
								<path id="Layer" class="s9" d="m301 224.3q-0.5 1.1-0.8 2.2c-0.2 0.6-0.4 1.3-0.3 1.9 0 0.2 0.1 0.2 0.2 0.1 0.4-0.5 0.6-1.2 0.9-1.9q0.4-1 0.8-2.1c0.1-0.5-0.6-0.7-0.8-0.2z"/>
								<path id="Layer" class="s9" d="m301.1 220.4q0.3-1 0.5-2c0.2-0.7 0.5-1.3 0.6-2 0.1-0.1 0.2-0.1 0.2 0-0.2 0.7-0.3 1.4-0.4 2.1q-0.2 1-0.4 2c-0.3 1.2-0.6 2.4-1 3.6 0.6 0 1.3-0.1 1.9-0.5 0.6-0.4 0.9-1.1 1.2-1.8 0.3-0.8 0.5-1.5 0.8-2.2 0.4-0.9 0.7-1.7 0.9-2.5 0-0.1 0.2-0.1 0.2 0-0.5 1.8-0.9 3.6-1.7 5.3-0.3 0.6-0.5 1.3-1.2 1.6-0.7 0.4-1.5 0.4-2.3 0.5-0.1 0-0.2-0.1-0.2-0.2 0.3-1.3 0.5-2.6 0.9-3.9z"/>
							</g>
							<path id="Layer" class="s9" d="m300.2 228.5c1.6 3 3.4 5.8 5.1 8.7q2.5 4.3 4.7 8.7 4.7 8.8 8.6 17.9 1.9 4.6 3.6 9.2c1.2 3.1 2.3 6.2 3 9.4 0.6 3.3 0.8 6.5 0.2 9.8-0.6 3.3-1.6 6.5-2.7 9.7-2.4 7.3-5.1 14.5-8.5 21.3-0.1 0.3-0.5 0.1-0.4-0.2 2.4-6.3 4.8-12.6 7-19 2.1-6.3 4.5-12.7 3.6-19.4-0.5-3.2-1.5-6.3-2.6-9.4q-1.6-4.7-3.5-9.3c-2.5-6-5.3-11.9-8.2-17.7-1.6-3.3-3.3-6.5-4.9-9.8-1.7-3.3-3.3-6.7-5.1-9.8-0.1-0.1 0.1-0.2 0.1-0.1z"/>
							<path id="Layer" class="s9" d="m269.2 221.6c0.7-0.1 1.9 0.2 5.2 0 1 0 1.9-0.2 2.8-0.4 0.9-0.2 1.8-0.4 2.6-1 1.2-0.9 2.2-2.5 3-3.9 0.8-1.5 1.7-3.3 2.1-4.9 0-0.2 0.2-0.1 0.1 0-0.1 1-0.3 2-0.5 2.9-0.3 0.9-0.7 1.8-1.1 2.7-0.7 1.6-1.6 3.3-3 4.3-1.6 1.2-3.7 1.3-5.5 1.4-1.1 0.1-5.3-0.1-5.8-0.7-0.1-0.1-0.1-0.4 0.1-0.4z"/>
							<path id="Layer" class="s9" d="m251.8 372.5c4.7-11.7 29.9-63.3 34.9-74.1 1.2-2.5 2.6-5.1 3.2-7.9 0.7-3.1-0.1-5.8-1.4-8.6-2.2-5-4.9-9.9-7.7-14.6-2.8-4.8-5.8-9.4-8.8-14.1-2.9-4.7-6-9.3-8.4-14.3-2.2-4.7-3.4-9.8-2.7-15 0.8-5.3 3.2-10.1 5.7-14.7q1-1.8 2-3.6c0-0.1 0.2 0 0.1 0.1-2.8 4.8-5.5 9.8-6.8 15.2-0.7 2.7-1 5.5-0.8 8.2 0.3 2.8 1.1 5.5 2.2 8.1 2.2 5 5.2 9.6 8.1 14.2 2.9 4.7 5.9 9.3 8.8 14.1 2.9 4.8 5.6 9.6 8 14.7 1 2.2 2.2 4.6 2.4 7.1 0.2 2.7-0.8 5.3-1.9 7.8-4.8 10.7-36 76.2-36.7 77.5-0.1 0.2-0.3 0-0.2-0.1z"/>
						</g>
					</g>
				</g>
			</g>
			<g id="Layer">
				<path id="Layer" class="s2" d="m317.2 132.7c0 0 8.1-4.5 15.3 0 7.3 4.4 10.7 15.3 9.5 24.4-1.3 9.2 6.3 15.2 7.1 22 0.8 6.8-3.7 9.9-5.2 13.5-1.8 4.1 5.2 18.6-12.5 21.9-22.2 4.2-30.7-9.2-28.4-20.3 1.1-5.5 4.2-9.3 4.1-13.7 0-4.4-3.2-7.9-1.5-13.5 1.6-5.6 3.8-4.9 4.7-13.6 0.9-8.8-0.9-19.3 6.9-20.7z"/>
				<path id="Layer" class="s2" d="m331 132.4c4.8 3.1 8.4 7.4 10.5 12.5 1.1 2.5 1.7 5.2 1.9 7.9 0.2 3.6-0.4 6.9 1 10.4 2.2 5.6 6.5 10.2 6.3 16.4-0.1 2.8-1 5.6-2.7 8-1.9 2.8-4.6 5-6.2 8-0.1 0.2-0.3 0-0.2-0.1 1.3-2.6 3.5-4.7 5.3-7 2.1-2.9 3.3-6.3 3.2-9.8-0.1-5.8-4.4-10.4-6.4-15.7-0.9-2.4-0.9-4.8-0.9-7.3 0.1-3-0.2-6-1.1-8.9-1.8-5.7-5.7-10.6-10.7-14.3-0.1 0 0-0.1 0-0.1z"/>
				<path id="Layer" class="s2" d="m340.3 199.2c0.1 0 0.1 0 0 0 0 0 0 0 0 0z"/>
				<path id="Layer" class="s2" d="m303.1 192.6c0.5-2.6 1.9-5 2.5-7.6 0.6-3.2-0.2-6.3-0.8-9.4-0.8-4.4-0.7-8.6 1.2-12.8 1.3-2.7 2.9-5.2 3.8-8 1.1-3.1 1.6-6.3 1.7-9.5 0-0.1 0.1-0.1 0.1 0 0.1 4.7-0.8 9.2-2.9 13.5-1.2 2.5-2.7 4.9-3.4 7.5-0.9 3.3-0.6 6.4 0 9.6 0.4 2.2 0.9 4.3 0.8 6.5 0 2.3-0.7 4.3-1.5 6.5-2.1 5.5-2.1 11.1 0.1 16.6 0 0.1-0.2 0.2-0.2 0.1-1.8-4.1-2.4-8.6-1.4-13z"/>
				<path id="Layer" class="s2" d="m349.7 178.3c-0.2-4.8-3.6-8.1-5.7-12.3-1.6-3.2-2.6-6.6-2.1-10.1 0 0 0.1 0 0.1 0-0.3 5.1 1.9 9.7 4.7 13.9 1.9 2.8 3.5 5.5 3.5 8.9 0 3.3-1.3 6.1-3.3 8.9-1.3 1.9-2.7 3.8-3.3 6.1-0.5 2.3-0.4 4.7-0.3 7 0 0.2-0.2 0.2-0.2 0-0.3-3.6-0.4-7.1 1.5-10.4 2.3-4.1 5.3-7.1 5.1-12z"/>
				<path id="Layer" class="s2" d="m302.2 189.2c0.8-1.7 1.8-3.2 2.8-4.7 1.9-2.7 2.2-5 1.6-8.2 0-0.1 0.1-0.1 0.1 0 0.9 2.6 1.1 4.9-0.5 7.3-2.2 3.4-4.4 6.5-4.8 10.6-0.9 7.3 3.3 14 10 17.7 0.1 0.1 0 0.2-0.1 0.2-5.6-2.8-9.6-7.8-10.4-13.6-0.4-3.2 0-6.4 1.3-9.3z"/>
			</g>
			<g id="Layer">
				<g id="Layer">
					<g id="Layer">
						<path id="Layer" class="s13" d="m308.7 161.5c-0.2 0.9 1 8 4.7 9.7 1.2 0.6 4.5-5.9 4.5-5.9l0.4-0.5 4.9-5.9-5.3-9.1-0.8-1.3c0 0-1.2 1.7-2.8 3.9q-0.1 0.1-0.2 0.3-0.1 0.2-0.2 0.3-0.4 0.5-0.7 1-0.3 0.4-0.5 0.8-0.3 0.4-0.6 0.8c-1.7 2.6-3.3 5.5-3.4 5.9z"/>
						<path id="Layer" class="s2" d="m314.3 152.4c-0.8 6.3 2.4 10.7 4 12.4l4.9-5.9-5.3-9.1-0.8-1.3c0 0-1.2 1.7-2.8 3.9z"/>
					</g>
					<g id="Layer">
						<path id="Layer" class="s13" d="m337.9 149.2c-0.9 13.6-9.1 14.8-12 14.4-2.7-0.3-11.7-1.1-12.2-14.6-0.6-13.6 6-17.5 12.1-17.4 6.1 0 13 4.1 12.1 17.6z"/>
						<g id="Layer">
							<path id="Layer" class="s2" d="m337.2 146c-0.3-0.1-0.6-0.2-0.9-0.3-0.4-0.1-0.6-0.1-0.9-0.4-0.1-0.2-0.1-0.5 0.1-0.6 0.3-0.3 0.8-0.3 1.2-0.2 0.4 0.1 0.7 0.3 1 0.7 0.3 0.4-0.1 0.9-0.5 0.8z"/>
							<path id="Layer" class="s2" d="m328.4 145.8c0.3 0 0.6-0.1 0.9-0.2 0.4 0 0.7 0 1-0.3 0.1-0.1 0.1-0.4 0-0.5-0.3-0.4-0.7-0.5-1.2-0.4-0.4 0-0.8 0.2-1.1 0.5-0.3 0.3 0 0.9 0.4 0.9z"/>
							<g id="Layer">
								<g id="Layer">
									<path id="Layer" class="s2" d="m330.1 149.3c0-0.1 0 0 0 0-0.1 1-0.3 2-1.1 2.3 0 0 0 0 0 0 1 0 1.3-1.5 1.1-2.3z"/>
									<path id="Layer" class="s2" d="m329.4 148.3c-1.5-0.2-1.8 2.7-0.4 2.9 1.3 0.2 1.6-2.8 0.4-2.9z"/>
								</g>
								<path id="Layer" class="s2" d="m328.8 148.4c-0.3 0.1-0.6 0.4-0.9 0.4-0.4 0-0.6-0.4-0.8-0.7q-0.1 0-0.1 0c-0.1 0.6 0.1 1.2 0.7 1.4 0.6 0.1 1-0.4 1.2-0.9 0-0.1 0-0.3-0.1-0.2z"/>
							</g>
							<g id="Layer">
								<g id="Layer">
									<path id="Layer" class="s2" d="m335.1 149.2c0 0 0.1 0.1 0.1 0.1-0.1 0.9-0.1 2 0.7 2.4 0 0 0 0.1 0 0-1-0.2-1-1.6-0.8-2.5z"/>
									<path id="Layer" class="s2" d="m336.1 148.3c1.4 0.1 1.3 3.1-0.1 3-1.4 0-1.2-3 0.1-3z"/>
								</g>
								<path id="Layer" class="s2" d="m336.7 148.6c0.2 0.2 0.4 0.5 0.7 0.5 0.3 0 0.6-0.3 0.8-0.6q0 0 0 0.1c0 0.5-0.2 1.1-0.8 1.2-0.5 0.1-0.8-0.4-0.9-1 0-0.1 0.1-0.3 0.2-0.2z"/>
							</g>
							<path id="Layer" class="s2" d="m329.4 156.4c0.2 0.2 0.4 0.5 0.7 0.6 0.3 0.1 0.7 0 1-0.1 0.1 0 0.1 0.1 0.1 0.1-0.3 0.3-0.8 0.5-1.3 0.3-0.4-0.1-0.5-0.5-0.6-0.9 0-0.1 0.1-0.1 0.1 0z"/>
							<g id="Layer">
								<path id="Layer" class="s2" d="m333.6 153.4c0 0 0 1.4 0 2 0 0.1-0.2 0.1-0.4 0.1q0 0 0 0c-1.2 0.1-2.3-0.4-2.9-1.4-0.1-0.1 0-0.2 0.1-0.1 0.8 0.7 1.7 0.9 2.7 1 0.1-0.1-0.2-2.3-0.1-2.3 0.4 0 1.1 0.3 1.5 0.4-0.1-2.9-0.6-5.8-0.7-8.7 0-0.1 0.2-0.1 0.2 0 0.8 3 0.9 6.3 1.1 9.3 0 0.4-1.3-0.2-1.5-0.3z"/>
							</g>
							<g id="Layer">
								<path id="Layer" class="s2" d="m333.2 155c0 0-0.6 0.9-1.5 1.2-0.3 0.1-0.7 0.2-1 0.1-0.8-0.2-0.8-0.9-0.7-1.5 0.1-0.4 0.3-0.9 0.3-0.9 0 0 1.1 1 2.9 1.1z"/>
								<path id="Layer" class="s14" d="m331.7 156.2c-0.3 0.1-0.7 0.2-1 0.1-0.8-0.2-0.8-0.9-0.7-1.5 0.8 0.1 1.6 0.6 1.7 1.4z"/>
							</g>
						</g>
						<path id="Layer" class="s2" d="m314 149.1c1.5 0.1 5.8-3.5 6.8-10.7 0 0-1.3 6.4-1.9 7.3-0.6 0.9 2.4-2.1 3.3-7.8 0 0 2.9 2.7 5.5 3.7 2.6 1.1 4.3 1.3 4.5 1.1 0.2-0.2-3.6-1.9-4.6-3.3 0 0 6.9 4.2 10.2 4.8 0.4 0.1 0.8-6.2-3.9-10.2-4.8-3.9-12.5-2.8-14.9-0.9 0 0-2.6 0.1-5.9 3.6-3.2 3.5-0.7 12.3 0.9 12.4z"/>
						<g id="Layer">
							<g id="Layer">
								<path id="Layer" class="s13" d="m316.4 149.5c0 0-2.9-4.3-4.9-3.3-1.9 1 0.2 7.2 2.4 8.1 2.3 0.9 3.1-1.2 3.1-1.2z"/>
								<path id="Layer" class="s2" d="m312.2 147.9c-0.1 0-0.1 0.1 0 0.1 1.5 0.7 2.3 2.2 2.9 3.7-0.5-0.6-1.1-0.9-1.9-0.4 0 0 0 0.1 0 0.1 0.7-0.1 1.2 0 1.6 0.5 0.3 0.4 0.5 0.9 0.7 1.3 0.1 0.1 0.3 0.1 0.3-0.1q0 0 0 0c0.1-2.1-1.5-4.9-3.6-5.2z"/>
							</g>
						</g>
					</g>
				</g>
				<g id="Layer">
					<path id="Layer" class="s15" d="m314.1 206.4l-3.4 10.8-45.3-15.6c0 0 20-32.3 36.7-39.3 8.3-3.5 14.7 0 16.9 6.1 0.5 1.6 5.3 22 3.7 29-1.4 6.1-8.6 9-8.6 9z"/>
				</g>
				<g id="Layer">
					<g id="Layer">
						<path id="Layer" class="s13" d="m307.7 171.8c-3 7.5-11.2 37.7-4.8 46.1 7.8 10.1 21.9 19.3 26.9 23.6 1.3 1 14.2-19.6 10.9-21.8-5.1-3.5-16.9-11.4-17.8-12.4-1.4-1.8-3.2-22.2-4.5-33.3-1.1-10-9-6.5-10.7-2.2z"/>
						<g id="Layer">
							<path id="Layer" class="s13" d="m349.3 231.1c-0.7-1.3-0.1-1.7 2.4-0.8 2.5 1 11.5 6.7 13.2 3.4 1.8-3.3-11-11.3-15.3-12.5-4.2-1.2-11.5-1.7-11.5-1.7 2.2 2 7 7.5 11.2 11.6z"/>
							<path id="Layer" class="s13" d="m324.9 237.1c6.3 5.6 13.9 12.9 23.3 14.6 1.8 0.4 3-0.4 3-0.4 4.2 0.9 5.9-0.8 5.9-0.8 4.1-0.4 5.6-2.4 5.6-2.4 0 0 4.9 1 6-1.9 1.2-3.2-6-3.9-9.7-6.7-8.4-6.5-18.6-17.9-20.9-20z"/>
							<g id="Layer">
								<path id="Layer" class="s2" d="m345.5 239c2.5 1.8 4.9 3.7 7.7 5.2 3 1.6 6.2 2.6 9.4 3.8 0.1 0 0.1 0.2 0 0.2-6.2-1.2-12.7-4.8-17.2-9.1-0.1-0.1-0.1-0.2 0.1-0.1z"/>
								<path id="Layer" class="s2" d="m340.8 243.5c2.6 1.7 7.1 4.5 16.3 6.9 0 0 0 0.1 0 0.1-6.2-0.8-11.5-3.1-16.3-6.9-0.2-0.1-0.1-0.2 0-0.1z"/>
								<path id="Layer" class="s2" d="m338.4 246c4.5 2.6 7.6 3.7 12.8 5.3 0 0 0 0.1 0 0.1-6.1-1.2-8.2-2.3-12.9-5.3-0.2-0.1-0.1-0.2 0.1-0.1z"/>
							</g>
						</g>
					</g>
					<g id="Layer">
						<path id="Layer" class="s15" d="m335.5 216.1l-11.5 22.8c0 0-19-13.2-22.8-22.1-3.7-9 1-30 4.7-41.3 3.6-11.2 12.1-15.1 13.7 3.5 1.6 18.6 3.2 26.8 3.7 27.7 0.6 0.9 12.2 9.4 12.2 9.4z"/>
						<path id="Layer" class="s2" d="m307.8 225.5c-0.3-0.8-5.4-4.9-7.3-11.7-0.8-3-0.4-11.6 0.4-17 0.3-2 0.8-4 1.2-6 0.9-4.1 1.9-8.2 2.5-12.3 0-0.1-0.1-0.1-0.1 0-0.9 2.5-1.6 5.1-2.2 7.7q0-0.2 0-0.5c-0.1-1.2-0.2-2.5-0.1-3.8 0-0.1-0.1-0.1-0.1 0-0.1 1.3-0.2 2.6-0.3 3.8q0 0.9 0 1.8 0 0.4 0 0.8-0.2 1.2-0.5 2.4c-0.4 2.1-0.7 4.2-1.1 6.2-1 5.7-1.4 13.4-0.4 17.6 1.8 7 7.7 10.7 7.8 10.9 0.1 0.1 0.2 0.2 0.2 0.1z"/>
						<path id="Layer" class="s2" d="m320.5 235.1c1.1-1.6 1.9-3.4 2.8-5.1q1.3-2.6 2.6-5.2c1.8-3.4 3.7-6.9 5.2-10.5 0-0.1-0.1-0.1-0.1 0-2.2 3.3-3.9 6.8-5.7 10.3q-1.4 2.6-2.6 5.3c-0.9 1.7-1.7 3.4-2.4 5.2 0 0.1 0.1 0.1 0.2 0z"/>
					</g>
				</g>
			</g>
		</g>
	</g>
	<g id="Character_3">
		<g id="Layer">
			<g id="Layer">
				<path id="Layer" class="s7" d="m485.5 253.7c0 0-7.1 1-9.8 6.3-2.6 5.4-14.9 33.6-17.4 39.1-2.4 5.5-23.4 30.7-23.4 30.7 0 0 6.9 9.3 9 11.2 2.9 2.8 14 7.9 14 7.9 0 0 14.4-39.6 15.7-43.7 1.4-4.1 11.9-51.5 11.9-51.5z"/>
				<path id="Layer" fill-rule="evenodd" class="s2" d="m455.4 324c-0.8 0.6-2.3 1.8-3.4 1.3-1-0.5-0.5-1.8-0.1-2.5 0.6-1.1 1.7-2.5 3.1-3.4 0.9-0.8 1.9-1.3 2.9-1 2.7 0.6-1.7 5-2.5 5.6zm-7.3-2.7c-0.4 1.8-1.5 3.4-2.7 4.7-0.7 0.7-2 2.2-2.8 0.8-0.3-0.4-0.3-1.1-0.2-1.7 0.1-1.2 0.6-2.4 1.1-3.2 0.6-1.3 1.7-3 3.2-3 1.5-0.1 1.6 1.3 1.4 2.4zm7.5-5.8c-0.5 0.3-1.5 0.6-1.9-0.1-0.4-0.7 0.1-1.7 0.5-2.3 0.4-0.6 1.3-1.8 2.3-2.4 0.7-0.6 1.6-0.9 2.2-0.2 1.5 1.4-2 4.4-3.1 5zm-10.3 26.7q-0.8-0.6-1.4-1.2-0.3-0.2-0.7-0.7 0.1 0 0.2 0c1-0.2 1.8 0 2.1 0.9q0.1 0.5-0.2 1zm-5.7-6.3c-1.6-2-3.1-4-4-5.2q0.1-0.6 0.3-1.3c0.1-0.5 0.3-1.1 0.6-1.6q0 0 0 0 0.3-0.5 0.7-0.8 0 0 0 0 0.4-0.4 1.1-0.4c1.9 0 1.9 2.6 2 3.9 0.2 1.8 0.1 3.7-0.7 5.4zm7.7-7.7c0.9 0.5 0.7 3 0.2 4.3-0.6 1.7-1.8 3.6-3.3 3.3-0.7-0.2-1.2-1.9-0.2-4.5 0.9-2.3 2.5-3.5 3.3-3.1zm32.1-47.2q-0.2 0.7-0.4 1.5c-0.1-0.5 0.1-1.1 0.4-1.5zm-3.5-2.1c-0.5 1.8-1.7 3.3-3 4.5-0.8 0.7-2.1 2.1-2.9 0.7-0.2-0.5-0.2-1.1 0-1.8 0.2-1.1 0.8-2.3 1.2-3.1 0.7-1.2 1.9-2.8 3.5-2.8 1.4 0 1.5 1.4 1.2 2.5zm6.5-11.2q-0.5 2.1-1 4.3c-0.4 0-0.9-0.1-1.1-0.5-0.4-0.7 0.3-1.7 0.6-2.3 0.3-0.4 0.8-1 1.5-1.5zm-7.8 18.1c0.9 0.5 0.5 3-0.1 4.3-0.7 1.6-2 3.5-3.4 3-0.7-0.2-1.1-2 0-4.4 1.1-2.4 2.8-3.4 3.5-2.9zm-13 16.1c-0.3 0.5-0.9 1.3-1.6 1.3-0.6-0.1-0.7-0.8-0.6-1.3 0-0.5 0.3-1.4 0.6-2.1 0.5-1 1.1-1.7 2.1-1.7 1.8 0.1-0.1 3.2-0.5 3.8z"/>
			</g>
			<g id="Layer">
				<g id="Layer">
					<g id="Layer">
						<g id="Layer">
							<path id="Layer" class="s13" d="m384.1 405.5c-2-0.7-0.2-6.3 2-8.1 0.6-0.5 3.2-1.8 6.4-3.4 7.1-3.4 17.3-8 17.3-8l-8.7-36.7 35.4 0.2c0 0 9.7 34.5 9.6 36.6q0 0.2 0 0.4c-0.3 9.8-0.8 17.8-1.6 18.3-2.1 1.3-58.4 1.3-60.4 0.7z"/>
							<path id="Layer" class="s0" d="m384.1 405.5c2 0.6 58.3 0.6 60.4-0.7 0.8-0.5 1.3-8.5 1.6-18.3q0-0.2 0-0.4c0-0.4-0.4-2.4-1.1-5.1h-36.4l1.2 5c0 0-10.2 4.6-17.3 8-3.2 1.6-5.8 2.9-6.4 3.4-2.2 1.8-4 7.4-2 8.1z"/>
							<g id="Layer">
								<path id="Layer" class="s7" d="m383.5 405.8c2 0.6 59.3 0.6 61.5-0.8 0.8-0.5 1.3-8.9 1.6-19q0-0.1 0-0.3l-37-0.4v0.7c0 0-21.9 9.8-24.2 11.6-2.2 1.8-3.9 7.5-1.9 8.2z"/>
								<g id="Layer">
									<g id="Layer">
										<path id="Layer" class="s2" d="m384.1 403.6c9.7-0.3 48.7-0.4 58.2 0.1 0.1 0 0.1 0.1 0 0.1-9.5 0.4-48.5 0.2-58.2-0.1-0.2 0-0.2-0.1 0-0.1z"/>
										<path id="Layer" class="s2" d="m405.5 385.4c3.8-0.7 8.4-0.1 11.3 2.6 0.1 0.1 0 0.3-0.1 0.2-3.8-1.1-7.3-1.9-11.2-2.3-0.3 0-0.3-0.4 0-0.5z"/>
										<path id="Layer" class="s2" d="m402.7 387.1c3.8-0.7 8.5-0.1 11.4 2.6 0.1 0.1 0 0.2-0.2 0.2-3.7-1.2-7.2-1.9-11.2-2.3-0.2 0-0.2-0.5 0-0.5z"/>
										<path id="Layer" class="s2" d="m400 388.8c3.8-0.8 8.4-0.2 11.3 2.5 0.2 0.1 0 0.3-0.1 0.3-3.8-1.2-7.3-2-11.2-2.4-0.3 0-0.3-0.4 0-0.4z"/>
										<g id="Layer">
											<path id="Layer" fill-rule="evenodd" class="s2" d="m400.5 377.2c1.5-2.1 4.3-1.2 5.9 0.1 2.6 2.2 4.8 5.6 5.8 8.8 0.1 0 0 0.1 0 0.1-0.1 0.3-0.3 0.6-0.6 0.5-3.2-1.2-6.7-2-9.4-4.1-1.5-1.3-3.1-3.5-1.7-5.4zm6.7 6.7c1.5 0.6 3 1.2 4.5 1.8-1.1-1.7-2.2-3.4-3.5-5-0.6-0.7-1.3-1.5-2-2.1-1.1-1.1-5.6-3.3-4.9 0.9 0.3 2.3 4 3.7 5.9 4.4z"/>
											<path id="Layer" fill-rule="evenodd" class="s2" d="m421.9 385c-3.1 1.4-6.7 1.3-10.1 1.6-0.3 0.1-0.5-0.3-0.4-0.6-0.1 0-0.1 0-0.1-0.1 1.8-2.8 4.9-5.5 7.9-7 1.9-0.8 4.8-1 5.7 1.3 0.9 2.3-1.2 4.1-3 4.8zm1.7-2.7c1.7-3.8-3.2-2.8-4.5-2.1-0.9 0.4-1.7 1-2.5 1.6-1.7 1.1-3.2 2.6-4.7 3.9 1.6-0.3 3.3-0.4 4.9-0.6 1.9-0.2 5.9-0.6 6.8-2.8z"/>
										</g>
									</g>
								</g>
							</g>
						</g>
						<g id="Layer">
							<path id="Layer" class="s9" d="m485.8 324.8c0 0 6.3 22.9-4.7 29.7-7.4 4.5-40.1-1.7-41.5-5.8-2.6-7.6-2.6-10.4-2.6-10.4l8.4 40.4-41.2 0.5c0 0-7.7-33.4-5.7-68.9 0.7-13.1 18.4-17.1 30.6-10.6 11.9 6.3 33.3 23.9 33.3 23.9z"/>
							<g id="Layer">
								<path id="Layer" class="s2" d="m441.9 355.1c-2.2-5.5-2-7.6-7.6-24.4-0.7-2.3-1.3-4.6-2-6.9-0.7-2.3-1.5-4.7-2-7.1 0-0.1-0.2 0-0.2 0.1 0.6 2.1 1.1 4.2 1.6 6.3q0.8 3.1 1.7 6.2 0.3 1.3 0.7 2.6-0.1-0.2-0.3-0.5-0.7-1.2-1.5-2.5c-1-1.7-2.3-3.3-3.2-5 0-0.1-0.2 0-0.1 0.1 1 1.7 1.8 3.5 2.7 5.3q0.8 1.2 1.5 2.4c0.5 0.7 0.9 1.6 1.5 2.2 0.8 2.6 2.4 8.9 3.2 11.5 2.5 8.1 1.7 5.4 3.6 9.8 0.1 0.2 0.5 0.1 0.4-0.1z"/>
								<path id="Layer" class="s2" d="m423.2 372.1c6.2-0.1 12.3-0.4 18.5-0.6 0.1 0 0.2-0.2 0-0.2-6.1 0-12.3-0.2-18.5-0.2-6.2 0.1-12.3 0.4-18.5 0.6-0.2 0-0.2 0.3 0 0.3 6.1 0 12.3 0.1 18.5 0.1z"/>
								<path id="Layer" class="s2" d="m438.3 370c-0.5-2.7-1.3-5.4-2-8.1q-1.1-4.1-2.2-8.1c-1.5-5.4-3.1-10.8-4.6-16.1-0.9-3.1-1.9-6.1-2.8-9.2 0 0-0.2 0-0.1 0.1q4.1 16.2 8.9 32.3c0.9 3.1 1.7 6.1 2.7 9.1 0.1 0.1 0.2 0.1 0.1 0z"/>
							</g>
							<path id="Layer" class="s2" d="m481.1 354.5c11-6.8 4.7-29.7 4.7-29.7l-19.8-1-26.8 23.6q0.2 0.7 0.4 1.3c1.4 4.1 34.1 10.3 41.5 5.8z"/>
							<path id="Layer" class="s2" d="m404 378.3q0.2 0.9 0.2 0.9l41.2-0.5-6.5-31.1z"/>
						</g>
					</g>
				</g>
				<g id="Layer">
					<g id="Layer">
						<path id="Layer" class="s13" d="m570 409.7c0.4 2-5.4 3.2-7.9 2.2-0.9-0.4-3.2-2-6.2-4.1-6.4-4.5-15.3-11.3-15.3-11.3l-30.2 1.9-16.9-31.1c0 0 27.8-1.6 29.8-2.6q0.1-0.1 0.3-0.2c8.7-4.4 15.9-7.9 16.7-7.4 2.3 1.2 29.4 50.6 29.7 52.6z"/>
						<path id="Layer" class="s0" d="m518 365.5l15.9 31.4 6.7-0.4c0 0 8.9 6.8 15.3 11.3 3 2.1 5.3 3.7 6.2 4.1 2.5 1 8.3-0.2 7.9-2.2-0.3-2-27.4-51.4-29.7-52.6-0.8-0.5-8 3-16.7 7.4q-0.2 0.1-0.3 0.2c-0.5 0.2-2.5 0.5-5.3 0.8z"/>
						<g id="Layer">
							<path id="Layer" class="s7" d="m570.6 410.1c-0.3-2.1-28-52.3-30.3-53.5-0.8-0.5-8.4 3.1-17.4 7.7q-0.1 0.1-0.3 0.2l17.5 32.6 0.6-0.4c0 0 19.2 14.5 21.8 15.6 2.6 1.1 8.5-0.1 8.1-2.2z"/>
							<g id="Layer">
								<g id="Layer">
									<path id="Layer" class="s2" d="m568.4 410.6c-4.9-8.3-23.8-42.5-27.9-51.1-0.1-0.1 0-0.1 0 0 5 8.2 23.6 42.4 28 51 0.1 0.2 0 0.3-0.1 0.1z"/>
									<path id="Layer" class="s2" d="m542.2 400.6c-2.5-3-4.2-7.3-3.2-11.2 0-0.1 0.2-0.1 0.3 0 0.7 3.9 1.8 7.3 3.3 11 0.1 0.2-0.2 0.4-0.4 0.2z"/>
									<path id="Layer" class="s2" d="m545 402.2c-2.5-3-4.2-7.3-3.2-11.2 0-0.1 0.2-0.1 0.2 0.1 0.8 3.8 1.8 7.2 3.4 10.9 0.1 0.2-0.2 0.4-0.4 0.2z"/>
									<path id="Layer" class="s2" d="m547.8 403.8c-2.5-3-4.2-7.3-3.3-11.2 0.1-0.1 0.3-0.1 0.3 0.1 0.8 3.8 1.8 7.2 3.4 10.9 0.1 0.2-0.3 0.4-0.4 0.2z"/>
									<g id="Layer">
										<path id="Layer" fill-rule="evenodd" class="s2" d="m537.3 408.9c-2.5-0.3-3-3.2-2.6-5.2 0.6-3.3 2.5-6.9 4.8-9.3 0-0.1 0.1-0.1 0.1 0 0.3-0.1 0.7-0.1 0.7 0.3 0.5 3.3 1.5 6.8 0.9 10.1-0.3 2-1.5 4.4-3.9 4.1zm2.8-9c-0.2-1.7-0.5-3.3-0.7-4.9-0.9 1.8-1.9 3.6-2.6 5.5-0.4 0.9-0.8 1.8-1 2.8-0.3 1.5-0.1 6.5 3.2 3.9 1.9-1.5 1.3-5.4 1.1-7.3z"/>
										<path id="Layer" fill-rule="evenodd" class="s2" d="m533.9 386.4c2.7 2.1 4.4 5.3 6.3 8 0.2 0.3 0 0.7-0.3 0.7 0 0.1 0 0.2-0.1 0.2-3.4-0.3-7.2-1.6-9.9-3.6-1.7-1.2-3.3-3.7-1.6-5.6 1.5-1.9 4.1-0.9 5.6 0.3zm-3.2-0.2c-4.2 0.4-1 4.2 0.3 5 0.8 0.6 1.7 1 2.6 1.4 1.9 0.9 3.8 1.6 5.7 2.3-1-1.3-1.9-2.7-2.8-4.1-1.2-1.5-3.4-4.8-5.8-4.6z"/>
									</g>
								</g>
							</g>
						</g>
					</g>
					<g id="Layer">
						<path id="Layer" class="s9" d="m459.8 319.1c0 0-1.1 9.6-1 16.9 0 0-39.1 20.5-40.9 39.9-0.6 6.9 0.3 19.9 13.8 25.7 15.2 6.6 98.6 2.1 98.6 2.1l-10.4-38.4h-36.8c0 0 26 4.1 28.8-13.2 2.6-16.1-7.3-33-7.3-33 0 0-44.8 0-44.8 0z"/>
						<path id="Layer" class="s2" d="m521.7 401.8c-0.9-4.4-1.8-8.9-2.8-13.3q-1.6-6.6-3.3-13.2-0.5-1.8-1-3.7-0.2-0.8-0.5-1.7c-0.2-0.6-0.3-1.2-0.5-1.8-0.1-0.1-0.1 0-0.1 0 0.1 1.2 0.4 2.3 0.6 3.4q0.4 1.6 0.7 3.2 0.8 3.3 1.5 6.6c1 4.4 2.1 8.8 3.3 13.1q0.9 3.7 1.9 7.5c0.1 0.1 0.3 0.1 0.2-0.1z"/>
						<path id="Layer" class="s2" d="m495.8 365.3c-3-0.2-6-0.3-9-0.4-2.9-0.1-5.9 0-8.9 0-3 0.1-6 0.2-9 0.5-3 0.3-6 0.6-8.9 1.3l2.2-0.3 2.3-0.2q2.2-0.2 4.4-0.3 4.5-0.3 9-0.4c3-0.1 6-0.1 8.9-0.1z"/>
						<path id="Layer" class="s2" d="m496.5 322.3q2 5.1 3.4 10.5c1 3.5 1.8 7.1 2.2 10.7 0.1 1.8 0.2 3.7 0.1 5.5-0.2 1.8-0.5 3.6-1.4 5.2q-0.6 1.2-1.5 2.1-1.1 0.8-2.2 1.5c-1.6 0.9-3.3 1.5-5.1 2-3.5 1-7.1 1.5-10.7 2-3.7 0.4-7.3 0.7-11 1.1-3.7 0.3-7.3 0.8-11 1.7-1.8 0.4-3.6 1-5.2 1.9q-2.5 1.4-4.6 3.3l-0.8 0.7h1.1l29.8-0.4 14.9-0.1c4.9-0.1 9.9-0.1 14.8 0.1-4.9-0.3-9.9-0.4-14.8-0.5-5-0.1-10-0.1-14.9-0.1h-14.9l-14.9 0.1 0.3 0.8c1.3-1.2 2.8-2.3 4.4-3.1 1.6-0.9 3.3-1.4 5.1-1.9 3.5-0.8 7.1-1.2 10.8-1.6 3.6-0.4 7.3-0.8 11-1.2 3.6-0.4 7.3-1 10.9-2 1.7-0.6 3.5-1.2 5.1-2.2q1.3-0.7 2.3-1.6c0.7-0.7 1.3-1.5 1.7-2.3 0.9-1.7 1.2-3.6 1.4-5.5 0.1-1.8 0-3.7-0.2-5.5-0.5-3.7-1.3-7.3-2.4-10.8q-1.6-5.3-3.7-10.4z"/>
						<path id="Layer" class="s2" d="m464 318.7c0 0-0.1 0-0.1 0-0.2 1.4-0.7 9-0.9 11.8-0.1 1.1 0 2.9-1.5 2.9-1.2 0-1.8-1.3-1.9-2.3-0.2-1.2 0.5-10.1 0.7-13 0-0.1-0.2-0.1-0.2 0-0.5 2.9-1.6 12.3-1.3 13.6 0.3 1 0.8 2 1.8 2.4 0.1 0-0.1 1.3 0.1 3.4 0 0.1 0.3 0.2 0.3 0.1 0-0.7 0.3-3.4 0.3-3.4 0.8 0 1.4-0.2 1.9-0.8 1.1-1.4 0.8-11.3 0.8-14.7z"/>
						<path id="Layer" class="s2" d="m468.2 341.3q-1.6-1.1-3.2-2.1-1.7-0.9-3.4-1.8-1.7-1-3.5-1.8c-1.2-0.5-2.3-1-3.6-1.5 0.6 0.4 1.2 0.7 1.7 1l1.7 0.9q1.7 1 3.4 1.9 1.7 0.9 3.4 1.7l1.8 0.9q0.8 0.4 1.7 0.8z"/>
						<path id="Layer" class="s2" d="m496 335.2c-2.1 0-8.6 0.4-11.6-2.3-2.5-2.1-3.6-9.2-4.1-11.2 0-0.1-0.1-0.1-0.1 0-0.1 2.2 0.2 4.5 0.8 6.6 0.5 1.8 1.2 3.9 2.6 5.1 1.6 1.4 3.7 1.9 5.7 2.1 2.2 0.3 4.4 0.2 6.7-0.1 0.1 0 0.1-0.2 0-0.2z"/>
					</g>
				</g>
			</g>
			<g id="Layer">
				<path id="Layer" fill-rule="evenodd" class="s2" d="m491.8 253.3c-0.8 0.2-1.7 0.3-2.5-0.2-0.2-0.2-0.4-0.4-0.6-0.5-0.4-0.3-0.8-0.3-1.2-0.3-0.5 0-0.9 0-1.4-0.1-1.4-0.2-2.8-1-3.1-2.4-2 0.5-4.3-0.5-5.2-2.4q-0.2-0.4-0.3-0.8c-0.1-0.4 0-0.9-0.3-1.2-0.2-0.3-0.7-0.4-1-0.6q-0.5-0.3-0.8-0.6c-0.6-0.6-0.9-1.7-0.3-2.3-1.1-0.4-1.7-1.6-1.7-2.7-0.1-1.5 0.5-2.9 1.5-3.9-1.1-1.4-0.9-3.7 0.6-4.8-1-1.5-0.2-3.7 1.5-4.3-0.1-1.5 0.5-2.9 1.7-3.9 0.3-0.2 0.5-0.4 0.6-0.7-0.1-1 0-2 0.8-2.8 0.7-0.8 1.9-1 2.9-0.6 0.2-0.3 0.8-1 1.8-1.6 1.1-0.6 2.4-0.7 3.5-0.1 1.8-2.3 5.2-2.4 7.3-0.3 0.8-1.2 2.3-1.6 3.7-1.4 1.6 0.4 2.9 1.7 3.8 3 0.9-0.9 2.2-1 3.2-0.3 0.8 0.6 1.1 1.5 1.1 2.4 0.9 0.3 1.9 0.8 2.3 1.7 0.4 0.8 0.4 1.8-0.1 2.5 2.3 0.9 2.8 4 0.9 5.6 1.5 0.3 2.8 1.4 3.2 2.9 0.5 1.6-0.2 3.3-1.4 4.3 1.2 0.8 1.7 2.3 1.5 3.7-0.3 1.6-1.6 2.9-3 3.6 0.6 1.3 0.4 2.9-0.5 4-0.9 1-2.2 1.5-3.4 1.5 1.3 0.4 2.6 0.3 3.7-0.8 1.2-1.3 1.1-3.2 0.2-4.7q0 0 0 0c1.2 1.5 1.3 3.5 0 5-1.3 1.3-3.1 1.3-4.7 0.6 0.2 1.6-0.5 3.2-1.8 4.1-1.4 0.9-3.2 0.9-4.6 0.1-2 3-6.8 3.1-7.9-0.7zm-12.3-32.1q0-0.1 0-0.1 0.1-0.5 0.4-0.9c0.3-0.6 0.9-1.1 1.5-1.4q0.4-0.2 0.9-0.3c0.2 0 0.6 0 0.6 0q0 0 0.1-0.1c-1.2-0.3-2.3 0.1-3 1-0.4 0.6-0.5 1.2-0.5 1.8zm27.5-1.4q0.1 0 0.1 0c0-0.8-0.2-1.5-0.9-2.1-1-0.8-2.1-0.5-3 0.2q0.1 0 0.1 0.1c0.9-0.5 2.2-0.3 2.9 0.4q0.6 0.6 0.8 1.4zm-8.6 35.1c-2.2 1.2-5 0.6-6.4-1.6q0 0 0 0c1.3 3.1 4.1 3.1 6.4 1.6z"/>
				<g id="Layer">
					<g id="Layer">
						<g id="Layer">
							<path id="Layer" class="s16" d="m481.9 266.9c2.4 0.6 8.2-2.8 10.9-6.1 0.2-0.2 0.3-3 0.6-6.3 0.2-2 0.4-4.3 0.8-6.3l-13.3 0.7c0 0 0.4 4.5-0.2 8.1q-0.1 0.4-0.3 0.8 0 0.1 0 0.1c-0.6 1.6-2.1 8.1 1.5 9z"/>
						</g>
						<path id="Layer" class="s2" d="m481.7 258.2q-0.7-0.1-1.3-0.3 0 0 0-0.1 0.2-0.4 0.3-0.8c0.6-3.6 0.2-8.1 0.2-8.1l12.3-0.7c-1.1 3.2-4.6 11.1-11.5 10z"/>
					</g>
					<g id="Layer">
						<g id="Layer">
							<path id="Layer" class="s16" d="m500 232.7c0.3 4.8-5.3 17.1-9.2 19.2-5.6 3-13.3 1.5-15.4-4.9-2.1-6.2 5.4-22.1 9.6-23.9 6.2-2.5 14.6 2.5 15 9.6z"/>
						</g>
						<g id="Layer">
							<g id="Layer">
								<path id="Layer" class="s2" d="m484.8 236.8c0.1 0 0.1 0.1 0.1 0.1-0.5 0.8-0.8 1.8-0.2 2.4 0 0 0 0.1-0.1 0.1-0.8-0.6-0.3-1.9 0.2-2.6z"/>
								<path id="Layer" class="s2" d="m486 236.3c1.4 0.6 0.1 3.2-1.1 2.7-1.3-0.5 0-3.2 1.1-2.7z"/>
							</g>
							<g id="Layer">
								<path id="Layer" class="s2" d="m480.5 234.7c0-0.1-0.1 0-0.1 0-0.3 0.8-0.9 1.7-1.8 1.7 0 0 0 0 0 0 1 0.3 1.7-0.9 1.9-1.7z"/>
								<path id="Layer" class="s2" d="m480.2 233.5c-1.3-0.8-2.6 1.9-1.5 2.5 1.2 0.7 2.5-2 1.5-2.5z"/>
							</g>
							<path id="Layer" class="s2" d="m487.6 235.6c-0.3-0.3-0.6-0.6-0.9-0.9-0.3-0.3-0.6-0.5-0.7-1 0-0.2 0.2-0.6 0.4-0.6 0.6-0.2 1.1 0.1 1.5 0.5 0.4 0.4 0.7 0.8 0.8 1.4 0.1 0.6-0.7 0.9-1.1 0.6z"/>
							<path id="Layer" class="s2" d="m479.7 232c0.4 0.1 0.8 0.1 1.2 0.2 0.4 0.1 0.8 0.2 1.2 0 0.3-0.1 0.4-0.5 0.3-0.7-0.2-0.6-0.7-0.8-1.3-0.9-0.6-0.1-1-0.1-1.6 0.2-0.5 0.3-0.3 1 0.2 1.2z"/>
							<path id="Layer" class="s2" d="m482.6 245.1c-0.3 0.1-0.6 0.3-0.9 0.1-0.3-0.1-0.6-0.3-0.8-0.6 0 0-0.1 0-0.1 0.1 0.1 0.4 0.5 0.8 0.9 0.9 0.4 0.1 0.7-0.1 1-0.4 0-0.1-0.1-0.1-0.1-0.1z"/>
							<g id="Layer">
								<g id="Layer">
									<path id="Layer" class="s2" d="m482.9 242.2c-0.8 0.5-1.7 0.6-2.5 0.4q-0.5-0.1-1-0.4-0.1-0.1-0.2-0.1-0.1-0.1-0.2-0.1-0.1-0.1-0.1-0.3 0.1 0 0.1-0.1 0 0 0 0v-0.1c0.3-0.6 0.8-1.5 0.8-1.5-0.3 0-1.7 0-1.6-0.4 1.5-2.6 3-5.6 5-8 0.1-0.1 0.2 0 0.2 0.1-1.3 2.6-3 5-4.3 7.6 0.4 0.1 1.2 0.1 1.5 0.2 0.1 0.1-1 1.8-1.1 2.1q0 0 0 0.1c1 0.6 1.9 0.6 3.3 0.4 0.1 0 0.1 0.1 0.1 0.1z"/>
								</g>
							</g>
							<g id="Layer">
								<path id="Layer" class="s2" d="m479.9 242c0 0 0.2 1.1 0.9 1.7 0.2 0.2 0.5 0.4 0.9 0.5 0.7 0.1 1-0.5 1.1-1.1 0.1-0.5 0.1-0.9 0.1-0.9 0 0-1.4 0.4-3-0.2z"/>
								<path id="Layer" class="s14" d="m480.8 243.7c0.2 0.2 0.5 0.4 0.9 0.5 0.7 0.1 1-0.5 1.1-1.1-0.7-0.2-1.7-0.1-2 0.6z"/>
							</g>
						</g>
						<path id="Layer" fill-rule="evenodd" class="s2" d="m480.4 227c0.7-1 1.3-1.1 1.3-1.1 0 0 0.3-1.4 1.9-2.8 1.7-1.4 3.1-1.3 3.1-1.3 0 0 1.4-1 4.1-0.9 0.7 0 2.5 0.4 3 0.8 0.6 0.4 1.3 0.3 2 0.4q0.9 0.2 1.7 0.8 0.7 0.5 1.1 1.1 0.3 0.4 0.5 0.9c0.3 0.5 0.6 0.7 1 0.9 0.9 0.6 1.6 1.5 1.8 2.7 0.2 0.7 0.2 1.3 0 2-0.2 0.9 0.6 1.5 0.8 2.3 0.2 1.3-0.4 2.7-1.4 3.3 0.9 1.1 0.9 3-0.1 4.2-0.7 1-1.8 1.2-2.8 1.3q-0.3 0-0.6-0.1c-2-0.1-3.5-2.8-2.2-5q0 0 0 0c0 0-1.4-0.7-2.2-2.6-0.5-1.1-0.5-2.5-0.2-3.8-2.8 1-5.9-1.4-5.6-4.7-0.9 0.6-3.2 1.4-4.1 0.9-1.1 2.7-3.2 3.4-3.7 3.2-0.1 0-0.2-1.3 0.6-2.5zm15.6 13.2c-0.4-0.7-0.6-1.7-0.4-3.5-0.6 1.3-0.3 2.6 0.4 3.5zm-5.7-10.7c-1.3-0.7-2.3-2.2-2.5-4 0 2.1 1 3.4 2.5 4z"/>
						<g id="Layer">
							<path id="Layer" class="s16" d="m494.6 242.5c0 0 4.1-3.4 5.7-1.8 1.6 1.5-2.3 6.9-4.7 7.2-2.4 0.2-2.7-2.1-2.7-2.1z"/>
							<path id="Layer" class="s2" d="m499.1 242.2c0.1 0 0.1 0.1 0 0.1-1.7 0.2-2.9 1.4-3.9 2.7 0.6-0.4 1.4-0.6 2 0.2 0 0-0.1 0.1-0.1 0.1-0.6-0.4-1.1-0.4-1.6 0-0.4 0.3-0.8 0.7-1.1 1.1-0.1 0.1-0.3-0.1-0.3-0.2q0.1 0 0.1 0c0.5-2 2.8-4.4 4.9-4z"/>
						</g>
					</g>
				</g>
				<g id="Layer">
					<path id="Layer" class="s0" d="m511.1 333.3c-0.2 0.1-54.2-8.9-54.7-9.5-0.1-0.2-4.1-3.2-2.2-9.5 0.5-1.7 3-3.7 3.8-6.1 5-14.4 14.5-42.2 21.1-49.4 2.7-2.8 10.7-3.8 14-0.5 14.1 14.1 18.5 74.5 18 75z"/>
				</g>
				<g id="Layer">
					<path id="Layer" class="s7" d="m480.7 257c0 0-12 53.1-12.5 59.7-0.4 6.6 3.9 21.7 3.9 21.7 8.3 9.6 44.5 16.9 44.5 16.9 0 0-10.1-88.8-22.4-97-6.5-4.2-13.5-1.3-13.5-1.3z"/>
					<path id="Layer" fill-rule="evenodd" class="s2" d="m510.3 323.9c-0.3 0.9-0.8 2.8-2 3-1.1 0.2-1.4-1-1.5-1.9-0.2-1.2-0.2-3 0.4-4.6 0.2-1.1 0.7-2.1 1.7-2.5 2.6-1.1 1.7 5 1.4 6zm-7.5 2.2c0.8 1.7 0.9 3.6 0.7 5.4-0.1 1-0.3 2.9-1.7 2.3-0.5-0.2-0.9-0.7-1.2-1.3-0.6-0.9-1-2.2-1.1-3.1-0.3-1.4-0.4-3.4 0.8-4.4 1.1-0.9 2 0.1 2.5 1.1zm2.6-9.2c-0.3 0.6-0.9 1.4-1.7 1.1-0.7-0.3-0.9-1.4-0.9-2.1-0.1-0.7-0.1-2.2 0.3-3.3 0.3-0.9 0.8-1.6 1.7-1.5 2 0.2 1 4.7 0.6 5.8zm5 32.1c-0.5 0.4-1.5 0.8-2 0.2-0.5-0.7-0.1-1.8 0.2-2.4 0.3-0.7 1-1.9 1.9-2.7 0.7-0.7 1.5-1.1 2.2-0.5 1.7 1.2-1.4 4.6-2.3 5.4zm-34.2-44.1c1.1 1.4 1.5 3.3 1.7 5.1 0.1 1 0.4 2.9-1.2 2.6-0.5-0.1-1-0.5-1.4-1-0.8-0.8-1.4-2-1.7-2.9-0.6-1.2-1.1-3.2-0.2-4.4 0.9-1.1 2.1-0.3 2.8 0.6zm-0.3 16.8c0.1 0.7-0.1 1.7-0.9 1.8-0.8 0.1-1.5-0.9-1.8-1.5-0.5-0.6-1.1-1.9-1.3-3.1-0.2-0.9-0.1-1.8 0.8-2.1 1.9-0.7 3.2 3.7 3.2 4.9zm18.5-10.5c0.9-0.1 1.7 1.2 2.1 1.9 0.6 1 1 2.3 1.2 3.5 0.1 0.7 0.3 2.2-0.4 2.8-0.8 0.6-1.5-0.1-2.1-1.1-1.2-1.4-1.8-3.5-1.7-5.2 0-0.7 0-1.8 0.9-1.9zm7.8 26.9c1.3 1.5 2.5 3.2 2.7 5.2 0.1 0.9-0.3 1.6-1 1.8-0.7 0.2-1.7-0.3-2.4-0.8-1.5-1-2.8-2.6-3.5-4.3-0.5-1.1-1-2.9 0.2-3.7 1.5-1.1 3.1 0.9 4 1.8zm4.1-6c1.1-0.2 2.4 2 2.8 3.3 0.5 1.7 0.7 4-0.6 4.6-0.7 0.3-2.1-0.8-2.9-3.4-0.8-2.4-0.1-4.3 0.7-4.5zm-25.1-12.2c1 0.3 1.3 2.8 1 4.2-0.2 1.7-1 3.9-2.5 3.8-0.7 0-1.6-1.6-1.1-4.3 0.4-2.5 1.8-3.9 2.6-3.7zm11.9-42.9c-0.8 0.7-2.2 1.9-3.3 1.4-1.1-0.4-0.7-1.7-0.3-2.4 0.6-1.2 1.7-2.6 3-3.6 0.8-0.8 1.8-1.3 2.9-1.1 2.7 0.5-1.5 5.1-2.3 5.7zm-7.4-2.4c-0.3 1.9-1.3 3.5-2.5 4.8-0.7 0.8-1.9 2.3-2.8 1-0.2-0.4-0.3-1.1-0.2-1.8 0-1.1 0.5-2.3 0.9-3.2 0.5-1.2 1.6-3 3.1-3.1 1.4-0.1 1.6 1.2 1.5 2.3zm5.5-7.8c-0.5 0.3-1.5 0.7-1.9 0-0.5-0.7 0.1-1.7 0.4-2.3 0.3-0.7 1.2-1.9 2.1-2.6 0.8-0.6 1.6-0.9 2.3-0.2 1.5 1.3-1.8 4.5-2.9 5.1zm-6 14.8c0.9 0.4 0.8 2.9 0.4 4.3-0.6 1.6-1.7 3.7-3.1 3.4-0.8-0.1-1.3-1.9-0.5-4.5 0.8-2.4 2.4-3.6 3.2-3.2zm16.8 20.9c0 0.5 0 1.6-0.6 2-0.5 0.3-1-0.2-1.2-0.6-0.3-0.5-0.6-1.3-0.8-2.2-0.2-1-0.1-2 0.6-2.5 1.6-1 1.9 2.5 2 3.3zm-8.1-18.4c-0.6 0.2-1.6 0.6-2.1 0.1-0.5-0.3-0.2-0.9 0.2-1.3 0.3-0.4 1-1 1.7-1.4 0.9-0.5 1.9-0.8 2.6-0.2 1.5 1.1-1.8 2.6-2.4 2.8z"/>
				</g>
				<g id="Layer">
					<g id="Layer">
						<path id="Layer" class="s16" d="m491.4 270.1c-7.5 3.2-40.7 13.4-49.4 7.1-10.6-7.6-20.3-21.6-24.8-26.7-1.1-1.2 19.5-15 21.8-11.7 3.7 5.2 10.8 16.4 11.9 17.2 1.9 1.4 24 3.2 35.3 4.2 10.2 0.9 9.6 8 5.2 9.9z"/>
						<g id="Layer">
							<g id="Layer">
								<g id="Layer">
									<g id="Layer">
										<path id="Layer" class="s16" d="m442.8 244.4c0 0-2-3.9-2.2-4.1-0.4-0.9-0.8-1.9-1.3-4.3-1.3-5.6-8-18.6-24.1-21.1-6.1-0.9-9.5 3-3.2 5.1 4.3 1.5 7.5 2.2 8.8 3.1 0 0-6.7 2.4-7.8 6.3-0.5 1.8-1.7 6.6-2.2 10.6 0 0 0.9 0.3 2 0.5 0 0-1.2 5.1 3.4 8.6l4.3 5.4z"/>
									</g>
								</g>
								<g id="Layer">
									<path id="Layer" class="s16" d="m437.2 230.8c-2.4-1.8-7.7-5.5-13-7-6-1.8-17.9-3.5-19.1 0.9-0.9 3.3 3.6 4.3 3.6 4.3 0 0-5.1 0.4-5.3 3.4-0.1 2.9 3.4 3.5 3.4 3.5 0 0-3 0.7-2.7 3.4 0.5 3.3 6.8 1.3 10.1 4.2 0.8 0.7 23-12.7 23-12.7z"/>
									<g id="Layer">
										<path id="Layer" class="s2" d="m423.4 230.3c-2.6-1.3-9.2-2.7-14.6-1.4-0.2 0.1-0.2 0.2-0.1 0.2 6.3-0.3 12.2 0.7 14.7 1.3 0 0 0 0 0-0.1z"/>
									</g>
									<g id="Layer">
										<path id="Layer" class="s2" d="m421.5 236.3c-2.3-0.9-9.2-2.1-14.7-0.5-0.1 0-0.1 0.1 0 0.1 6.5-0.5 12.2 0 14.7 0.5 0 0 0-0.1 0-0.1z"/>
									</g>
								</g>
							</g>
						</g>
					</g>
					<g id="Layer">
						<path id="Layer" class="s7" d="m453.2 280.3l-1.6-24.4c0 0 27 1.7 38.9 4.5 10 2.3 9.4 8.2-3.1 12.1-11.9 3.7-34.2 7.8-34.2 7.8z"/>
						<path id="Layer" fill-rule="evenodd" class="s2" d="m461.6 268.4c-1 1.5-2.7 2.5-4.3 3.2-0.9 0.4-2.7 1.2-2.9-0.4-0.1-0.5 0.2-1.1 0.6-1.7 0.5-1 1.5-1.9 2.2-2.4 1-0.9 2.7-2 4.2-1.5 1.3 0.5 0.9 1.9 0.2 2.8zm0.9-6c-0.7 0.1-1.7-0.1-1.8-0.9-0.1-0.8 0.9-1.5 1.4-1.9 0.6-0.4 1.9-1.1 3.1-1.3 0.9-0.2 1.8-0.1 2.1 0.7 0.8 1.9-3.6 3.3-4.8 3.4zm23.1 10.7q-1.8 0.5-3.8 1c0.6-0.9 1.4-1.7 2.4-1.8 0.8-0.1 1.2 0.3 1.4 0.8zm5.6-6.3c-0.5 0.3-1.5 0.7-1.9 0-0.5-0.7 0-1.7 0.4-2.3 0.3-0.7 1.2-1.9 2.1-2.6 0.8-0.6 1.6-0.9 2.3-0.2 1.5 1.3-1.8 4.5-2.9 5.1zm-18.9-1.9c0.1 1-2.2 2.1-3.6 2.4-1.7 0.3-4 0.3-4.5-1.1-0.2-0.7 1-2 3.7-2.6 2.5-0.4 4.3 0.4 4.4 1.3z"/>
						<path id="Layer" class="s2" d="m456.8 258.9c0.4 1.5 0.5 3.1 0.6 4.7 0.2 1.6 0.3 3.2 0.4 4.8 0.2 1.6 0.4 8 0.4 9.6 0 0.1-0.1 0.1-0.1 0-0.2-1.6-0.9-8-1-9.6-0.1-1.5-0.2-3.1-0.3-4.7 0-1.6-0.2-3.2 0-4.8 0 0 0 0 0 0z"/>
						<g id="Layer">
							<g id="Layer">
								<path id="Layer" class="s2" d="m491.3 271.1c-12.3 4.4-25.2 7.6-38.2 9.3q-0.1-1.3-0.1-2.6 0.2 1.2 0.3 2.5l-0.1-0.1c3.2-0.7 6.4-1.3 9.6-2 9.2-1.9 19.4-4.6 28.5-7.1z"/>
							</g>
							<g id="Layer">
								<path id="Layer" class="s2" d="m490.8 272c-1.3 0.5-2.8 0.7-4.3 0.5 1.5-0.1 2.9-0.3 4.3-0.5z"/>
							</g>
						</g>
						<g id="Layer">
							<g id="Layer">
								<path id="Layer" class="s2" d="m478.7 258.4c3.8 0.2 7.7 0.8 11.4 1.9-3.8-0.4-7.7-1-11.4-1.9z"/>
							</g>
							<g id="Layer">
								<path id="Layer" class="s2" d="m485.9 259.4c1-0.3 2-0.3 3-0.1-1 0.1-2 0.1-3 0.1z"/>
							</g>
						</g>
					</g>
				</g>
			</g>
		</g>
	</g>
	<g id="Character_1">
		<g id="Layer">
			<g id="Layer">
				<g id="Layer">
					<g id="Layer">
						<path id="Layer" class="s17" d="m92.7 328.4c0 0-17.5 31.1-17.5 31.1-2.9 6.2-5.2 11.8-6.2 14.7q0 0.1 0 0.1c-0.3 1.1-0.5 1.9-0.4 2.1q0 0.1 0 0.1c1.3 2.1 50.7 26.1 52.7 26.3 2 0.3 2.9-5.4 1.7-7.9-1.2-2.4-16-20.1-16-20.1l17.2-31.1z"/>
						<path id="Layer" class="s0" d="m120.5 402.6c-2-0.2-50.6-24-51.9-26.1q0 0 0-0.1c-0.1-0.2 0.1-1 0.4-2.1q0 0 0-0.1c1-2.9 3.4-8.5 6.2-14.7 0 0 2.9-5.4 4.1-7.3l31.4 16.2-3.7 6.4c0 0 14 17.5 15.2 19.9 1.2 2.5 0.3 8.2-1.7 7.9z"/>
						<g id="Layer">
							<path id="Layer" class="s7" d="m121.4 402c-2-0.3-51.2-25.7-52.5-27.8-0.4-0.8 2.8-8.2 7-17q0.1-0.1 0.2-0.3l31.9 16-0.3 0.5c0 0 14.5 18.1 15.6 20.7 1.1 2.5 0.1 8.2-1.9 7.9z"/>
							<g id="Layer">
								<path id="Layer" class="s11" d="m121.8 399.8c-8.2-4.5-41.6-21.8-50-25.6-0.1 0-0.1 0.1-0.1 0.1 8.1 4.6 41.6 21.6 50 25.6 0.2 0.1 0.3 0 0.1-0.1z"/>
								<path id="Layer" class="s2" d="m110.3 374.9c-3-2.3-7.2-3.8-10.9-2.8-0.1 0-0.1 0.2 0.1 0.3 3.7 0.6 7 1.5 10.6 2.9 0.2 0.1 0.4-0.2 0.2-0.4z"/>
								<path id="Layer" class="s2" d="m111.9 377.5c-2.9-2.3-7.2-3.8-10.9-2.8-0.1 0.1 0 0.3 0.1 0.3 3.7 0.6 7.1 1.5 10.6 2.9 0.2 0.1 0.4-0.2 0.2-0.4z"/>
								<path id="Layer" class="s2" d="m113.5 380.2c-2.9-2.3-7.2-3.9-10.8-2.8-0.2 0-0.1 0.2 0 0.2 3.7 0.7 7.1 1.6 10.6 3 0.3 0.1 0.4-0.3 0.2-0.4z"/>
							</g>
							<path id="Layer" class="s11" d="m81.4 366.6c-2.7-3.6-8.3 0.5-5.7 4.1 2.7 3.6 8.3-0.5 5.7-4.1z"/>
							<path id="Layer" class="s6" d="m109.8 376.2l3.6 22c4.4 2.2 7.5 3.7 8 3.8 2 0.3 3-5.4 1.9-7.9-0.9-1.9-9.4-12.8-13.5-17.9z"/>
							<path id="Layer" class="s2" d="m123 400.6c0.7 0.8-1 3.6-1.7 3.5-0.8 0-54.3-27.9-55.1-28.6-0.8-0.6 1.2-3.7 2.4-3.4 1.1 0.4 54.4 28.5 54.4 28.5z"/>
						</g>
					</g>
					<g id="Layer">
						<path id="Layer" class="s9" d="m79.2 349.3l35.4 18.8c0 0 44.6-63.5 45.5-80.3 1.2-23-18.5-96.3-18.5-96.3l-31.4-0.2c0 0 12.8 75.3 11.7 88.2-0.5 6.7-42.7 69.8-42.7 69.8z"/>
						<g id="Layer">
							<path id="Layer" class="s2" d="m117.7 360.8c-1.9-1.3-18.6-11-31.4-17.2-0.1 0-0.1 0.1 0 0.1 3.8 2.6 28.8 16.3 31.3 17.3 0 0 0.1-0.1 0.1-0.2z"/>
							<path id="Layer" class="s2" d="m126.3 263.4c-1.5-11-3.1-22-4.9-33-1.8-11-3.8-22-6.1-33q-0.4-2-0.9-4c0-0.2-0.3-0.1-0.3 0.1 2 10.8 4 21.7 5.7 32.6q2.7 16.3 5 32.6 0.5 4.1 1 8.1c0.4 2.8 0.8 5.6 0.8 8.5 0.1 2.7-0.3 5.3-1.3 7.8-0.9 2.5-2.3 4.9-3.6 7.1-5.7 9.7-31.2 51.7-31.8 52.9-0.1 0.1 0 0.2 0.1 0.1 6.1-9.5 25.1-39.8 30.8-49.5 2.6-4.4 5.6-8.9 6.5-14.1 0.8-5.3-0.3-10.9-1-16.2z"/>
						</g>
					</g>
				</g>
				<g id="Layer">
					<g id="Layer">
						<path id="Layer" class="s17" d="m117.2 349.3c0 0-0.3 35.8-0.3 35.9 0.2 6.8 0.5 12.8 0.9 15.9q0 0 0 0.1c0.2 1.1 0.4 1.9 0.6 2.1q0 0 0 0c2.1 1.3 56.9 1.4 58.9 0.8 1.9-0.7 0.2-6.2-1.9-7.9-2.2-1.7-23.2-11.1-23.2-11.1l0.1-35.8z"/>
						<path id="Layer" class="s0" d="m117 377.8c0 0-0.1 7.3-0.1 7.4 0.2 6.8 0.5 12.8 0.9 15.9q0 0 0 0.1c0.2 1.1 0.4 1.9 0.6 2.1q0 0 0 0c2.1 1.3 56.9 1.4 58.9 0.8 1.9-0.7 0.2-6.2-1.9-7.9-2.2-1.7-23.2-11.1-23.2-11.1l0.1-7.5z"/>
						<g id="Layer">
							<path id="Layer" class="s7" d="m177.3 404c-2 0.6-57.2-0.3-59.3-1.7-0.8-0.5-1.1-8.6-1.3-18.3q0-0.2 0-0.4l35.7 0.3v0.6c0 0 21 9.8 23.1 11.6 2.1 1.7 3.7 7.3 1.8 7.9z"/>
							<g id="Layer">
								<path id="Layer" class="s11" d="m176.7 401.9c-9.3-0.4-46.9-1.1-56.2-0.8 0 0 0 0 0 0 9.3 0.6 46.9 1 56.2 0.9 0.2 0 0.2-0.1 0-0.1z"/>
								<path id="Layer" class="s2" d="m155.4 384.6c-3.7-0.7-8.2-0.2-11 2.3-0.1 0.1 0 0.3 0.1 0.3 3.7-1.1 7.1-1.8 10.9-2.1 0.2 0 0.2-0.4 0-0.5z"/>
								<path id="Layer" class="s2" d="m158 386.3c-3.7-0.8-8.2-0.3-11 2.3-0.1 0.1 0 0.2 0.2 0.2 3.6-1.1 7-1.8 10.8-2.1 0.2 0 0.3-0.4 0-0.4z"/>
								<path id="Layer" class="s2" d="m160.6 387.9c-3.6-0.7-8.1-0.2-11 2.3-0.1 0.1 0.1 0.3 0.2 0.2 3.6-1 7-1.7 10.8-2 0.3 0 0.3-0.4 0-0.5z"/>
							</g>
							<path id="Layer" class="s2" d="m178.2 402c0.9 0.4 0.7 3.8 0 4-0.8 0.3-61-1.1-62.1-1.3-1-0.3-0.5-3.9 0.7-4.1 1.2-0.2 61.4 1.4 61.4 1.4z"/>
							<path id="Layer" class="s11" d="m125.8 390c-4-2.1-7.2 4.1-3.3 6.2 4 2 7.2-4.1 3.3-6.2z"/>
						</g>
					</g>
					<g id="Layer">
						<path id="Layer" class="s9" d="m141.2 191.4q0 0 0 0.1c-0.2 0.6-11.5 31.6-12.6 32.1-1.2 0.5 25 44.5 26.5 64.9 1 13-0.9 86.9-0.9 86.9h-38.2c0 0 1.8-66.4 2.7-87.5 0.3-8.1-26.3-48.8-26.6-74.1-0.1-7.9 5.6-22.5 5.6-22.5z"/>
						<g id="Layer">
							<path id="Layer" class="s2" d="m118.9 287.4c0-0.4-0.3-0.5-0.3-0.1-0.9 11.4-1.1 22.7-1.6 34.1-0.6 11.4-0.2 14.1-0.8 25.5-0.2 6.4 0 12.9-0.1 19.3 0 0.1 0.1 0.1 0.1 0 1.2-11.3 2.7-72.4 2.7-78.8z"/>
							<path id="Layer" class="s2" d="m155.1 288.9c0-2.8-0.2-5.6-0.7-8.4-0.5-2.7-1.4-5.3-2.4-7.8-2.1-5.4-4.6-10.6-7-15.8q-3.6-7.9-7.4-15.7-2.2-4.4-4.3-8.8c-1.5-2.9-3.1-5.9-4.6-8.8-0.1-0.1-0.3 0-0.2 0.1 2.4 5.3 4.8 10.6 7.3 15.8q3.7 7.9 7.3 15.8c2.3 5.2 4.7 10.4 6.9 15.7 1.1 2.5 2.1 5.1 2.8 7.7 0.6 2.8 0.9 5.6 1.1 8.4 0.4 6.5 0.5 13 1.2 19.6 0 0 0.1 0 0.1-0.1 0.2-5.9 0.1-11.8-0.1-17.7z"/>
							<path id="Layer" class="s2" d="m151.4 367.8c-2.2-0.3-19.1-0.8-33.3-0.2-0.1 0-0.1 0.1 0 0.1 4.6 0.4 30.7 0.6 33.3 0.3 0.1 0 0.1-0.2 0-0.2z"/>
							<g id="Layer">
								<path id="Layer" class="s2" d="m133.9 221.8c-4.1 1-8.1 2.5-11.9 4.2-0.2 0.1-0.1 0.3 0.1 0.2 4-1.2 8.1-2.4 12-3.9 0.3-0.1 0.1-0.5-0.2-0.5z"/>
								<path id="Layer" class="s2" d="m137.8 195.6c0-0.1-0.2-0.2-0.3 0-0.4 4.6-1.1 8.5-1.9 12.8-0.4 1.9-3.1 12.7-6.5 11.6-0.5-0.2-0.8-0.8-0.8-1.7 0-1.1 0.6-2.3 0.8-3.3q1-3.4 1.6-6.8c0.8-4.3 1.3-8.6 1.2-13 0-0.1-0.2-0.1-0.2 0-0.6 6-1.4 11.9-2.9 17.8-0.7 2.8-2.6 6.9 0.4 7.7 2.9 0.7 5.6-6.3 6.2-8.2 1.6-5.4 2.3-11.3 2.4-16.9z"/>
								<path id="Layer" class="s2" d="m129.2 220.3q-0.6 1-1 2.2c-0.2 0.5-0.5 1.2-0.5 1.8 0 0.1 0.1 0.1 0.2 0.1 0.5-0.5 0.7-1.2 1-1.8q0.5-1 1-2c0.2-0.5-0.5-0.8-0.7-0.3z"/>
							</g>
							<path id="Layer" class="s2" d="m122.8 298.6c0.2-5.4 0.8-11.1-1-16.4-0.9-2.6-2.2-5-3.5-7.4q-2-3.9-3.9-7.7c-5.1-10.3-9.9-20.8-14.2-31.5-2.1-5.2-3.9-10.4-4.7-16-0.7-5.7-0.2-11.6 1.1-17.3q0.5-2.1 1.1-4.2c0-0.1-0.2-0.2-0.2-0.1-1.7 5.4-2.9 11-3 16.6-0.1 5.4 1.1 10.7 2.9 15.9 1.8 5.3 4.1 10.5 6.4 15.7q3.5 7.9 7.3 15.8c2.5 5.2 5.1 10.3 7.8 15.5 1.2 2.5 2.4 5 2.9 7.8 0.5 2.8 0.4 5.7 0.3 8.6-0.4 12-1.5 52-1.6 64q-0.1 2.3-0.1 4.6c0 0.1 0.2 0.1 0.2 0 0.8-12 1.8-51.9 2.2-63.9z"/>
							<path id="Layer" class="s2" d="m114.2 199.2c0-0.1-0.1 0-0.1 0-0.5 3.4-0.7 6.8-2.3 9.8-1.5 2.7-4.1 4.5-6.8 5.8-1.6 0.7-3.3 1.2-5 1.8-0.1 0-0.1 0.2 0 0.2 3.2-0.7 6.4-1.4 9.2-3.2 2.9-1.9 4.4-4.9 4.9-8.3 0.3-2 0.3-4.1 0.1-6.1z"/>
						</g>
					</g>
				</g>
			</g>
			<g id="Layer">
				<g id="Layer">
					<g id="Layer">
						<path id="Layer" class="s17" d="m134.2 143.8c8 11.6 30.4 26.9 37 27.7 8.2 1 24.3-14.5 30.2-23.2 2.5-3.6-11-16.3-16.1-15.1-2.7 0.7-15.3 16.9-17.8 16.2-6-1.7-14.5-5.7-26.7-10.9-6.6-2.8-11.5-1.9-6.6 5.3z"/>
						<g id="Layer">
							<g id="Layer">
								<path id="Layer" class="s17" d="m179.8 138.7c0 0 2.5-6.1 4.2-8.5 1.7-2.5 11.4-9.3 13-7.2 2.1 2.6-2.8 7.6-5.5 9.7 0 0 4.8 6 2.1 10.4-2.7 4.3-13.8-4.4-13.8-4.4z"/>
							</g>
							<path id="Layer" class="s17" d="m199.5 150.7c2.1-1.5 10.8-9.3 12.7-12 2-2.7 7-10.9 5.1-12.6-1.9-1.7-3.6 0.6-3.6 0.6 0 0 1.6-3.8-0.5-5.3-2.1-1.6-4.6 2.1-4.6 2.1 0 0 1.4-4-0.8-5.4-2.2-1.4-4.1 2.7-4.1 2.7 0 0 1.4-3.7-0.9-4-2.7-0.5-4.5 6.5-6.9 9.3-0.5 0.6-11.9 12.2-11.9 12.2z"/>
							<g id="Layer">
								<path id="Layer" class="s2" d="m203.9 120.4c-1.4 5.1-2.8 7.1-6.6 10.7-0.1 0 0 0.2 0.1 0.1 4-3.1 6.2-5.4 6.7-10.7 0.1-0.3-0.1-0.3-0.2-0.1z"/>
								<path id="Layer" class="s2" d="m208.7 123.1c-1.8 5.1-3.4 7.3-7.1 11.3-0.1 0.1 0 0.2 0.1 0.1 3.9-3.6 6.1-5.9 7.3-11.3 0-0.2-0.2-0.4-0.3-0.1z"/>
								<path id="Layer" class="s2" d="m213.5 126.9c-2.2 4.9-3.8 7.4-7.9 10.8-0.1 0.1 0 0.2 0.1 0.1 4.6-3 6.6-6.1 8-10.8 0-0.3 0-0.4-0.2-0.1z"/>
							</g>
							<path id="Layer" class="s2" d="m197.3 123.9c0.2 3.7-3.5 6.3-6 8.5-0.2 0.2-0.1 0.4 0.1 0.5 1.8 2.7 3.6 6.9 2.4 10.1-0.1 0.1 0.1 0.2 0.1 0.1 1.8-3.2 0.4-7.6-1.8-10.4 2.5-2.2 6.1-5 5.3-8.8q-0.1-0.1-0.1 0z"/>
						</g>
					</g>
					<g id="Layer">
						<path id="Layer" class="s18" d="m156.8 144l-5.8 19.5c0 0-16.1-15.6-19.5-21.6-3.9-6.7 0.4-7.2 7.5-5.3 7.1 1.8 17.8 7.4 17.8 7.4z"/>
						<g id="Layer">
							<path id="Layer" class="s2" d="m153.1 143.6c-1.1 2.4-3.3 10-3.7 11.3-0.2 0.6-0.9 3.3-1.1 4 0 0 0.1 0.1 0.1 0 0.4-1.3 0.9-2.5 1.3-3.7 0.4-1.3 3-9 3.5-11.6 0 0-0.1-0.1-0.1 0z"/>
						</g>
						<path id="Layer" class="s6" d="m131.5 141.9c3.4 6 19.5 21.6 19.5 21.6l3-10.1-21.9-17.7c-2.4 0.4-2.9 2.2-0.6 6.2z"/>
					</g>
				</g>
				<g id="Layer">
					<g id="Layer">
						<g id="Layer">
							<path id="Layer" class="s18" d="m92.5 199.6c0 0 54.1 10.4 54.1 10.5-0.2 1 5.2-43-3.9-71.2-0.6-1.9-8.8-5.5-13.2-2.7-19.3 11.9-37.1 64.1-37 63.4z"/>
						</g>
					</g>
					<path id="Layer" fill-rule="evenodd" class="s0" d="m146.9 207.1q-0.1 0.5-0.1 1l-53.8-9.8q0.2-0.5 0.4-1zm0.5-6.7q0 0.5-0.1 1l-51.8-9.5q0.2-0.5 0.3-0.9zm0.4-6.8q0 0.5 0 1l-49.7-9.1q0.2-0.4 0.4-0.9zm0.2-6.8q0 0.5 0 1l-47.2-8.7q0.2-0.4 0.4-0.9zm0-5.8l-44.4-8.1q0.3-0.5 0.5-0.9l43.9 8q0 0.5 0 1zm-0.1-6.9l-41.2-7.5q0.2-0.4 0.5-0.9l40.7 7.4q0 0.6 0 1zm-0.4-6.8l-37.5-6.9q0.3-0.5 0.5-0.9l37 6.7q0 0.6 0 1.1zm-0.5-7l-33.3-6.1q0.3-0.4 0.5-0.9l32.6 6q0.1 0.5 0.2 1zm-1-7l-28.3-5.1q0.4-0.5 0.7-0.9l27.5 5q0 0.5 0.1 1zm-1.3-7.1l-22.1-4q0.4-0.4 0.8-0.9l21 3.9q0.2 0.5 0.3 1zm-1.9-7.1l-13.8-2.5q0.3-0.2 0.5-0.4 0.4-0.2 0.8-0.4l11.6 2.1q0.7 0.6 0.8 1 0 0.1 0.1 0.2z"/>
				</g>
				<g id="Layer">
					<g id="Layer">
						<path id="Layer" class="s7" d="m131.5 121.3c0 0-9.5 8.3-8.2 10 1.2 1.8 14 0.7 17-1.2 3-1.9 8.9-10.3 8.9-10.3z"/>
						<path id="Layer" class="s6" d="m131.5 121.3c0 0-9.5 8.3-8.2 10 1.2 1.8 14 0.7 17-1.2 3-1.9 8.9-10.3 8.9-10.3z"/>
					</g>
					<g id="Layer">
						<g id="Layer">
							<path id="Layer" class="s17" d="m140.3 145.3c-2.6 0.6-8-2.6-9.8-6.4-0.1-0.3 0.4-2.9 0.9-6.1 0.3-2 0.6-4.2 0.7-6.2 0-0.4 12.5 3.8 12.5 3.8 0 0-1.5 4.2-1.7 7.7q0 0.4 0 0.8 0.1 0.1 0.1 0.1c0.1 1.6 0.2 5.7-2.7 6.3z"/>
						</g>
						<path id="Layer" class="s2" d="m142.9 138.9q0.1 0.1 0.1 0.1-0.6 0.1-1.3 0c-7.5-0.5-8.9-10-9.2-12.3 2.3 0.4 12.1 3.7 12.1 3.7 0 0-1.5 4.2-1.7 7.7q0 0.4 0 0.8z"/>
					</g>
					<g id="Layer">
						<g id="Layer">
							<path id="Layer" class="s17" d="m130.6 110.8c-1.5 4.5 0.6 17.5 3.7 20.4 4.5 4.3 12.1 4.9 15.8-0.5 3.6-5.4 0.6-22.3-2.9-25-5.2-4-14.4-1.5-16.6 5.1z"/>
						</g>
						<g id="Layer">
							<g id="Layer">
								<path id="Layer" class="s2" d="m143.1 118.9c0-0.1-0.1 0-0.1 0.1 0.2 0.8 0.2 1.9-0.5 2.3-0.1 0 0 0 0 0 0.9-0.3 0.9-1.6 0.6-2.4z"/>
								<path id="Layer" class="s2" d="m142.2 118.1c-1.5 0.1-1.2 2.9 0.2 2.8 1.3-0.1 0.9-2.9-0.2-2.8z"/>
							</g>
							<g id="Layer">
								<path id="Layer" class="s2" d="m148.2 118.4c0 0 0.1 0.1 0.1 0.1 0 0.9 0.3 1.9 1.1 2.1 0 0 0 0 0 0-1 0-1.3-1.3-1.2-2.2z"/>
								<path id="Layer" class="s2" d="m148.9 117.4c1.4-0.2 1.8 2.6 0.5 2.8-1.3 0.3-1.7-2.5-0.5-2.8z"/>
							</g>
							<path id="Layer" class="s2" d="m140.9 116.9c0.4-0.1 0.7-0.3 1-0.5 0.4-0.2 0.8-0.3 1-0.7 0.1-0.3 0-0.6-0.2-0.8-0.4-0.3-1-0.2-1.5 0.1-0.5 0.2-0.9 0.5-1.1 1.1-0.3 0.5 0.3 1 0.8 0.8z"/>
							<path id="Layer" class="s2" d="m149.8 115.9c-0.4-0.1-0.8-0.1-1.1-0.2-0.5-0.1-0.9-0.1-1.2-0.4-0.2-0.2-0.2-0.5-0.1-0.7 0.4-0.5 1-0.5 1.5-0.5 0.6 0.1 1 0.3 1.4 0.7 0.4 0.4 0 1.1-0.5 1.1z"/>
							<path id="Layer" class="s2" d="m143.2 127.2c0.2 0.1 0.5 0.4 0.8 0.4 0.3 0 0.6-0.2 0.9-0.3 0-0.1 0.1 0 0.1 0-0.2 0.4-0.7 0.6-1.1 0.6-0.4 0-0.7-0.3-0.8-0.7 0 0 0.1-0.1 0.1 0z"/>
							<g id="Layer">
								<g id="Layer">
									<path id="Layer" class="s2" d="m143.8 124.4c0.6 0.7 1.4 1.1 2.2 1.1q0.5 0.1 1.1-0.1 0.1 0 0.2 0 0.1 0 0.2-0.1 0.1 0 0.1-0.2 0 0 0-0.1 0 0 0 0v-0.1c-0.1-0.6-0.3-1.7-0.3-1.7 0.3 0.1 1.6 0.6 1.6 0.2-0.5-2.9-1.1-6.2-2.2-8.9-0.1-0.1-0.2-0.1-0.2 0 0.4 2.8 1.3 5.6 1.7 8.4-0.4-0.1-1.1-0.3-1.5-0.3-0.1 0.1 0.4 2 0.4 2.3q0 0 0 0c-1.1 0.3-2 0.1-3.2-0.6-0.1 0-0.1 0-0.1 0.1z"/>
								</g>
							</g>
						</g>
						<path id="Layer" class="s2" d="m131.3 123.4c2.4-0.9 3-9.2 3-9.2 0 0 0.2 3.5 0.9 3.3 0.6-0.1 2.9-5.1 3-8.5 0 0 3.3 1.9 6.5 2.6 3.2 0.6 6.1 1.1 6.1 0.6-0.1-1.6-2-5.9-4.2-7.2-2.6-1.5-5.9-2.8-10.8-0.5-5 2.4-5.9 5.1-6.5 7.7-0.5 2.6 1.1 11.6 2 11.2z"/>
						<path id="Layer" fill-rule="evenodd" class="s7" d="m150.9 111.6c0 0-7.7-0.5-13.3 2.2-2.2 1.1-7.9 6.6-7.9 6.6 0 0-1.3-4.9-0.1-10 1.9-7.6 11.4-8.8 15.9-6.6 4 2 5.4 7.8 5.4 7.8zm-5.2-1.4c0 0-0.9-3-4.1-2.3-2.8 0.6-3.2 2.6-3.1 3.9 0 0 3.5-1.5 7.2-1.6z"/>
						<g id="Layer">
							<path id="Layer" class="s17" d="m133.6 121.6c0 0-2.9-4.2-4.8-3.2-1.9 1.1 0.3 7.2 2.5 8 2.3 0.8 3.1-1.2 3.1-1.2z"/>
							<path id="Layer" class="s2" d="m129.5 120.2c0 0-0.1 0 0 0 1.5 0.7 2.4 2.1 2.9 3.6-0.4-0.6-1.1-0.9-1.8-0.3-0.1 0 0 0.1 0 0.1 0.6-0.2 1.1-0.1 1.5 0.5 0.3 0.3 0.5 0.8 0.8 1.2 0 0.1 0.3 0.1 0.2-0.1q0 0 0 0c0.1-2-1.5-4.8-3.6-5z"/>
						</g>
					</g>
				</g>
				<g id="Layer">
					<g id="Layer">
						<path id="Layer" class="s7" d="m226 41.4l10.2 6.7q0.1 0.1 0.2 0.1l-10.3-6.7q-0.1 0-0.1-0.1z"/>
					</g>
					<g id="Layer">
						<path id="Layer" class="s7" d="m126.2 221.1l-10.3-6.7q0.2 0.1 0.4 0.2l10.3 6.7q-0.2-0.1-0.4-0.2z"/>
					</g>
					<g id="Layer">
						<g id="Layer">
							<path id="Layer" class="s7" d="m207.4 103.2l10.3 6.7-50.7 78-10.3-6.7z"/>
						</g>
						<g id="Layer" style="opacity: .1">
							<path id="Layer" class="s8" d="m207.4 103.2l10.3 6.7-50.7 78-10.3-6.7z"/>
						</g>
					</g>
					<g id="Layer">
						<g id="Layer">
							<path id="Layer" class="s7" d="m226.4 212.8l-89.3 10.7c-1 0.2-1.5 0.2-2 0.2-2.7 0.1-5.5-0.4-8-2l-10.2-6.7c2.4 1.6 5.2 2.1 7.9 2 0.5 0 1 0 2-0.2l89.3-10.7z"/>
						</g>
						<g id="Layer" style="opacity: .1">
							<path id="Layer" class="s8" d="m226.4 212.8l-89.3 10.7c-1 0.2-1.5 0.2-2 0.2-2.7 0.1-5.5-0.4-8-2l-10.2-6.7c2.4 1.6 5.2 2.1 7.9 2 0.5 0 1 0 2-0.2l89.3-10.7z"/>
						</g>
					</g>
					<g id="Layer">
						<g id="Layer">
							<path id="Layer" class="s7" d="m255.1 177.3l-10.3-6.7-9.9-116.5q0-0.4-0.1-0.8c0-0.6-0.3-0.9-0.4-1.4 0-0.9-0.1-1.2-0.4-1.7 0-0.3-0.4-0.9-0.4-1.2-0.3-0.8-0.4-1.1-0.7-1.6-0.3-0.3-0.6-0.8-0.7-1.1-0.6-0.8-0.9-1-1.2-1.3-0.3-0.3-0.7-0.8-1-1.1-0.3-0.2-0.6-0.5-1.2-1q0-0.1-0.2-0.2l10.2 6.6q0.3 0.2 0.3 0.3c0.6 0.5 0.9 0.8 1.2 1 0.3 0.3 0.7 0.8 1 1.1 0.3 0.2 0.6 0.5 1.2 1.3 0.1 0.3 0.4 0.8 0.7 1.1 0.3 0.5 0.4 0.8 0.7 1.6 0 0.3 0.4 0.9 0.4 1.2 0.3 0.5 0.3 0.8 0.4 1.7 0.1 0.5 0.4 0.8 0.4 1.4q0.1 0.4 0.1 0.8z"/>
						</g>
						<g id="Layer" style="opacity: .1">
							<path id="Layer" class="s8" d="m255.1 177.3l-10.3-6.7-9.9-116.5q0-0.4-0.1-0.8c0-0.6-0.3-0.9-0.4-1.4 0-0.9-0.1-1.2-0.4-1.7 0-0.3-0.4-0.9-0.4-1.2-0.3-0.8-0.4-1.1-0.7-1.6-0.3-0.3-0.6-0.8-0.7-1.1-0.6-0.8-0.9-1-1.2-1.3-0.3-0.3-0.7-0.8-1-1.1-0.3-0.2-0.6-0.5-1.2-1q0-0.1-0.2-0.2l10.2 6.6q0.3 0.2 0.3 0.3c0.6 0.5 0.9 0.8 1.2 1 0.3 0.3 0.7 0.8 1 1.1 0.3 0.2 0.6 0.5 1.2 1.3 0.1 0.3 0.4 0.8 0.7 1.1 0.3 0.5 0.4 0.8 0.7 1.6 0 0.3 0.4 0.9 0.4 1.2 0.3 0.5 0.3 0.8 0.4 1.7 0.1 0.5 0.4 0.8 0.4 1.4q0.1 0.4 0.1 0.8z"/>
						</g>
					</g>
					<g id="Layer">
						<g id="Layer">
							<path id="Layer" class="s7" d="m275.2 190.9c0.8 9-5.8 16.7-14.6 17.8l-2.9 0.3-10.2-6.7 2.8-0.3c8.9-1.1 15.4-8.8 14.6-17.8-0.4-4.9-3-9-6.9-11.5l10.3 6.7c3.9 2.5 6.5 6.6 6.9 11.5z"/>
						</g>
						<g id="Layer" style="opacity: .1">
							<path id="Layer" class="s8" d="m275.2 190.9c0.8 9-5.8 16.7-14.6 17.8l-2.9 0.3-10.2-6.7 2.8-0.3c8.9-1.1 15.4-8.8 14.6-17.8-0.4-4.9-3-9-6.9-11.5l10.3 6.7c3.9 2.5 6.5 6.6 6.9 11.5z"/>
						</g>
					</g>
					<g id="Layer">
						<g id="Layer">
							<path id="Layer" class="s7" d="m259.6 231c0.8 8.9-5.5 16.6-14.3 17.7q-0.7 0.1-1.3 0.1c-3.4 0.1-6.4-0.7-9-2.4l-10.3-6.7c2.6 1.7 5.7 2.5 9 2.4q0.6 0 1.3-0.1c8.8-1.1 15.1-8.8 14.3-17.7l-1.8-22 10.2 6.7z"/>
						</g>
						<g id="Layer" style="opacity: .1">
							<path id="Layer" class="s8" d="m259.6 231c0.8 8.9-5.5 16.6-14.3 17.7q-0.7 0.1-1.3 0.1c-3.4 0.1-6.4-0.7-9-2.4l-10.3-6.7c2.6 1.7 5.7 2.5 9 2.4q0.6 0 1.3-0.1c8.8-1.1 15.1-8.8 14.3-17.7l-1.8-22 10.2 6.7z"/>
						</g>
					</g>
					<g id="Layer">
						<path id="Layer" fill-rule="evenodd" class="s7" d="m264.9 184.2c0.8 9-5.7 16.7-14.6 17.8l-2.8 0.3 1.8 22c0.8 8.9-5.5 16.6-14.3 17.7q-0.7 0.1-1.3 0.1c-8.3 0.4-15-5.6-15.7-14.1l-1.9-21.9-89.3 10.7c-1 0.2-1.5 0.2-2 0.2-2.9 0.2-5.9-0.5-8.5-2.4-7.6-4.6-9.3-14.3-4.5-21.9l94.3-145.3c0.3 0 0.3-0.3 0.5-0.7 0.3-0.3 0.6-0.6 0.8-1.2 0.8-0.4 1.1-0.7 1.4-1 0.2-0.4 0.8-0.7 1-1 0.6-0.4 0.8-0.7 1.7-0.8 0.2-0.6 0.5-1 1.1-1 0.2-0.4 0.8-0.4 1.6-0.8 0.3 0 0.9-0.1 1.1-0.4 0.6-0.1 1.5-0.2 2-0.3 0 0 0.3 0 0.6 0 0.3-0.1 0.3-0.1 0.6-0.1 0.5-0.1 1.4-0.2 1.7-0.2 0.4 0.1 0.6 0.2 0.9 0.1 0.8 0.3 1.7 0.1 2.3 0.4 1.8 0.6 2.4 0.8 2.7 1.1 0.6 0.2 0.9 0.5 1.5 0.7 0.6 0.2 1.2 0.5 1.2 0.7 0.6 0.5 0.9 0.8 1.2 1 0.3 0.3 0.7 0.8 1 1.1 0.3 0.2 0.6 0.5 1.2 1.3 0.1 0.3 0.4 0.8 0.7 1.1 0.3 0.5 0.4 0.8 0.7 1.6 0 0.3 0.4 0.9 0.4 1.2 0.3 0.5 0.4 0.8 0.4 1.7 0.1 0.5 0.4 0.8 0.4 1.4q0.1 0.4 0.1 0.8l9.9 116.5 2.8-0.3q0.7-0.1 1.3-0.1c8.3-0.4 15.3 5.8 16 14zm-108.2-3l56.7-6.8-6-71.2z"/>
					</g>
				</g>
				<g id="Layer">
					<path id="Layer" class="s17" d="m123.6 150.8c-2 13.1-6.9 40.2-1.4 48.3 7.2 10.7 31.3 18 37.6 20.2 2.7 0.9 10.1-17 8.5-19.7-1.5-2.7-26.4-12.9-28.1-14.5-1.7-1.6-3.9-23.1-6.1-34.1-2.8-13.9-8.8-11.3-10.5-0.2z"/>
					<g id="Layer">
						<path id="Layer" class="s17" d="m175.8 206c-1-1.1-0.4-1.6 2.2-1.1 2.6 0.4 12.4 4.5 13.6 0.9 1.1-3.5-12.9-9.1-17.3-9.5-4.3-0.5-11.6 0.3-11.6 0.3 2.6 1.7 8.3 6.2 13.1 9.4z"/>
						<path id="Layer" class="s17" d="m152.9 216.3c7.2 4.3 16 10.1 25.4 10.2 1.9 0 3-1 3-1 4.2 0.1 5.6-1.8 5.6-1.8 3.9-1.2 5-3.4 5-3.4 0 0 5 0.1 5.6-2.9 0.6-3.4-6.6-2.8-10.7-4.9-9.4-4.8-21.5-14.2-24.1-15.9z"/>
						<g id="Layer">
							<path id="Layer" class="s2" d="m173.4 214.4c2.8 1.4 5.5 2.8 8.5 3.7 3.3 1.1 6.6 1.6 10 2.1 0.1 0.1 0 0.2-0.1 0.2-6.2-0.1-13.2-2.4-18.4-5.8-0.2-0.1-0.1-0.2 0-0.2z"/>
							<path id="Layer" class="s2" d="m169.7 219.7c2.8 1.2 7.7 3.2 17.2 3.9 0 0 0 0 0 0-6.2 0.4-11.8-0.9-17.2-3.8-0.2 0-0.2-0.2 0-0.1z"/>
							<path id="Layer" class="s2" d="m167.8 222.6c4.8 1.8 8.1 2.3 13.5 2.9 0 0 0 0.1 0 0.1-6.2-0.1-8.5-0.8-13.6-2.9-0.2 0-0.1-0.2 0.1-0.1z"/>
						</g>
					</g>
					<g id="Layer">
						<path id="Layer" class="s18" d="m137.7 166.1l-19.2 6.4c0 0 3.6-22 6.5-28.2 3.2-6.9 6-3.7 8.6 3.1 2.5 6.8 4.1 18.7 4.1 18.7z"/>
						<g id="Layer">
							<path id="Layer" class="s2" d="m135.9 162.8c-2.6 0.5-10 3.1-11.3 3.5-0.6 0.2-3.2 1.1-3.8 1.4-0.1 0-0.1 0.1 0 0.1 1.3-0.4 2.5-0.7 3.8-1.1 1.3-0.4 8.9-2.7 11.3-3.8 0.1 0 0-0.1 0-0.1z"/>
							<path id="Layer" class="s2" d="m122.4 152.9c0-0.1-0.1-0.1-0.1 0q-0.8 2.7-1.4 5.5c0-1 0.1-2 0.2-3 0 0 0 0 0 0-0.3 1.1-0.4 2.3-0.3 3.5q-0.5 1.9-0.9 3.8c-0.7 3.3-1.5 6.6-2 9.9 0 0.2 0.2 0.3 0.4 0.3q0.9-0.4 1.9-0.8c0.1-0.1 0.1-0.2 0-0.2q-0.9 0.2-1.7 0.4c0.7-3.1 1.3-6.3 2-9.5 0.7-3.3 1.4-6.6 1.9-9.9z"/>
							<path id="Layer" class="s2" d="m136.6 157.5q-0.1-1.6-0.3-3.2c0 0 0 0 0 0q0 1.2 0.1 2.3-0.5-2.3-1.1-4.5c0 0-0.1 0-0.1 0 0.4 2.3 0.8 4.7 1.2 7q0.5 3.5 1.2 6.9-0.7 0.3-1.3 0.6c-0.1 0.1 0 0.2 0.1 0.2q0.7-0.3 1.4-0.4c0.2-0.1 0.3-0.2 0.2-0.3q-0.5-4.3-1.4-8.6z"/>
						</g>
					</g>
				</g>
			</g>
		</g>
	</g>
</svg>