<?xml version="1.0" encoding="UTF-8" standalone="no"?>
<!DOCTYPE svg PUBLIC "-//W3C//DTD SVG 1.1//EN" "http://www.w3.org/Graphics/SVG/1.1/DTD/svg11.dtd">
<!-- Created with Vectornator (http://vectornator.io/) -->
<svg height="100%" stroke-miterlimit="10" style="fill-rule:nonzero;clip-rule:evenodd;stroke-linecap:round;stroke-linejoin:round;" version="1.1" viewBox="0 0 2554.5 486.525" width="100%" xml:space="preserve" xmlns="http://www.w3.org/2000/svg" xmlns:vectornator="http://vectornator.io" xmlns:xlink="http://www.w3.org/1999/xlink">
<defs/>
<clipPath id="ArtboardFrame">
<rect height="486.525" width="2554.5" x="0" y="0"/>
</clipPath>
<g clip-path="url(#ArtboardFrame)" id="Layer-1" vectornator:layerName="Layer 1">
<g opacity="1" vectornator:layerName="Group 6">
<g opacity="1" vectornator:layerName="Group 2">
<path d="M255.571 0L190.051 27.6178L200.118 27.6178L200.118 53.9435L132.49 53.9435L115.033 53.9435L132.49 67.8127L132.49 84.4213L30.4279 84.4213L8.6375 84.4213L8.6375 103.924L30.4279 103.924L30.4279 467.022L8.85721 467.022L8.85721 486.525L508.415 486.525L508.415 467.022L487.292 467.204L486.276 103.924L507.94 103.924L507.681 84.2914L495.497 84.4213L395.752 84.4213L395.752 67.537L411.351 53.9435L395.752 53.9435L319.569 54.3379L319.569 27.6178L330.761 27.7164L255.571 0Z" fill="#333333" fill-rule="nonzero" opacity="1" stroke="none"/>
</g>
<g opacity="1" vectornator:layerName="Group 1">
<g opacity="1" vectornator:layerName="Group 1">
<path d="M320.251 302.973L320.251 375.254L370.501 375.254L370.501 302.973L320.251 302.973Z" fill="#757575" fill-rule="nonzero" opacity="0" stroke="none" vectornator:layerName="Curve 1"/>
<path d="M69.0631 118.629C45.3123 118.493 43.6568 137.379 43.6568 137.379L43.6568 199.535L93.9068 199.535L93.9068 137.379C93.9068 137.379 92.8138 118.766 69.0631 118.629Z" fill="#757575" fill-rule="nonzero" opacity="0" stroke="none" vectornator:layerName="Curve 2"/>
<path d="M251.219 112.66C227.469 112.524 225.844 131.41 225.844 131.41L225.844 193.598L276.094 193.598L276.094 131.41C276.094 131.41 274.97 112.797 251.219 112.66Z" fill="#757575" fill-rule="nonzero" opacity="0" stroke="none" vectornator:layerName="Curve 3"/>
<path d="M407.063 303.91L407.063 376.192L457.344 376.192L457.344 303.91L407.063 303.91Z" fill="#757575" fill-rule="nonzero" opacity="0" stroke="none" vectornator:layerName="Curve 4"/>
<path d="M44.2506 215.067L44.2506 287.348L94.5006 287.348L94.5006 215.067L44.2506 215.067Z" fill="#757575" fill-rule="nonzero" opacity="0" stroke="none" vectornator:layerName="Curve 5"/>
<path d="M383.344 67.8166L383.344 469.129L479.438 469.129L479.438 84.4104L389.418 84.4104L389.344 67.8116L383.344 67.8166ZM389.688 91.1291L474.751 91.1291L474.751 467.004L389.688 467.004L389.688 91.1291Z" fill="#757575" fill-rule="nonzero" opacity="1" stroke="none" vectornator:layerName="Curve 6"/>
<path d="M159.907 115.285C136.156 115.149 134.532 134.035 134.532 134.035L134.532 196.192L184.782 196.192L184.782 134.035C184.782 134.035 183.658 115.422 159.907 115.285Z" fill="#757575" fill-rule="nonzero" opacity="0" stroke="none" vectornator:layerName="Curve 7"/>
<path d="M431.876 120.223C408.125 120.087 406.469 138.973 406.469 138.973L406.469 201.129L456.719 201.129L456.719 138.973C456.719 138.973 455.626 120.359 431.876 120.223Z" fill="#757575" fill-rule="nonzero" opacity="0" stroke="none" vectornator:layerName="Curve 8"/>
<path d="M135.126 211.723L135.126 284.004L185.376 284.004L185.376 211.723L135.126 211.723Z" fill="#757575" fill-rule="nonzero" opacity="0" stroke="none" vectornator:layerName="Curve 9"/>
<path d="M225.844 294.91L225.844 367.192L276.094 367.192L276.094 294.91L225.844 294.91Z" fill="#757575" fill-rule="nonzero" opacity="0" stroke="none" vectornator:layerName="Curve 10"/>
<path d="M345.032 119.285C321.281 119.149 319.657 138.035 319.657 138.035L319.657 200.192L369.907 200.192L369.907 138.035C369.907 138.035 368.783 119.422 345.032 119.285Z" fill="#757575" fill-rule="nonzero" opacity="0" stroke="none" vectornator:layerName="Curve 11"/>
<path d="M249.969 0.00410575L178.657 27.6291L188.563 27.6291L188.563 53.9416L98.8623 53.878L113.777 67.8637L113.72 84.3511L19.9221 84.4104L20.9311 467.934L122.688 469.129L122.688 67.8166L197.407 67.8166L197.407 469.129L305.532 469.129L305.532 67.8166L381.219 67.8166L389.344 67.8116L402.059 54.0523L313.376 53.9416L313.376 27.6291L323.438 27.6291L249.969 0.00410575ZM204.938 27.6291L297.907 27.6291L297.907 467.004L204.938 467.004L204.938 27.6291ZM25.7506 91.1291L113.751 91.1291L113.751 467.004L25.7506 467.004L25.7506 91.1291Z" fill="#757575" fill-rule="nonzero" opacity="1" stroke="none" vectornator:layerName="Curve 12"/>
<path d="M44.2506 302.317L44.2506 374.598L94.5006 374.598L94.5006 302.317L44.2506 302.317Z" fill="#757575" fill-rule="nonzero" opacity="0" stroke="none" vectornator:layerName="Curve 13"/>
<path d="M135.126 298.973L135.126 371.254L185.376 371.254L185.376 298.973L135.126 298.973Z" fill="#757575" fill-rule="nonzero" opacity="0" stroke="none" vectornator:layerName="Curve 14"/>
<path d="M204.938 27.6291L204.938 467.004L297.907 467.004L297.907 27.6291L204.938 27.6291ZM251.219 112.66C274.97 112.797 276.094 131.41 276.094 131.41L276.094 193.598L225.844 193.598L225.844 131.41C225.844 131.41 227.469 112.524 251.219 112.66ZM225.844 294.91L276.094 294.91L276.094 367.192L225.844 367.192L225.844 294.91Z" fill="#c0c0c0" fill-rule="nonzero" opacity="1" stroke="none" vectornator:layerName="Curve 15"/>
<path d="M389.688 91.1291L389.688 467.004L474.751 467.004L474.751 91.1291L389.688 91.1291ZM431.876 120.223C455.626 120.359 456.719 138.973 456.719 138.973L456.719 201.129L406.469 201.129L406.469 138.973C406.469 138.973 408.125 120.087 431.876 120.223ZM407.063 303.91L457.344 303.91L457.344 376.192L407.063 376.192L407.063 303.91Z" fill="#c0c0c0" fill-rule="nonzero" opacity="1" stroke="none" vectornator:layerName="Curve 16"/>
<path d="M381.219 67.8166L381.219 84.4104L383.344 84.4104L383.344 67.8166L381.219 67.8166Z" fill="#c0c0c0" fill-rule="nonzero" opacity="1" stroke="none" vectornator:layerName="Curve 17"/>
<path d="M25.7506 91.1291L25.7506 467.004L113.751 467.004L113.751 91.1291L25.7506 91.1291ZM69.0631 118.629C92.8138 118.766 93.9068 137.379 93.9068 137.379L93.9068 199.535L43.6568 199.535L43.6568 137.379C43.6568 137.379 45.3123 118.493 69.0631 118.629ZM44.2506 215.067L94.5006 215.067L94.5006 287.348L44.2506 287.348L44.2506 215.067ZM44.2506 302.317L94.5006 302.317L94.5006 374.598L44.2506 374.598L44.2506 302.317Z" fill="#c0c0c0" fill-rule="nonzero" opacity="1" stroke="none" vectornator:layerName="Curve 18"/>
<path d="M305.022 67.8166L305.022 469.129L383.344 469.129L383.344 84.4104L381.205 84.4104L381.205 67.8166L305.022 67.8166ZM344.781 119.285C368.687 119.422 369.819 138.035 369.819 138.035L369.819 200.192L319.239 200.192L319.239 138.035C319.239 138.035 320.874 119.149 344.781 119.285ZM319.837 302.973L370.416 302.973L370.416 375.254L319.837 375.254L319.837 302.973Z" fill="#c0c0c0" fill-rule="nonzero" opacity="1" stroke="none" vectornator:layerName="Curve 19"/>
<path d="M120.392 67.8166L120.392 469.129L197.407 469.129L197.407 67.8166L120.392 67.8166ZM158.755 115.285C183.235 115.422 184.394 134.035 184.394 134.035L184.394 196.192L132.6 196.192L132.6 134.035C132.6 134.035 134.274 115.149 158.755 115.285ZM133.212 211.723L185.006 211.723L185.006 284.004L133.212 284.004L133.212 211.723ZM133.212 298.973L185.006 298.973L185.006 371.254L133.212 371.254L133.212 298.973Z" fill="#c0c0c0" fill-rule="nonzero" opacity="1" stroke="none" vectornator:layerName="Curve 20"/>
<path d="M225.846 208.389L276.099 208.389L276.099 280.665L225.846 280.665L225.846 208.389Z" fill="#f8f085" fill-rule="nonzero" opacity="1" stroke="#757575" stroke-linecap="square" stroke-linejoin="miter" stroke-width="3.82151" vectornator:layerName="Rectangle 21"/>
<path d="M320.256 215.742L370.509 215.742L370.509 288.017L320.256 288.017L320.256 215.742Z" fill="#f8f085" fill-rule="nonzero" opacity="1" stroke="#757575" stroke-linecap="square" stroke-linejoin="miter" stroke-width="3.82151" vectornator:layerName="Rectangle 15"/>
<path d="M407.078 216.675L457.33 216.675L457.33 288.951L407.078 288.951L407.078 216.675Z" fill="#f8f085" fill-rule="nonzero" opacity="1" stroke="#757575" stroke-linecap="square" stroke-linejoin="miter" stroke-width="3.82151" vectornator:layerName="Rectangle 16"/>
<path d="M0.222907 467.009L501.122 467.009L501.122 486.521L0.222907 486.521L0.222907 467.009Z" fill="#757575" fill-rule="nonzero" opacity="1" stroke="none" vectornator:layerName="Rectangle 2"/>
<path d="M0 84.4118L500.899 84.4118L500.899 103.924L0 103.924L0 84.4118Z" fill="#757575" fill-rule="nonzero" opacity="1" stroke="none" vectornator:layerName="Rectangle 34"/>
<path d="M212.565 380.395L290.982 380.395L290.982 469.117L212.565 469.117L212.565 380.395Z" fill="#757575" fill-rule="nonzero" opacity="1" stroke="none" vectornator:layerName="Rectangle 31"/>
<path d="M41.8996 392.567L172.117 392.567L172.117 461.564L41.8996 461.564L41.8996 392.567Z" fill="#757575" fill-rule="nonzero" opacity="1" stroke="none" vectornator:layerName="Rectangle 32"/>
<path d="M327.994 392.567L458.212 392.567L458.212 461.225L327.994 461.225L327.994 392.567Z" fill="#757575" fill-rule="nonzero" opacity="1" stroke="none" vectornator:layerName="Rectangle 33"/>
</g>
<g opacity="1" vectornator:layerName="Group 2">
<g opacity="1" vectornator:layerName="Group 2">
<path d="M623.032 160.4C623.032 156.571 623.493 153.221 624.416 150.349C625.339 147.478 626.724 145.05 628.57 143.068C630.416 141.085 632.347 139.444 634.364 138.145C636.381 136.846 638.826 135.581 641.697 134.35L643.235 137.53C635.988 140.675 631.271 144.572 629.083 149.221C628.262 151.341 627.715 152.605 627.442 153.016L628.467 153.631C629.561 151.99 631.1 151.17 633.082 151.17C639.988 151.17 643.441 154.246 643.441 160.4C643.441 163.408 642.552 165.733 640.774 167.374C638.996 169.014 636.433 169.835 633.082 169.835C630.006 169.835 627.561 168.98 625.75 167.271C623.938 165.562 623.032 163.271 623.032 160.4ZM587.547 160.4C587.547 153.221 589.154 147.734 592.367 143.939C595.581 140.145 600.196 136.948 606.212 134.35L607.853 137.53C600.743 140.606 596.059 144.503 593.803 149.221C593.119 150.999 592.504 152.264 591.957 153.016L593.188 153.631C594.282 151.99 595.82 151.17 597.803 151.17C604.64 151.17 608.058 154.246 608.058 160.4C608.058 166.69 604.64 169.835 597.803 169.835C594.658 169.835 592.162 168.963 590.316 167.22C588.47 165.476 587.547 163.203 587.547 160.4Z" fill="#333333" fill-rule="nonzero" opacity="1" stroke="none"/>
<path d="M687.372 287.262L687.372 285.416L705.012 285.416C710.55 285.416 713.969 284.818 715.268 283.622C716.567 282.425 717.216 279.297 717.216 274.238L717.216 139.991L703.371 139.991C697.491 139.991 692.774 140.299 689.218 140.914C685.663 141.529 682.586 142.726 679.988 144.503C677.39 146.281 675.527 148.725 674.399 151.836C673.271 154.947 672.57 159.066 672.297 164.194L671.476 172.809L667.271 172.604L670.861 123.889L673.322 124.095L672.297 136.196L779.776 136.196L778.751 124.3L781.314 124.095L784.699 172.604L780.494 172.809L779.776 164.194C779.366 159.066 778.58 154.964 777.417 151.887C776.255 148.811 774.392 146.367 771.828 144.555C769.264 142.743 766.222 141.529 762.7 140.914C759.179 140.299 754.513 139.991 748.701 139.991L735.266 139.991L735.266 274.238C735.266 279.297 735.916 282.425 737.215 283.622C738.514 284.818 741.933 285.416 747.471 285.416L764.7 285.416L764.7 287.262L687.372 287.262Z" fill="#333333" fill-rule="nonzero" opacity="1" stroke="none"/>
<path d="M834.989 140.196L834.989 141.324C837.519 144.401 838.784 148.742 838.784 154.349L838.784 224.703L851.809 224.703C866.372 224.703 877.465 221.096 885.088 213.883C892.712 206.67 896.523 196.192 896.523 182.449C896.523 168.707 892.712 158.229 885.088 151.016C877.465 143.803 866.372 140.196 851.809 140.196L834.989 140.196ZM800.53 287.262L800.53 285.416L808.53 285.416C814.136 285.416 817.606 284.818 818.939 283.622C820.272 282.425 820.939 279.297 820.939 274.238L820.939 149.221C820.939 144.23 820.272 141.136 818.939 139.94C817.606 138.743 814.136 138.145 808.53 138.145L800.53 138.145L800.53 136.196L858.68 136.196C876.114 136.196 890.148 140.435 900.779 148.913C911.411 157.391 916.727 168.57 916.727 182.449C916.727 196.192 911.411 207.302 900.779 215.78C890.148 224.258 876.114 228.497 858.68 228.497L838.784 228.497L838.784 274.238C838.784 279.229 839.485 282.34 840.886 283.57C842.288 284.801 845.792 285.416 851.398 285.416L857.039 285.416L857.039 287.262L800.53 287.262Z" fill="#333333" fill-rule="nonzero" opacity="1" stroke="none"/>
<path d="M1089.98 205.32L958.915 205.32L958.915 207.884C958.915 232.566 964.727 251.624 976.35 265.059C987.973 278.494 1003.8 285.211 1023.83 285.211C1039.22 285.211 1052.82 282.357 1064.65 276.648C1076.48 270.939 1085.78 262.922 1092.55 252.598L1095.73 254.957C1088.55 265.76 1078.67 274.118 1066.09 280.032C1053.51 285.946 1039.08 288.903 1022.81 288.903C1006.74 288.903 992.28 285.707 979.427 279.314C966.573 272.922 956.454 263.794 949.07 251.932C941.686 240.069 937.994 226.515 937.994 211.268C937.994 196.089 941.532 182.689 948.608 171.066C955.685 159.443 965.667 150.452 978.555 144.093C991.443 137.735 1006.33 134.555 1023.22 134.555C1036.62 134.555 1048.91 137.171 1060.09 142.401C1071.27 147.631 1080.24 155.135 1087.01 164.912C1093.78 174.689 1097.16 185.8 1097.16 198.243L1097.16 199.269C1097.16 200.978 1096.46 202.414 1095.06 203.576C1093.66 204.738 1091.97 205.32 1089.98 205.32ZM959.12 201.525L1075.52 200.089C1076.62 200.089 1077.16 199.474 1077.16 198.243C1077.16 180.262 1072.21 165.784 1062.29 154.81C1052.38 143.837 1039.29 138.35 1023.01 138.35C1003.25 138.35 987.922 143.734 977.017 154.503C966.111 165.271 960.146 180.945 959.12 201.525Z" fill="#333333" fill-rule="nonzero" opacity="1" stroke="none"/>
<path d="M1133.91 287.262L1133.91 285.416L1151.55 285.416C1157.09 285.416 1160.51 284.818 1161.81 283.622C1163.11 282.425 1163.76 279.297 1163.76 274.238L1163.76 139.991L1149.91 139.991C1144.03 139.991 1139.32 140.299 1135.76 140.914C1132.21 141.529 1129.13 142.726 1126.53 144.503C1123.93 146.281 1122.07 148.725 1120.94 151.836C1119.81 154.947 1119.11 159.066 1118.84 164.194L1118.02 172.809L1113.81 172.604L1117.4 123.889L1119.86 124.095L1118.84 136.196L1226.32 136.196L1225.29 124.3L1227.86 124.095L1231.24 172.604L1227.04 172.809L1226.32 164.194C1225.91 159.066 1225.12 154.964 1223.96 151.887C1222.8 148.811 1220.93 146.367 1218.37 144.555C1215.81 142.743 1212.76 141.529 1209.24 140.914C1205.72 140.299 1201.06 139.991 1195.24 139.991L1181.81 139.991L1181.81 274.238C1181.81 279.297 1182.46 282.425 1183.76 283.622C1185.06 284.818 1188.47 285.416 1194.01 285.416L1211.24 285.416L1211.24 287.262L1133.91 287.262Z" fill="#333333" fill-rule="nonzero" opacity="1" stroke="none"/>
<path d="M1247.07 287.262L1247.07 285.416L1255.07 285.416C1260.68 285.416 1264.15 284.835 1265.48 283.673C1266.81 282.511 1267.48 279.434 1267.48 274.443L1267.48 149.016C1267.48 144.025 1266.81 140.965 1265.48 139.837C1264.15 138.709 1260.68 138.145 1255.07 138.145L1247.07 138.145L1247.07 136.196L1305.84 136.196L1305.84 138.555L1297.94 138.555C1292.27 138.555 1288.74 139.136 1287.38 140.299C1286.01 141.461 1285.33 144.538 1285.33 149.529L1285.33 274.443C1285.33 279.434 1286.01 282.511 1287.38 283.673C1288.74 284.835 1292.27 285.416 1297.94 285.416L1305.84 285.416L1305.84 287.262L1247.07 287.262Z" fill="#333333" fill-rule="nonzero" opacity="1" stroke="none"/>
<path d="M1322.18 287.262L1322.18 285.416L1330.18 285.416C1335.58 285.416 1339 284.562 1340.44 282.853C1341.87 281.143 1342.59 277.656 1342.59 272.392L1342.59 151.17C1342.59 145.905 1341.87 142.418 1340.44 140.709C1339 139 1335.58 138.145 1330.18 138.145L1322.18 138.145L1322.18 136.196L1378.9 136.196L1378.9 138.145L1373.05 138.145C1367.65 138.145 1364.2 139 1362.69 140.709C1361.19 142.418 1360.44 145.905 1360.44 151.17L1360.44 273.007L1426.17 136.196L1462.27 136.196L1462.27 138.145L1454.07 138.145C1448.74 138.145 1445.37 138.982 1443.97 140.658C1442.57 142.333 1441.87 145.837 1441.87 151.17L1441.87 272.392C1441.87 277.725 1442.57 281.229 1443.97 282.904C1445.37 284.579 1448.74 285.416 1454.07 285.416L1462.27 285.416L1462.27 287.262L1405.36 287.262L1405.36 285.416L1411.61 285.416C1416.88 285.416 1420.23 284.562 1421.66 282.853C1423.1 281.143 1423.82 277.656 1423.82 272.392L1423.82 150.554L1358.08 287.262L1322.18 287.262ZM1363.72 98.4554L1371.92 97.8401C1371.92 103.515 1374.26 108.438 1378.95 112.608C1383.63 116.779 1389.22 118.864 1395.71 118.864C1402.14 118.864 1407.66 116.779 1412.28 112.608C1416.89 108.438 1419.2 103.515 1419.2 97.8401L1427.4 98.4554C1427.4 105.156 1424.31 110.848 1418.12 115.531C1411.94 120.215 1404.47 122.556 1395.71 122.556C1386.89 122.556 1379.36 120.215 1373.1 115.531C1366.85 110.848 1363.72 105.156 1363.72 98.4554Z" fill="#333333" fill-rule="nonzero" opacity="1" stroke="none"/>
<path d="M1548.19 287.262L1548.19 285.416L1556.19 285.416C1561.59 285.416 1565.01 284.562 1566.44 282.853C1567.88 281.143 1568.6 277.656 1568.6 272.392L1568.6 151.17C1568.6 145.905 1567.88 142.418 1566.44 140.709C1565.01 139 1561.59 138.145 1556.19 138.145L1548.19 138.145L1548.19 136.196L1688.28 136.196L1688.28 138.145L1680.08 138.145C1674.74 138.145 1671.38 138.982 1669.98 140.658C1668.57 142.333 1667.87 145.837 1667.87 151.17L1667.87 272.392C1667.87 277.725 1668.57 281.229 1669.98 282.904C1671.38 284.579 1674.74 285.416 1680.08 285.416L1688.28 285.416L1688.28 287.262L1631.36 287.262L1631.36 285.416L1637.62 285.416C1642.88 285.416 1646.23 284.562 1647.67 282.853C1649.11 281.143 1649.82 277.656 1649.82 272.392L1649.82 139.991L1586.44 139.991L1586.44 272.392C1586.44 277.656 1587.2 281.143 1588.7 282.853C1590.2 284.562 1593.66 285.416 1599.06 285.416L1604.9 285.416L1604.9 287.262L1548.19 287.262Z" fill="#333333" fill-rule="nonzero" opacity="1" stroke="none"/>
<path d="M1793.13 288.903C1776.11 288.903 1761.12 285.707 1748.16 279.314C1735.2 272.922 1725.19 263.88 1718.11 252.188C1711.04 240.497 1707.5 226.993 1707.5 211.678C1707.5 188.569 1715.34 169.937 1731.03 155.785C1746.73 141.632 1767.42 134.555 1793.13 134.555C1810.02 134.555 1824.93 137.752 1837.85 144.144C1850.77 150.537 1860.77 159.579 1867.85 171.271C1874.92 182.962 1878.46 196.431 1878.46 211.678C1878.46 226.993 1874.92 240.497 1867.85 252.188C1860.77 263.88 1850.77 272.922 1837.85 279.314C1824.93 285.707 1810.02 288.903 1793.13 288.903ZM1793.95 285.211C1814.87 285.211 1830.82 279.263 1841.8 267.366C1852.77 255.47 1858.26 238.24 1858.26 215.678C1858.26 190.586 1852.62 171.425 1841.33 158.195C1830.05 144.965 1813.71 138.35 1792.31 138.35C1771.32 138.35 1755.29 144.298 1744.21 156.195C1733.14 168.091 1727.6 185.321 1727.6 207.884C1727.6 232.976 1733.26 252.137 1744.57 265.367C1755.89 278.596 1772.35 285.211 1793.95 285.211Z" fill="#333333" fill-rule="nonzero" opacity="1" stroke="none"/>
<path d="M1932.34 283.468L1958.59 283.468C1973.02 283.468 1984.61 279.81 1993.36 272.494C2002.11 265.179 2006.49 255.538 2006.49 243.573C2006.49 230.925 2001.86 220.549 1992.59 212.447C1983.33 204.345 1971.48 200.294 1957.06 200.294L1944.95 200.294L1944.95 196.705L1954.18 196.705C1964.44 196.705 1972.85 194.055 1979.41 188.757C1985.98 183.458 1989.26 176.672 1989.26 168.399C1989.26 159.853 1985.75 152.981 1978.75 147.785C1971.74 142.589 1962.49 139.991 1951 139.991L1932.34 139.991L1932.34 140.196C1934.87 142.521 1936.13 146.179 1936.13 151.17L1936.13 272.392C1936.13 277.178 1934.87 280.733 1932.34 283.058L1932.34 283.468ZM1897.88 287.262L1897.88 285.211L1905.88 285.211C1911.49 285.211 1914.96 284.613 1916.29 283.417C1917.62 282.22 1918.29 279.092 1918.29 274.033L1918.29 149.221C1918.29 144.23 1917.62 141.136 1916.29 139.94C1914.96 138.743 1911.49 138.145 1905.88 138.145L1897.88 138.145L1897.88 136.196L1954.18 136.196C1970.59 136.196 1983.82 139.119 1993.87 144.965C2003.92 150.811 2008.95 158.485 2008.95 167.989C2008.95 174.484 2005.94 180.672 1999.92 186.552C1993.91 192.432 1985.87 196.021 1975.82 197.32L1975.82 198.243C1983.07 198.722 1989.89 200.346 1996.28 203.115C2002.68 205.884 2008.04 209.371 2012.39 213.575C2016.73 217.78 2020.15 222.498 2022.64 227.728C2025.14 232.959 2026.38 238.24 2026.38 243.573C2026.38 252.12 2023.56 259.743 2017.92 266.443C2012.28 273.144 2004.66 278.289 1995.05 281.878C1985.45 285.468 1974.7 287.262 1962.8 287.262L1897.88 287.262Z" fill="#333333" fill-rule="nonzero" opacity="1" stroke="none"/>
<path d="M2197.69 205.32L2066.62 205.32L2066.62 207.884C2066.62 232.566 2072.44 251.624 2084.06 265.059C2095.68 278.494 2111.51 285.211 2131.54 285.211C2146.93 285.211 2160.53 282.357 2172.36 276.648C2184.19 270.939 2193.49 262.922 2200.26 252.598L2203.43 254.957C2196.26 265.76 2186.38 274.118 2173.8 280.032C2161.22 285.946 2146.79 288.903 2130.52 288.903C2114.45 288.903 2099.99 285.707 2087.14 279.314C2074.28 272.922 2064.16 263.794 2056.78 251.932C2049.39 240.069 2045.7 226.515 2045.7 211.268C2045.7 196.089 2049.24 182.689 2056.32 171.066C2063.39 159.443 2073.38 150.452 2086.26 144.093C2099.15 137.735 2114.04 134.555 2130.93 134.555C2144.33 134.555 2156.62 137.171 2167.8 142.401C2178.97 147.631 2187.95 155.135 2194.72 164.912C2201.49 174.689 2204.87 185.8 2204.87 198.243L2204.87 199.269C2204.87 200.978 2204.17 202.414 2202.77 203.576C2201.37 204.738 2199.67 205.32 2197.69 205.32ZM2066.83 201.525L2183.23 200.089C2184.32 200.089 2184.87 199.474 2184.87 198.243C2184.87 180.262 2179.91 165.784 2170 154.81C2160.09 143.837 2146.99 138.35 2130.72 138.35C2110.96 138.35 2095.63 143.734 2084.73 154.503C2073.82 165.271 2067.85 180.945 2066.83 201.525Z" fill="#333333" fill-rule="nonzero" opacity="1" stroke="none"/>
<path d="M2259.16 140.196L2259.16 141.324C2261.69 144.401 2262.96 148.742 2262.96 154.349L2262.96 224.703L2275.98 224.703C2290.54 224.703 2301.64 221.096 2309.26 213.883C2316.88 206.67 2320.69 196.192 2320.69 182.449C2320.69 168.707 2316.88 158.229 2309.26 151.016C2301.64 143.803 2290.54 140.196 2275.98 140.196L2259.16 140.196ZM2224.7 287.262L2224.7 285.416L2232.7 285.416C2238.31 285.416 2241.78 284.818 2243.11 283.622C2244.44 282.425 2245.11 279.297 2245.11 274.238L2245.11 149.221C2245.11 144.23 2244.44 141.136 2243.11 139.94C2241.78 138.743 2238.31 138.145 2232.7 138.145L2224.7 138.145L2224.7 136.196L2282.85 136.196C2300.29 136.196 2314.32 140.435 2324.95 148.913C2335.58 157.391 2340.9 168.57 2340.9 182.449C2340.9 196.192 2335.58 207.302 2324.95 215.78C2314.32 224.258 2300.29 228.497 2282.85 228.497L2262.96 228.497L2262.96 274.238C2262.96 279.229 2263.66 282.34 2265.06 283.57C2266.46 284.801 2269.96 285.416 2275.57 285.416L2281.21 285.416L2281.21 287.262L2224.7 287.262Z" fill="#333333" fill-rule="nonzero" opacity="1" stroke="none"/>
<path d="M2349.96 287.262L2349.96 286.032L2352.01 286.032C2356.66 286.032 2360.3 284.955 2362.93 282.801C2365.57 280.648 2368.87 276.186 2372.83 269.418L2404.32 213.319L2374.37 154.964C2371.02 148.537 2368.03 144.196 2365.4 141.939C2362.76 139.683 2359.77 138.555 2356.42 138.555L2353.76 138.555L2353.76 136.709L2393.44 136.709L2393.44 138.555L2380.83 138.555L2380.83 138.965C2382.54 139.512 2384.59 140.931 2386.98 143.221C2389.38 145.512 2391.26 147.956 2392.62 150.554L2418.06 200.089L2445.34 154.349C2448.69 149.153 2450.36 145.29 2450.36 142.76C2450.36 141.187 2449.58 140.059 2448.01 139.376C2446.43 138.692 2443.8 138.35 2440.11 138.35L2431.9 138.35L2431.9 136.504L2470.57 136.504L2470.57 138.35L2467.8 138.35C2464.31 138.35 2461.44 139.393 2459.18 141.478C2456.93 143.563 2453.78 147.99 2449.75 154.759L2420.31 204.294L2453.75 269.212C2458.12 276.323 2460.93 280.562 2462.16 281.93C2464.35 284.391 2467.15 285.622 2470.57 285.622L2474.46 285.622L2474.46 287.468L2420.93 287.468L2420.93 285.622L2425.75 285.622C2433.89 285.622 2437.95 283.844 2437.95 280.289C2437.95 278.101 2436.48 274.682 2433.54 270.033L2406.47 217.319L2377.45 269.212C2374.23 274.682 2372.63 278.614 2372.63 281.006C2372.63 282.716 2373.46 283.912 2375.14 284.596C2376.81 285.28 2379.57 285.622 2383.39 285.622L2391.29 285.622L2391.29 287.262L2349.96 287.262Z" fill="#333333" fill-rule="nonzero" opacity="1" stroke="none"/>
<path d="M2554.5 143.786C2554.5 150.964 2552.89 156.451 2549.68 160.246C2546.46 164.04 2541.81 167.237 2535.73 169.835L2534.29 166.656C2541.4 163.579 2546.09 159.682 2548.34 154.964C2549.1 152.981 2549.74 151.717 2550.29 151.17L2548.96 150.554C2547.86 152.195 2546.33 153.016 2544.34 153.016C2537.51 153.016 2534.09 149.939 2534.09 143.786C2534.09 137.495 2537.51 134.35 2544.34 134.35C2547.42 134.35 2549.88 135.205 2551.73 136.914C2553.57 138.623 2554.5 140.914 2554.5 143.786ZM2519.11 143.786C2519.11 147.614 2518.65 150.964 2517.73 153.836C2516.81 156.708 2515.42 159.135 2513.58 161.118C2511.73 163.1 2509.8 164.741 2507.78 166.04C2505.77 167.339 2503.32 168.604 2500.45 169.835L2498.81 166.656C2505.85 163.716 2510.6 159.819 2513.06 154.964C2513.88 152.845 2514.43 151.58 2514.7 151.17L2513.68 150.554C2512.31 152.195 2510.77 153.016 2509.06 153.016C2502.09 153.016 2498.6 149.939 2498.6 143.786C2498.6 140.777 2499.51 138.453 2501.32 136.812C2503.13 135.171 2505.71 134.35 2509.06 134.35C2512.07 134.35 2514.5 135.222 2516.35 136.965C2518.19 138.709 2519.11 140.982 2519.11 143.786Z" fill="#333333" fill-rule="nonzero" opacity="1" stroke="none"/>
</g>
<g opacity="1" vectornator:layerName="Group 1">
<path d="M665.758 424.245L665.758 423.228L670.163 423.228C673.138 423.228 675.02 422.758 675.811 421.816C676.602 420.875 676.997 418.955 676.997 416.056L676.997 349.298C676.997 346.399 676.602 344.479 675.811 343.538C675.02 342.596 673.138 342.126 670.163 342.126L665.758 342.126L665.758 341.053L742.907 341.053L742.907 342.126L738.389 342.126C735.452 342.126 733.598 342.587 732.826 343.509C732.054 344.432 731.668 346.361 731.668 349.298L731.668 416.056C731.668 418.992 732.054 420.922 732.826 421.845C733.598 422.767 735.452 423.228 738.389 423.228L742.907 423.228L742.907 424.245L711.562 424.245L711.562 423.228L715.007 423.228C717.906 423.228 719.751 422.758 720.542 421.816C721.332 420.875 721.728 418.955 721.728 416.056L721.728 343.142L686.824 343.142L686.824 416.056C686.824 418.955 687.238 420.875 688.067 421.816C688.895 422.758 690.797 423.228 693.771 423.228L696.99 423.228L696.99 424.245L665.758 424.245Z" fill="#333333" fill-rule="nonzero" opacity="1" stroke="none"/>
<path d="M771.552 382.395L771.439 382.282C771.439 373.923 773.284 366.543 776.974 360.142C780.663 353.741 785.869 348.79 792.59 345.288C799.311 341.787 807.058 340.036 815.831 340.036C824.867 340.036 832.661 342.502 839.213 347.435C839.627 347.849 840.079 348.621 840.568 349.75L841.415 349.524C841.189 348.621 841.076 347.51 841.076 346.192L840.85 337.72L841.98 337.72L843.166 371.155L840.85 371.268L840.455 360.538C840.116 355.454 837.368 351.096 832.209 347.463C827.051 343.829 821.29 342.013 814.927 342.013C804.46 342.013 796.477 345.288 790.98 351.84C785.483 358.391 782.734 367.917 782.734 380.418C782.734 394.236 785.605 404.779 791.347 412.046C797.089 419.313 805.401 422.946 816.282 422.946C822.42 422.946 828.124 421.525 833.395 418.682C838.667 415.839 842.413 412.027 844.634 407.245L846.837 408.036C844.427 413.608 840.455 417.854 834.92 420.772C829.385 423.69 823.135 425.149 816.169 425.149C807.359 425.149 799.574 423.379 792.816 419.84C786.057 416.3 780.823 411.293 777.115 404.816C773.406 398.34 771.552 390.866 771.552 382.395Z" fill="#333333" fill-rule="nonzero" opacity="1" stroke="none"/>
<path d="M874.465 424.245L874.465 423.228L878.87 423.228C881.845 423.228 883.727 422.758 884.518 421.816C885.309 420.875 885.704 418.955 885.704 416.056L885.704 349.298C885.704 346.399 885.309 344.479 884.518 343.538C883.727 342.596 881.845 342.126 878.87 342.126L874.465 342.126L874.465 341.053L905.697 341.053L905.697 342.126L902.478 342.126C899.504 342.126 897.602 342.596 896.774 343.538C895.946 344.479 895.531 346.399 895.531 349.298L895.531 416.394L931.734 341.053L951.614 341.053L951.614 342.126L947.096 342.126C944.159 342.126 942.305 342.587 941.533 343.509C940.761 344.432 940.375 346.361 940.375 349.298L940.375 416.056C940.375 418.992 940.761 420.922 941.533 421.845C942.305 422.767 944.159 423.228 947.096 423.228L951.614 423.228L951.614 424.245L920.269 424.245L920.269 423.228L923.714 423.228C926.613 423.228 928.458 422.758 929.249 421.816C930.04 420.875 930.435 418.955 930.435 416.056L930.435 348.959L894.232 424.245L874.465 424.245Z" fill="#333333" fill-rule="nonzero" opacity="1" stroke="none"/>
<path d="M978.169 424.245L978.169 423.567L979.299 423.567C981.859 423.567 983.864 422.974 985.314 421.788C986.763 420.602 988.58 418.145 990.764 414.418L1008.1 383.524L991.611 351.388C989.766 347.849 988.119 345.458 986.669 344.215C985.219 342.973 983.572 342.352 981.727 342.352L980.259 342.352L980.259 341.335L1002.12 341.335L1002.12 342.352L995.169 342.352L995.169 342.577C996.11 342.879 997.24 343.66 998.558 344.921C999.875 346.183 1000.91 347.529 1001.66 348.959L1015.67 376.238L1030.69 351.049C1032.54 348.188 1033.46 346.06 1033.46 344.667C1033.46 343.801 1033.03 343.18 1032.16 342.803C1031.3 342.427 1029.85 342.239 1027.81 342.239L1023.3 342.239L1023.3 341.222L1044.59 341.222L1044.59 342.239L1043.06 342.239C1041.14 342.239 1039.56 342.813 1038.32 343.961C1037.08 345.11 1035.34 347.548 1033.12 351.275L1016.91 378.554L1035.33 414.305C1037.73 418.221 1039.28 420.555 1039.96 421.308C1041.16 422.664 1042.7 423.341 1044.59 423.341L1046.73 423.341L1046.73 424.358L1017.25 424.358L1017.25 423.341L1019.91 423.341C1024.39 423.341 1026.63 422.362 1026.63 420.404C1026.63 419.2 1025.82 417.317 1024.2 414.757L1009.29 385.727L993.305 414.305C991.536 417.317 990.651 419.482 990.651 420.8C990.651 421.741 991.112 422.4 992.034 422.777C992.957 423.153 994.472 423.341 996.581 423.341L1000.93 423.341L1000.93 424.245L978.169 424.245Z" fill="#333333" fill-rule="nonzero" opacity="1" stroke="none"/>
<path d="M1122.03 425.149C1112.65 425.149 1104.4 423.388 1097.26 419.868C1090.13 416.347 1084.61 411.368 1080.72 404.929C1076.82 398.491 1074.87 391.055 1074.87 382.621C1074.87 369.894 1079.19 359.634 1087.83 351.84C1096.47 344.046 1107.87 340.149 1122.03 340.149C1131.33 340.149 1139.54 341.909 1146.65 345.43C1153.77 348.95 1159.28 353.93 1163.17 360.368C1167.07 366.807 1169.02 374.224 1169.02 382.621C1169.02 391.055 1167.07 398.491 1163.17 404.929C1159.28 411.368 1153.77 416.347 1146.65 419.868C1139.54 423.388 1131.33 425.149 1122.03 425.149ZM1122.48 423.115C1134 423.115 1142.78 419.84 1148.83 413.288C1154.87 406.737 1157.89 397.248 1157.89 384.823C1157.89 371.005 1154.79 360.453 1148.57 353.167C1142.36 345.881 1133.36 342.239 1121.58 342.239C1110.02 342.239 1101.19 345.514 1095.09 352.066C1088.99 358.617 1085.94 368.106 1085.94 380.531C1085.94 394.349 1089.06 404.901 1095.29 412.187C1101.52 419.473 1110.58 423.115 1122.48 423.115Z" fill="#333333" fill-rule="nonzero" opacity="1" stroke="none"/>
<path d="M1202.75 341.053L1269.73 341.053L1269.73 342.126L1265.21 342.126C1262.27 342.126 1260.42 342.587 1259.65 343.509C1258.88 344.432 1258.49 346.361 1258.49 349.298L1258.49 416.056C1258.49 418.992 1258.88 420.922 1259.65 421.845C1260.42 422.767 1262.27 423.228 1265.21 423.228L1269.73 423.228L1269.73 424.245L1238.38 424.245L1238.38 423.228L1241.83 423.228C1244.73 423.228 1246.57 422.758 1247.36 421.816C1248.16 420.875 1248.55 418.955 1248.55 416.056L1248.55 343.142L1218.73 343.142L1218.73 371.381C1218.73 378.761 1218.19 385.736 1217.12 392.307C1216.05 398.877 1214.62 404.496 1212.83 409.165C1211.04 413.834 1209.11 417.788 1207.04 421.026C1204.97 424.264 1202.8 426.73 1200.54 428.424L1193.15 420.687C1195.18 419.105 1197.16 417.289 1199.08 415.237C1201 413.185 1202.96 410.681 1204.98 407.725C1206.99 404.769 1208.75 401.654 1210.26 398.378C1211.76 395.102 1213 391.346 1213.96 387.111C1214.92 382.875 1215.42 378.554 1215.45 374.149L1215.45 350.654C1215.45 349.185 1215.43 348.028 1215.37 347.18C1215.31 346.333 1215.13 345.561 1214.83 344.865C1214.53 344.168 1214.21 343.66 1213.87 343.34C1213.53 343.02 1212.92 342.756 1212.04 342.549C1211.15 342.342 1210.27 342.22 1209.38 342.182C1208.5 342.144 1207.21 342.126 1205.51 342.126L1202.75 342.126L1202.75 341.053Z" fill="#333333" fill-rule="nonzero" opacity="1" stroke="none"/>
<path d="M1345.08 425.149C1335.71 425.149 1327.45 423.388 1320.32 419.868C1313.18 416.347 1307.66 411.368 1303.77 404.929C1299.87 398.491 1297.92 391.055 1297.92 382.621C1297.92 369.894 1302.24 359.634 1310.88 351.84C1319.53 344.046 1330.92 340.149 1345.08 340.149C1354.38 340.149 1362.59 341.909 1369.71 345.43C1376.82 348.95 1382.33 353.93 1386.23 360.368C1390.12 366.807 1392.07 374.224 1392.07 382.621C1392.07 391.055 1390.12 398.491 1386.23 404.929C1382.33 411.368 1376.82 416.347 1369.71 419.868C1362.59 423.388 1354.38 425.149 1345.08 425.149ZM1345.53 423.115C1357.06 423.115 1365.84 419.84 1371.88 413.288C1377.92 406.737 1380.95 397.248 1380.95 384.823C1380.95 371.005 1377.84 360.453 1371.63 353.167C1365.41 345.881 1356.42 342.239 1344.63 342.239C1333.07 342.239 1324.24 345.514 1318.14 352.066C1312.04 358.617 1308.99 368.106 1308.99 380.531C1308.99 394.349 1312.11 404.901 1318.34 412.187C1324.57 419.473 1333.64 423.115 1345.53 423.115Z" fill="#333333" fill-rule="nonzero" opacity="1" stroke="none"/>
<path d="M1420.38 424.245L1420.38 423.228L1424.78 423.228C1427.87 423.228 1429.78 422.899 1430.52 422.24C1431.25 421.581 1431.62 419.858 1431.62 417.072L1431.62 348.225C1431.62 345.477 1431.25 343.773 1430.52 343.114C1429.78 342.455 1427.87 342.126 1424.78 342.126L1420.38 342.126L1420.38 341.053L1468.16 341.053C1469.14 341.053 1469.83 341.128 1470.25 341.278C1470.66 341.429 1471.11 341.711 1471.6 342.126L1471.72 342.126L1471.26 334.275L1472.45 334.162L1474.88 368.049L1472.56 368.049L1471.94 359.916C1471.79 356.904 1471.09 354.287 1469.82 352.066C1468.56 349.844 1466.87 348.093 1464.74 346.813C1462.61 345.533 1460.25 344.601 1457.65 344.018C1455.05 343.434 1452.16 343.142 1448.96 343.142L1438.68 343.142L1438.68 343.255C1440.52 344.95 1441.44 346.964 1441.44 349.298L1441.44 417.072C1441.44 419.821 1441.83 421.534 1442.6 422.212C1443.37 422.889 1445.3 423.228 1448.39 423.228L1456.58 423.228L1456.58 424.245L1420.38 424.245Z" fill="#333333" fill-rule="nonzero" opacity="1" stroke="none"/>
<path d="M1501.77 424.245L1501.77 423.228L1506.18 423.228C1509.27 423.228 1511.18 422.908 1511.91 422.268C1512.64 421.628 1513.01 419.934 1513.01 417.185L1513.01 348.112C1513.01 345.364 1512.64 343.679 1511.91 343.058C1511.18 342.436 1509.27 342.126 1506.18 342.126L1501.77 342.126L1501.77 341.053L1534.13 341.053L1534.13 342.352L1529.79 342.352C1526.66 342.352 1524.72 342.672 1523.97 343.312C1523.22 343.952 1522.84 345.646 1522.84 348.395L1522.84 417.185C1522.84 419.934 1523.22 421.628 1523.97 422.268C1524.72 422.908 1526.66 423.228 1529.79 423.228L1534.13 423.228L1534.13 424.245L1501.77 424.245Z" fill="#333333" fill-rule="nonzero" opacity="1" stroke="none"/>
<path d="M1597.51 424.245L1597.51 423.228L1601.92 423.228C1605.01 423.228 1606.92 422.908 1607.65 422.268C1608.39 421.628 1608.75 419.934 1608.75 417.185L1608.75 388.381L1589.89 388.381C1583.64 388.381 1578.88 386.894 1575.6 383.92C1572.32 380.945 1570.69 376.615 1570.69 370.93L1570.69 348.225C1570.69 345.477 1570.32 343.773 1569.58 343.114C1568.85 342.455 1566.94 342.126 1563.85 342.126L1560.63 342.126L1560.63 341.053L1587.12 341.053L1587.12 342.126L1578.54 342.126L1578.54 342.352C1579.03 342.766 1579.35 343.152 1579.5 343.509C1579.65 343.867 1579.72 344.479 1579.72 345.345L1579.72 369.969C1579.72 375.354 1580.65 379.439 1582.52 382.225C1584.38 385.011 1587.14 386.405 1590.79 386.405L1608.75 386.405L1608.75 348.112C1608.75 345.364 1608.39 343.679 1607.65 343.058C1606.92 342.436 1605.01 342.126 1601.92 342.126L1597.51 342.126L1597.51 341.053L1629.93 341.053L1629.93 342.352L1625.53 342.352C1622.4 342.352 1620.46 342.672 1619.71 343.312C1618.96 343.952 1618.58 345.646 1618.58 348.395L1618.58 417.185C1618.58 419.934 1618.96 421.628 1619.71 422.268C1620.46 422.908 1622.4 423.228 1625.53 423.228L1629.93 423.228L1629.93 424.245L1597.51 424.245Z" fill="#333333" fill-rule="nonzero" opacity="1" stroke="none"/>
<path d="M1656.49 424.245L1656.49 423.228L1660.89 423.228C1663.87 423.228 1665.75 422.758 1666.54 421.816C1667.33 420.875 1667.73 418.955 1667.73 416.056L1667.73 349.298C1667.73 346.399 1667.33 344.479 1666.54 343.538C1665.75 342.596 1663.87 342.126 1660.89 342.126L1656.49 342.126L1656.49 341.053L1687.72 341.053L1687.72 342.126L1684.5 342.126C1681.53 342.126 1679.62 342.596 1678.8 343.538C1677.97 344.479 1677.55 346.399 1677.55 349.298L1677.55 379.458L1712.46 379.458L1712.46 349.298C1712.46 346.399 1712.04 344.479 1711.21 343.538C1710.39 342.596 1708.48 342.126 1705.51 342.126L1702.29 342.126L1702.29 341.053L1733.64 341.053L1733.64 342.126L1729.12 342.126C1726.18 342.126 1724.33 342.587 1723.55 343.509C1722.78 344.432 1722.4 346.361 1722.4 349.298L1722.4 416.056C1722.4 418.992 1722.78 420.922 1723.55 421.845C1724.33 422.767 1726.18 423.228 1729.12 423.228L1733.64 423.228L1733.64 424.245L1702.29 424.245L1702.29 423.228L1705.74 423.228C1708.63 423.228 1710.48 422.758 1711.27 421.816C1712.06 420.875 1712.46 418.955 1712.46 416.056L1712.46 381.547L1677.55 381.547L1677.55 416.056C1677.55 418.955 1677.97 420.875 1678.8 421.816C1679.62 422.758 1681.53 423.228 1684.5 423.228L1687.72 423.228L1687.72 424.245L1656.49 424.245Z" fill="#333333" fill-rule="nonzero" opacity="1" stroke="none"/>
<path d="M1760.19 424.245L1760.19 423.228L1764.6 423.228C1767.57 423.228 1769.45 422.758 1770.24 421.816C1771.03 420.875 1771.43 418.955 1771.43 416.056L1771.43 349.298C1771.43 346.399 1771.03 344.479 1770.24 343.538C1769.45 342.596 1767.57 342.126 1764.6 342.126L1760.19 342.126L1760.19 341.053L1791.42 341.053L1791.42 342.126L1788.2 342.126C1785.23 342.126 1783.33 342.596 1782.5 343.538C1781.67 344.479 1781.26 346.399 1781.26 349.298L1781.26 416.394L1817.46 341.053L1837.34 341.053L1837.34 342.126L1832.82 342.126C1829.88 342.126 1828.03 342.587 1827.26 343.509C1826.49 344.432 1826.1 346.361 1826.1 349.298L1826.1 416.056C1826.1 418.992 1826.49 420.922 1827.26 421.845C1828.03 422.767 1829.88 423.228 1832.82 423.228L1837.34 423.228L1837.34 424.245L1805.99 424.245L1805.99 423.228L1809.44 423.228C1812.34 423.228 1814.18 422.758 1814.97 421.816C1815.77 420.875 1816.16 418.955 1816.16 416.056L1816.16 348.959L1779.96 424.245L1760.19 424.245Z" fill="#333333" fill-rule="nonzero" opacity="1" stroke="none"/>
<path d="M1863.89 424.245L1863.89 423.228L1868.3 423.228C1871.27 423.228 1873.16 422.758 1873.95 421.816C1874.74 420.875 1875.13 418.955 1875.13 416.056L1875.13 349.298C1875.13 346.399 1874.74 344.479 1873.95 343.538C1873.16 342.596 1871.27 342.126 1868.3 342.126L1863.89 342.126L1863.89 341.053L1895.13 341.053L1895.13 342.126L1891.91 342.126C1888.93 342.126 1887.03 342.596 1886.2 343.538C1885.38 344.479 1884.96 346.399 1884.96 349.298L1884.96 416.394L1921.16 341.053L1941.04 341.053L1941.04 342.126L1936.53 342.126C1933.59 342.126 1931.73 342.587 1930.96 343.509C1930.19 344.432 1929.8 346.361 1929.8 349.298L1929.8 416.056C1929.8 418.992 1930.19 420.922 1930.96 421.845C1931.73 422.767 1933.59 423.228 1936.53 423.228L1941.04 423.228L1941.04 424.245L1909.7 424.245L1909.7 423.228L1913.14 423.228C1916.04 423.228 1917.89 422.758 1918.68 421.816C1919.47 420.875 1919.86 418.955 1919.86 416.056L1919.86 348.959L1883.66 424.245L1863.89 424.245ZM1886.77 320.269L1891.29 319.93C1891.29 323.055 1892.58 325.766 1895.16 328.063C1897.73 330.359 1900.81 331.508 1904.39 331.508C1907.93 331.508 1910.97 330.359 1913.51 328.063C1916.05 325.766 1917.32 323.055 1917.32 319.93L1921.84 320.269C1921.84 323.958 1920.14 327.093 1916.73 329.672C1913.32 332.251 1909.21 333.541 1904.39 333.541C1899.53 333.541 1895.38 332.251 1891.94 329.672C1888.49 327.093 1886.77 323.958 1886.77 320.269Z" fill="#333333" fill-rule="nonzero" opacity="1" stroke="none"/>
<path d="M2023.58 424.245L2023.58 423.228L2028.1 423.228C2031.07 423.228 2032.95 422.758 2033.74 421.816C2034.54 420.875 2034.93 418.955 2034.93 416.056L2034.93 349.298C2034.93 346.399 2034.54 344.479 2033.74 343.538C2032.95 342.596 2031.07 342.126 2028.1 342.126L2023.58 342.126L2023.58 341.053L2053.51 341.053L2053.51 342.126L2051.59 342.126C2048.65 342.126 2046.8 342.587 2046.03 343.509C2045.26 344.432 2044.87 346.361 2044.87 349.298L2044.87 422.155L2077.01 422.155L2077.01 349.298C2077.01 346.399 2076.59 344.479 2075.76 343.538C2074.94 342.596 2073.03 342.126 2070.06 342.126L2068.08 342.126L2068.08 341.053L2098.07 341.053L2098.07 342.126L2093.67 342.126C2090.73 342.126 2088.88 342.587 2088.1 343.509C2087.33 344.432 2086.95 346.361 2086.95 349.298L2086.95 414.983C2086.95 417.919 2087.33 419.849 2088.1 420.772C2088.88 421.694 2090.73 422.155 2093.67 422.155L2107.67 422.155L2107.67 441.358L2104.17 441.358L2104.17 431.418C2104.17 428.518 2103.78 426.598 2102.99 425.657C2102.2 424.716 2100.33 424.245 2097.4 424.245L2023.58 424.245Z" fill="#333333" fill-rule="nonzero" opacity="1" stroke="none"/>
<path d="M2211.27 379.119L2139.09 379.119L2139.09 380.531C2139.09 394.123 2142.29 404.619 2148.69 412.017C2155.09 419.416 2163.81 423.115 2174.84 423.115C2183.31 423.115 2190.8 421.543 2197.32 418.399C2203.83 415.256 2208.95 410.841 2212.68 405.155L2214.43 406.454C2210.48 412.403 2205.03 417.006 2198.11 420.263C2191.18 423.52 2183.23 425.149 2174.27 425.149C2165.42 425.149 2157.46 423.388 2150.38 419.868C2143.3 416.347 2137.73 411.321 2133.66 404.788C2129.6 398.256 2127.56 390.791 2127.56 382.395C2127.56 374.036 2129.51 366.656 2133.41 360.255C2137.31 353.854 2142.8 348.903 2149.9 345.401C2157 341.9 2165.2 340.149 2174.5 340.149C2181.88 340.149 2188.65 341.589 2194.8 344.469C2200.96 347.35 2205.9 351.482 2209.63 356.866C2213.36 362.251 2215.22 368.369 2215.22 375.222L2215.22 375.787C2215.22 376.728 2214.83 377.519 2214.06 378.159C2213.29 378.799 2212.36 379.119 2211.27 379.119ZM2139.2 377.029L2203.3 376.238C2203.9 376.238 2204.21 375.9 2204.21 375.222C2204.21 365.319 2201.48 357.347 2196.02 351.303C2190.56 345.26 2183.35 342.239 2174.39 342.239C2163.5 342.239 2155.06 345.204 2149.05 351.134C2143.05 357.064 2139.76 365.696 2139.2 377.029Z" fill="#333333" fill-rule="nonzero" opacity="1" stroke="none"/>
<path d="M2243.75 424.245L2243.75 423.228L2248.16 423.228C2251.13 423.228 2253.01 422.758 2253.8 421.816C2254.59 420.875 2254.99 418.955 2254.99 416.056L2254.99 349.298C2254.99 346.399 2254.59 344.479 2253.8 343.538C2253.01 342.596 2251.13 342.126 2248.16 342.126L2243.75 342.126L2243.75 341.053L2274.98 341.053L2274.98 342.126L2271.76 342.126C2268.79 342.126 2266.89 342.596 2266.06 343.538C2265.23 344.479 2264.82 346.399 2264.82 349.298L2264.82 379.458L2299.72 379.458L2299.72 349.298C2299.72 346.399 2299.31 344.479 2298.48 343.538C2297.65 342.596 2295.75 342.126 2292.77 342.126L2289.55 342.126L2289.55 341.053L2320.9 341.053L2320.9 342.126L2316.38 342.126C2313.44 342.126 2311.59 342.587 2310.82 343.509C2310.05 344.432 2309.66 346.361 2309.66 349.298L2309.66 416.056C2309.66 418.992 2310.05 420.922 2310.82 421.845C2311.59 422.767 2313.44 423.228 2316.38 423.228L2320.9 423.228L2320.9 424.245L2289.55 424.245L2289.55 423.228L2293 423.228C2295.9 423.228 2297.74 422.758 2298.53 421.816C2299.33 420.875 2299.72 418.955 2299.72 416.056L2299.72 381.547L2264.82 381.547L2264.82 416.056C2264.82 418.955 2265.23 420.875 2266.06 421.816C2266.89 422.758 2268.79 423.228 2271.76 423.228L2274.98 423.228L2274.98 424.245L2243.75 424.245Z" fill="#333333" fill-rule="nonzero" opacity="1" stroke="none"/>
<path d="M2358.07 424.245L2358.07 423.228L2367.79 423.228C2370.84 423.228 2372.72 422.899 2373.43 422.24C2374.15 421.581 2374.51 419.858 2374.51 417.072L2374.51 343.142L2366.88 343.142C2363.65 343.142 2361.05 343.312 2359.09 343.651C2357.13 343.989 2355.44 344.648 2354.01 345.627C2352.58 346.606 2351.55 347.952 2350.93 349.665C2350.31 351.379 2349.92 353.647 2349.77 356.471L2349.32 361.215L2347 361.102L2348.98 334.275L2350.34 334.388L2349.77 341.053L2408.96 341.053L2408.39 334.501L2409.81 334.388L2411.67 361.102L2409.35 361.215L2408.96 356.471C2408.73 353.647 2408.3 351.388 2407.66 349.694C2407.02 347.999 2405.99 346.653 2404.58 345.656C2403.17 344.658 2401.5 343.989 2399.56 343.651C2397.62 343.312 2395.05 343.142 2391.85 343.142L2384.45 343.142L2384.45 417.072C2384.45 419.858 2384.81 421.581 2385.52 422.24C2386.24 422.899 2388.12 423.228 2391.17 423.228L2400.66 423.228L2400.66 424.245L2358.07 424.245Z" fill="#333333" fill-rule="nonzero" opacity="1" stroke="none"/>
<path d="M2456.98 343.255L2456.98 343.876C2458.37 345.571 2459.07 347.962 2459.07 351.049L2459.07 389.793L2466.24 389.793C2474.26 389.793 2480.37 387.807 2484.57 383.835C2488.76 379.862 2490.86 374.092 2490.86 366.524C2490.86 358.956 2488.76 353.186 2484.57 349.214C2480.37 345.241 2474.26 343.255 2466.24 343.255L2456.98 343.255ZM2438 424.245L2438 423.228L2442.4 423.228C2445.49 423.228 2447.4 422.899 2448.14 422.24C2448.87 421.581 2449.24 419.858 2449.24 417.072L2449.24 348.225C2449.24 345.477 2448.87 343.773 2448.14 343.114C2447.4 342.455 2445.49 342.126 2442.4 342.126L2438 342.126L2438 341.053L2470.02 341.053C2479.62 341.053 2487.35 343.387 2493.21 348.056C2499.06 352.725 2501.99 358.881 2501.99 366.524C2501.99 374.092 2499.06 380.211 2493.21 384.88C2487.35 389.549 2479.62 391.883 2470.02 391.883L2459.07 391.883L2459.07 417.072C2459.07 419.821 2459.45 421.534 2460.22 422.212C2461 422.889 2462.93 423.228 2466.01 423.228L2469.12 423.228L2469.12 424.245L2438 424.245Z" fill="#333333" fill-rule="nonzero" opacity="1" stroke="none"/>
</g>
</g>
</g>
</g>
<g opacity="1" vectornator:layerName="Group 7">
<g opacity="1" vectornator:layerName="Group 2">
<path d="M1672.05 793.194L1606.53 820.812L1616.6 820.812L1616.6 847.138L1548.97 847.138L1531.51 847.138L1548.97 861.007L1548.97 877.615L1446.91 877.615L1425.12 877.615L1425.12 897.118L1446.91 897.118L1446.91 1260.22L1425.34 1260.22L1425.34 1279.72L1924.9 1279.72L1924.9 1260.22L1903.77 1260.4L1902.76 897.118L1924.42 897.118L1924.16 877.486L1911.98 877.615L1812.23 877.615L1812.23 860.731L1827.83 847.138L1812.23 847.138L1736.05 847.532L1736.05 820.812L1747.24 820.91L1672.05 793.194Z" fill="#333333" fill-rule="nonzero" opacity="1" stroke="none"/>
</g>
<g opacity="1" vectornator:layerName="Group 1">
<g opacity="1" vectornator:layerName="Group 1">
<path d="M1736.73 1096.17L1736.73 1168.45L1786.98 1168.45L1786.98 1096.17L1736.73 1096.17Z" fill="#757575" fill-rule="nonzero" opacity="0" stroke="none" vectornator:layerName="Curve 1"/>
<path d="M1485.54 911.823C1461.79 911.687 1460.14 930.573 1460.14 930.573L1460.14 992.729L1510.39 992.729L1510.39 930.573C1510.39 930.573 1509.3 911.96 1485.54 911.823Z" fill="#757575" fill-rule="nonzero" opacity="0" stroke="none" vectornator:layerName="Curve 2"/>
<path d="M1667.7 905.854C1643.95 905.718 1642.33 924.604 1642.33 924.604L1642.33 986.792L1692.58 986.792L1692.58 924.604C1692.58 924.604 1691.45 905.991 1667.7 905.854Z" fill="#757575" fill-rule="nonzero" opacity="0" stroke="none" vectornator:layerName="Curve 3"/>
<path d="M1823.54 1097.1L1823.54 1169.39L1873.83 1169.39L1873.83 1097.1L1823.54 1097.1Z" fill="#757575" fill-rule="nonzero" opacity="0" stroke="none" vectornator:layerName="Curve 4"/>
<path d="M1460.73 1008.26L1460.73 1080.54L1510.98 1080.54L1510.98 1008.26L1460.73 1008.26Z" fill="#757575" fill-rule="nonzero" opacity="0" stroke="none" vectornator:layerName="Curve 5"/>
<path d="M1799.83 861.011L1799.83 1262.32L1895.92 1262.32L1895.92 877.604L1805.9 877.604L1805.83 861.006L1799.83 861.011ZM1806.17 884.323L1891.23 884.323L1891.23 1260.2L1806.17 1260.2L1806.17 884.323Z" fill="#757575" fill-rule="nonzero" opacity="1" stroke="none" vectornator:layerName="Curve 6"/>
<path d="M1576.39 908.479C1552.64 908.343 1551.01 927.229 1551.01 927.229L1551.01 989.386L1601.26 989.386L1601.26 927.229C1601.26 927.229 1600.14 908.616 1576.39 908.479Z" fill="#757575" fill-rule="nonzero" opacity="0" stroke="none" vectornator:layerName="Curve 7"/>
<path d="M1848.36 913.417C1824.61 913.281 1822.95 932.167 1822.95 932.167L1822.95 994.323L1873.2 994.323L1873.2 932.167C1873.2 932.167 1872.11 913.553 1848.36 913.417Z" fill="#757575" fill-rule="nonzero" opacity="0" stroke="none" vectornator:layerName="Curve 8"/>
<path d="M1551.61 1004.92L1551.61 1077.2L1601.86 1077.2L1601.86 1004.92L1551.61 1004.92Z" fill="#757575" fill-rule="nonzero" opacity="0" stroke="none" vectornator:layerName="Curve 9"/>
<path d="M1642.33 1088.1L1642.33 1160.39L1692.58 1160.39L1692.58 1088.1L1642.33 1088.1Z" fill="#757575" fill-rule="nonzero" opacity="0" stroke="none" vectornator:layerName="Curve 10"/>
<path d="M1761.51 912.479C1737.76 912.343 1736.14 931.229 1736.14 931.229L1736.14 993.386L1786.39 993.386L1786.39 931.229C1786.39 931.229 1785.26 912.616 1761.51 912.479Z" fill="#757575" fill-rule="nonzero" opacity="0" stroke="none" vectornator:layerName="Curve 11"/>
<path d="M1666.45 793.198L1595.14 820.823L1605.04 820.823L1605.04 847.136L1515.34 847.072L1530.26 861.058L1530.2 877.545L1436.4 877.604L1437.41 1261.13L1539.17 1262.32L1539.17 861.011L1613.89 861.011L1613.89 1262.32L1722.01 1262.32L1722.01 861.011L1797.7 861.011L1805.83 861.006L1818.54 847.246L1729.86 847.136L1729.86 820.823L1739.92 820.823L1666.45 793.198ZM1621.42 820.823L1714.39 820.823L1714.39 1260.2L1621.42 1260.2L1621.42 820.823ZM1442.23 884.323L1530.23 884.323L1530.23 1260.2L1442.23 1260.2L1442.23 884.323Z" fill="#757575" fill-rule="nonzero" opacity="1" stroke="none" vectornator:layerName="Curve 12"/>
<path d="M1460.73 1095.51L1460.73 1167.79L1510.98 1167.79L1510.98 1095.51L1460.73 1095.51Z" fill="#757575" fill-rule="nonzero" opacity="0" stroke="none" vectornator:layerName="Curve 13"/>
<path d="M1551.61 1092.17L1551.61 1164.45L1601.86 1164.45L1601.86 1092.17L1551.61 1092.17Z" fill="#757575" fill-rule="nonzero" opacity="0" stroke="none" vectornator:layerName="Curve 14"/>
<path d="M1619.88 820.823L1619.88 1260.2L1714.39 1260.2L1714.39 820.823L1619.88 820.823ZM1666.93 905.854C1691.07 905.991 1692.22 924.604 1692.22 924.604L1692.22 986.792L1641.13 986.792L1641.13 924.604C1641.13 924.604 1642.79 905.718 1666.93 905.854ZM1641.13 1088.1L1692.22 1088.1L1692.22 1160.39L1641.13 1160.39L1641.13 1088.1Z" fill="#c0c0c0" fill-rule="nonzero" opacity="1" stroke="none" vectornator:layerName="Curve 15"/>
<path d="M1806.17 884.323L1806.17 1260.2L1891.23 1260.2L1891.23 884.323L1806.17 884.323ZM1848.36 913.417C1872.11 913.553 1873.2 932.167 1873.2 932.167L1873.2 994.323L1822.95 994.323L1822.95 932.167C1822.95 932.167 1824.61 913.281 1848.36 913.417ZM1823.54 1097.1L1873.83 1097.1L1873.83 1169.39L1823.54 1169.39L1823.54 1097.1Z" fill="#c0c0c0" fill-rule="nonzero" opacity="1" stroke="none" vectornator:layerName="Curve 16"/>
<path d="M1797.7 861.011L1797.7 877.604L1799.83 877.604L1799.83 861.011L1797.7 861.011Z" fill="#c0c0c0" fill-rule="nonzero" opacity="1" stroke="none" vectornator:layerName="Curve 17"/>
<path d="M1442.23 884.323L1442.23 1260.2L1530.23 1260.2L1530.23 884.323L1442.23 884.323ZM1485.54 911.823C1509.3 911.96 1510.39 930.573 1510.39 930.573L1510.39 992.729L1460.14 992.729L1460.14 930.573C1460.14 930.573 1461.79 911.687 1485.54 911.823ZM1460.73 1008.26L1510.98 1008.26L1510.98 1080.54L1460.73 1080.54L1460.73 1008.26ZM1460.73 1095.51L1510.98 1095.51L1510.98 1167.79L1460.73 1167.79L1460.73 1095.51Z" fill="#c0c0c0" fill-rule="nonzero" opacity="1" stroke="none" vectornator:layerName="Curve 18"/>
<path d="M1721.5 861.011L1721.5 1262.32L1799.83 1262.32L1799.83 877.604L1797.69 877.604L1797.69 861.011L1721.5 861.011ZM1761.26 912.479C1785.17 912.616 1786.3 931.229 1786.3 931.229L1786.3 993.386L1735.72 993.386L1735.72 931.229C1735.72 931.229 1737.36 912.343 1761.26 912.479ZM1736.32 1096.17L1786.9 1096.17L1786.9 1168.45L1736.32 1168.45L1736.32 1096.17Z" fill="#c0c0c0" fill-rule="nonzero" opacity="1" stroke="none" vectornator:layerName="Curve 19"/>
<path d="M1536.87 861.011L1536.87 1262.32L1613.89 1262.32L1613.89 861.011L1536.87 861.011ZM1575.24 908.479C1599.72 908.616 1600.88 927.229 1600.88 927.229L1600.88 989.386L1549.08 989.386L1549.08 927.229C1549.08 927.229 1550.76 908.343 1575.24 908.479ZM1549.69 1004.92L1601.49 1004.92L1601.49 1077.2L1549.69 1077.2L1549.69 1004.92ZM1549.69 1092.17L1601.49 1092.17L1601.49 1164.45L1549.69 1164.45L1549.69 1092.17Z" fill="#c0c0c0" fill-rule="nonzero" opacity="1" stroke="none" vectornator:layerName="Curve 20"/>
<path d="M1642.33 1001.58L1692.58 1001.58L1692.58 1073.86L1642.33 1073.86L1642.33 1001.58Z" fill="#f8f085" fill-rule="nonzero" opacity="1" stroke="#757575" stroke-linecap="square" stroke-linejoin="miter" stroke-width="3.82151" vectornator:layerName="Rectangle 21"/>
<path d="M1736.74 1008.94L1786.99 1008.94L1786.99 1081.21L1736.74 1081.21L1736.74 1008.94Z" fill="#f8f085" fill-rule="nonzero" opacity="1" stroke="#757575" stroke-linecap="square" stroke-linejoin="miter" stroke-width="3.82151" vectornator:layerName="Rectangle 15"/>
<path d="M1823.56 1009.87L1873.81 1009.87L1873.81 1082.15L1823.56 1082.15L1823.56 1009.87Z" fill="#f8f085" fill-rule="nonzero" opacity="1" stroke="#757575" stroke-linecap="square" stroke-linejoin="miter" stroke-width="3.82151" vectornator:layerName="Rectangle 16"/>
<path d="M1416.7 1260.2L1917.6 1260.2L1917.6 1279.71L1416.7 1279.71L1416.7 1260.2Z" fill="#757575" fill-rule="nonzero" opacity="1" stroke="none" vectornator:layerName="Rectangle 2"/>
<path d="M1416.48 877.606L1917.38 877.606L1917.38 897.118L1416.48 897.118L1416.48 877.606Z" fill="#757575" fill-rule="nonzero" opacity="1" stroke="none" vectornator:layerName="Rectangle 34"/>
<path d="M1629.05 1173.59L1707.46 1173.59L1707.46 1262.31L1629.05 1262.31L1629.05 1173.59Z" fill="#757575" fill-rule="nonzero" opacity="1" stroke="none" vectornator:layerName="Rectangle 31"/>
<path d="M1458.38 1185.76L1588.6 1185.76L1588.6 1254.76L1458.38 1254.76L1458.38 1185.76Z" fill="#757575" fill-rule="nonzero" opacity="1" stroke="none" vectornator:layerName="Rectangle 32"/>
<path d="M1744.48 1185.76L1874.69 1185.76L1874.69 1254.42L1744.48 1254.42L1744.48 1185.76Z" fill="#757575" fill-rule="nonzero" opacity="1" stroke="none" vectornator:layerName="Rectangle 33"/>
</g>
<g opacity="1" vectornator:layerName="Group 2">
<g opacity="1" vectornator:layerName="Group 2">
<path d="M718.578 1368.1C718.578 1364.27 719.039 1360.92 719.962 1358.05C720.885 1355.18 722.27 1352.75 724.116 1350.77C725.962 1348.78 727.894 1347.14 729.91 1345.84C731.927 1344.54 734.372 1343.28 737.243 1342.05L738.782 1345.23C731.534 1348.37 726.817 1352.27 724.629 1356.92C723.808 1359.04 723.261 1360.3 722.988 1360.71L724.013 1361.33C725.107 1359.69 726.646 1358.87 728.629 1358.87C735.534 1358.87 738.987 1361.94 738.987 1368.1C738.987 1371.11 738.098 1373.43 736.32 1375.07C734.543 1376.71 731.979 1377.53 728.629 1377.53C725.552 1377.53 723.108 1376.68 721.296 1374.97C719.484 1373.26 718.578 1370.97 718.578 1368.1ZM683.093 1368.1C683.093 1360.92 684.7 1355.43 687.913 1351.64C691.127 1347.84 695.742 1344.65 701.759 1342.05L703.4 1345.23C696.289 1348.3 691.606 1352.2 689.349 1356.92C688.666 1358.7 688.05 1359.96 687.503 1360.71L688.734 1361.33C689.828 1359.69 691.366 1358.87 693.349 1358.87C700.186 1358.87 703.605 1361.94 703.605 1368.1C703.605 1374.39 700.186 1377.53 693.349 1377.53C690.204 1377.53 687.708 1376.66 685.862 1374.92C684.016 1373.17 683.093 1370.9 683.093 1368.1Z" fill="#333333" fill-rule="nonzero" opacity="1" stroke="none"/>
<path d="M782.919 1494.96L782.919 1493.11L800.558 1493.11C806.096 1493.11 809.515 1492.52 810.814 1491.32C812.113 1490.12 812.763 1487 812.763 1481.94L812.763 1347.69L798.917 1347.69C793.038 1347.69 788.32 1348 784.765 1348.61C781.209 1349.23 778.133 1350.42 775.535 1352.2C772.936 1353.98 771.073 1356.42 769.945 1359.53C768.817 1362.65 768.116 1366.76 767.843 1371.89L767.022 1380.51L762.817 1380.3L766.407 1331.59L768.868 1331.79L767.843 1343.89L875.322 1343.89L874.297 1332L876.861 1331.79L880.245 1380.3L876.04 1380.51L875.322 1371.89C874.912 1366.76 874.126 1362.66 872.963 1359.59C871.801 1356.51 869.938 1354.07 867.374 1352.25C864.81 1350.44 861.768 1349.23 858.247 1348.61C854.725 1348 850.059 1347.69 844.248 1347.69L830.813 1347.69L830.813 1481.94C830.813 1487 831.462 1490.12 832.761 1491.32C834.06 1492.52 837.479 1493.11 843.017 1493.11L860.246 1493.11L860.246 1494.96L782.919 1494.96Z" fill="#333333" fill-rule="nonzero" opacity="1" stroke="none"/>
<path d="M930.535 1347.89L930.535 1349.02C933.065 1352.1 934.33 1356.44 934.33 1362.05L934.33 1432.4L947.355 1432.4C961.918 1432.4 973.011 1428.79 980.634 1421.58C988.258 1414.37 992.069 1403.89 992.069 1390.15C992.069 1376.41 988.258 1365.93 980.634 1358.71C973.011 1351.5 961.918 1347.89 947.355 1347.89L930.535 1347.89ZM896.076 1494.96L896.076 1493.11L904.076 1493.11C909.682 1493.11 913.152 1492.52 914.485 1491.32C915.818 1490.12 916.485 1487 916.485 1481.94L916.485 1356.92C916.485 1351.93 915.818 1348.83 914.485 1347.64C913.152 1346.44 909.682 1345.84 904.076 1345.84L896.076 1345.84L896.076 1343.89L954.226 1343.89C971.661 1343.89 985.694 1348.13 996.326 1356.61C1006.96 1365.09 1012.27 1376.27 1012.27 1390.15C1012.27 1403.89 1006.96 1415 996.326 1423.48C985.694 1431.96 971.661 1436.2 954.226 1436.2L934.33 1436.2L934.33 1481.94C934.33 1486.93 935.031 1490.04 936.432 1491.27C937.834 1492.5 941.338 1493.11 946.944 1493.11L952.585 1493.11L952.585 1494.96L896.076 1494.96Z" fill="#333333" fill-rule="nonzero" opacity="1" stroke="none"/>
<path d="M1185.53 1413.02L1054.46 1413.02L1054.46 1415.58C1054.46 1440.26 1060.27 1459.32 1071.9 1472.76C1083.52 1486.19 1099.35 1492.91 1119.38 1492.91C1134.76 1492.91 1148.37 1490.06 1160.2 1484.35C1172.03 1478.64 1181.32 1470.62 1188.09 1460.3L1191.27 1462.66C1184.09 1473.46 1174.21 1481.82 1161.63 1487.73C1149.05 1493.64 1134.63 1496.6 1118.35 1496.6C1102.29 1496.6 1087.83 1493.41 1074.97 1487.01C1062.12 1480.62 1052 1471.49 1044.62 1459.63C1037.23 1447.77 1033.54 1434.21 1033.54 1418.97C1033.54 1403.79 1037.08 1390.39 1044.15 1378.76C1051.23 1367.14 1061.21 1358.15 1074.1 1351.79C1086.99 1345.43 1101.88 1342.25 1118.76 1342.25C1132.17 1342.25 1144.46 1344.87 1155.63 1350.1C1166.81 1355.33 1175.79 1362.83 1182.55 1372.61C1189.32 1382.39 1192.71 1393.5 1192.71 1405.94L1192.71 1406.97C1192.71 1408.68 1192.01 1410.11 1190.61 1411.27C1189.2 1412.44 1187.51 1413.02 1185.53 1413.02ZM1054.67 1409.22L1171.07 1407.79C1172.16 1407.79 1172.71 1407.17 1172.71 1405.94C1172.71 1387.96 1167.75 1373.48 1157.84 1362.51C1147.92 1351.54 1134.83 1346.05 1118.56 1346.05C1098.8 1346.05 1083.47 1351.43 1072.56 1362.2C1061.66 1372.97 1055.69 1388.64 1054.67 1409.22Z" fill="#333333" fill-rule="nonzero" opacity="1" stroke="none"/>
<path d="M1229.46 1494.96L1229.46 1493.11L1247.1 1493.11C1252.64 1493.11 1256.06 1492.52 1257.36 1491.32C1258.66 1490.12 1259.3 1487 1259.3 1481.94L1259.3 1347.69L1245.46 1347.69C1239.58 1347.69 1234.86 1348 1231.31 1348.61C1227.75 1349.23 1224.67 1350.42 1222.08 1352.2C1219.48 1353.98 1217.62 1356.42 1216.49 1359.53C1215.36 1362.65 1214.66 1366.76 1214.39 1371.89L1213.56 1380.51L1209.36 1380.3L1212.95 1331.59L1215.41 1331.79L1214.39 1343.89L1321.86 1343.89L1320.84 1332L1323.4 1331.79L1326.79 1380.3L1322.58 1380.51L1321.86 1371.89C1321.45 1366.76 1320.67 1362.66 1319.51 1359.59C1318.34 1356.51 1316.48 1354.07 1313.92 1352.25C1311.35 1350.44 1308.31 1349.23 1304.79 1348.61C1301.27 1348 1296.6 1347.69 1290.79 1347.69L1277.35 1347.69L1277.35 1481.94C1277.35 1487 1278 1490.12 1279.3 1491.32C1280.6 1492.52 1284.02 1493.11 1289.56 1493.11L1306.79 1493.11L1306.79 1494.96L1229.46 1494.96Z" fill="#333333" fill-rule="nonzero" opacity="1" stroke="none"/>
<path d="M1342.62 1494.96L1342.62 1493.11L1350.62 1493.11C1356.22 1493.11 1359.69 1492.53 1361.03 1491.37C1362.36 1490.21 1363.03 1487.13 1363.03 1482.14L1363.03 1356.71C1363.03 1351.72 1362.36 1348.66 1361.03 1347.54C1359.69 1346.41 1356.22 1345.84 1350.62 1345.84L1342.62 1345.84L1342.62 1343.89L1401.38 1343.89L1401.38 1346.25L1393.49 1346.25C1387.81 1346.25 1384.29 1346.83 1382.92 1348C1381.56 1349.16 1380.87 1352.24 1380.87 1357.23L1380.87 1482.14C1380.87 1487.13 1381.56 1490.21 1382.92 1491.37C1384.29 1492.53 1387.81 1493.11 1393.49 1493.11L1401.38 1493.11L1401.38 1494.96L1342.62 1494.96Z" fill="#333333" fill-rule="nonzero" opacity="1" stroke="none"/>
<path d="M1417.73 1494.96L1417.73 1493.11L1425.73 1493.11C1431.13 1493.11 1434.55 1492.26 1435.98 1490.55C1437.42 1488.84 1438.14 1485.35 1438.14 1480.09L1438.14 1358.87C1438.14 1353.6 1437.42 1350.12 1435.98 1348.41C1434.55 1346.7 1431.13 1345.84 1425.73 1345.84L1417.73 1345.84L1417.73 1343.89L1474.44 1343.89L1474.44 1345.84L1468.6 1345.84C1463.19 1345.84 1459.74 1346.7 1458.24 1348.41C1456.73 1350.12 1455.98 1353.6 1455.98 1358.87L1455.98 1480.71L1521.72 1343.89L1557.82 1343.89L1557.82 1345.84L1549.62 1345.84C1544.28 1345.84 1540.92 1346.68 1539.51 1348.36C1538.11 1350.03 1537.41 1353.54 1537.41 1358.87L1537.41 1480.09C1537.41 1485.42 1538.11 1488.93 1539.51 1490.6C1540.92 1492.28 1544.28 1493.11 1549.62 1493.11L1557.82 1493.11L1557.82 1494.96L1500.9 1494.96L1500.9 1493.11L1507.16 1493.11C1512.42 1493.11 1515.77 1492.26 1517.21 1490.55C1518.64 1488.84 1519.36 1485.35 1519.36 1480.09L1519.36 1358.25L1453.62 1494.96L1417.73 1494.96ZM1459.26 1306.15L1467.47 1305.54C1467.47 1311.21 1469.81 1316.14 1474.49 1320.31C1479.18 1324.48 1484.77 1326.56 1491.26 1326.56C1497.69 1326.56 1503.21 1324.48 1507.82 1320.31C1512.44 1316.14 1514.75 1311.21 1514.75 1305.54L1522.95 1306.15C1522.95 1312.85 1519.86 1318.55 1513.67 1323.23C1507.48 1327.91 1500.01 1330.25 1491.26 1330.25C1482.44 1330.25 1474.9 1327.91 1468.65 1323.23C1462.39 1318.55 1459.26 1312.85 1459.26 1306.15Z" fill="#333333" fill-rule="nonzero" opacity="1" stroke="none"/>
<path d="M1643.74 1494.96L1643.74 1493.11L1651.73 1493.11C1657.14 1493.11 1660.55 1492.26 1661.99 1490.55C1663.43 1488.84 1664.14 1485.35 1664.14 1480.09L1664.14 1358.87C1664.14 1353.6 1663.43 1350.12 1661.99 1348.41C1660.55 1346.7 1657.14 1345.84 1651.73 1345.84L1643.74 1345.84L1643.74 1343.89L1783.83 1343.89L1783.83 1345.84L1775.62 1345.84C1770.29 1345.84 1766.92 1346.68 1765.52 1348.36C1764.12 1350.03 1763.42 1353.54 1763.42 1358.87L1763.42 1480.09C1763.42 1485.42 1764.12 1488.93 1765.52 1490.6C1766.92 1492.28 1770.29 1493.11 1775.62 1493.11L1783.83 1493.11L1783.83 1494.96L1726.91 1494.96L1726.91 1493.11L1733.16 1493.11C1738.43 1493.11 1741.78 1492.26 1743.22 1490.55C1744.65 1488.84 1745.37 1485.35 1745.37 1480.09L1745.37 1347.69L1681.99 1347.69L1681.99 1480.09C1681.99 1485.35 1682.74 1488.84 1684.25 1490.55C1685.75 1492.26 1689.2 1493.11 1694.6 1493.11L1700.45 1493.11L1700.45 1494.96L1643.74 1494.96Z" fill="#333333" fill-rule="nonzero" opacity="1" stroke="none"/>
<path d="M1888.68 1496.6C1871.65 1496.6 1856.66 1493.41 1843.71 1487.01C1830.75 1480.62 1820.73 1471.58 1813.66 1459.89C1806.58 1448.2 1803.04 1434.69 1803.04 1419.38C1803.04 1396.27 1810.89 1377.64 1826.58 1363.48C1842.27 1349.33 1862.97 1342.25 1888.68 1342.25C1905.57 1342.25 1920.47 1345.45 1933.39 1351.84C1946.32 1358.24 1956.31 1367.28 1963.39 1378.97C1970.47 1390.66 1974.01 1404.13 1974.01 1419.38C1974.01 1434.69 1970.47 1448.2 1963.39 1459.89C1956.31 1471.58 1946.32 1480.62 1933.39 1487.01C1920.47 1493.41 1905.57 1496.6 1888.68 1496.6ZM1889.5 1492.91C1910.42 1492.91 1926.37 1486.96 1937.34 1475.06C1948.32 1463.17 1953.8 1445.94 1953.8 1423.38C1953.8 1398.28 1948.16 1379.12 1936.88 1365.89C1925.6 1352.66 1909.26 1346.05 1887.86 1346.05C1866.87 1346.05 1850.84 1352 1839.76 1363.89C1828.68 1375.79 1823.14 1393.02 1823.14 1415.58C1823.14 1440.67 1828.8 1459.84 1840.12 1473.07C1851.43 1486.29 1867.89 1492.91 1889.5 1492.91Z" fill="#333333" fill-rule="nonzero" opacity="1" stroke="none"/>
<path d="M2027.89 1491.17L2054.14 1491.17C2068.57 1491.17 2080.16 1487.51 2088.91 1480.19C2097.66 1472.88 2102.03 1463.24 2102.03 1451.27C2102.03 1438.62 2097.4 1428.25 2088.14 1420.15C2078.87 1412.04 2067.03 1407.99 2052.6 1407.99L2040.5 1407.99L2040.5 1404.4L2049.73 1404.4C2059.99 1404.4 2068.4 1401.75 2074.96 1396.46C2081.52 1391.16 2084.8 1384.37 2084.8 1376.1C2084.8 1367.55 2081.3 1360.68 2074.29 1355.48C2067.28 1350.29 2058.04 1347.69 2046.55 1347.69L2027.89 1347.69L2027.89 1347.89C2030.42 1350.22 2031.68 1353.88 2031.68 1358.87L2031.68 1480.09C2031.68 1484.88 2030.42 1488.43 2027.89 1490.76L2027.89 1491.17ZM1993.43 1494.96L1993.43 1492.91L2001.43 1492.91C2007.03 1492.91 2010.5 1492.31 2011.84 1491.12C2013.17 1489.92 2013.84 1486.79 2013.84 1481.73L2013.84 1356.92C2013.84 1351.93 2013.17 1348.83 2011.84 1347.64C2010.5 1346.44 2007.03 1345.84 2001.43 1345.84L1993.43 1345.84L1993.43 1343.89L2049.73 1343.89C2066.14 1343.89 2079.37 1346.82 2089.42 1352.66C2099.47 1358.51 2104.5 1366.18 2104.5 1375.69C2104.5 1382.18 2101.49 1388.37 2095.47 1394.25C2089.45 1400.13 2081.42 1403.72 2071.37 1405.02L2071.37 1405.94C2078.62 1406.42 2085.44 1408.04 2091.83 1410.81C2098.22 1413.58 2103.59 1417.07 2107.93 1421.27C2112.27 1425.48 2115.69 1430.2 2118.19 1435.43C2120.68 1440.66 2121.93 1445.94 2121.93 1451.27C2121.93 1459.82 2119.11 1467.44 2113.47 1474.14C2107.83 1480.84 2100.21 1485.99 2090.6 1489.58C2080.99 1493.17 2070.24 1494.96 2058.35 1494.96L1993.43 1494.96Z" fill="#333333" fill-rule="nonzero" opacity="1" stroke="none"/>
<path d="M2293.24 1413.02L2162.17 1413.02L2162.17 1415.58C2162.17 1440.26 2167.98 1459.32 2179.6 1472.76C2191.23 1486.19 2207.06 1492.91 2227.09 1492.91C2242.47 1492.91 2256.08 1490.06 2267.91 1484.35C2279.73 1478.64 2289.03 1470.62 2295.8 1460.3L2298.98 1462.66C2291.8 1473.46 2281.92 1481.82 2269.34 1487.73C2256.76 1493.64 2242.34 1496.6 2226.06 1496.6C2210 1496.6 2195.54 1493.41 2182.68 1487.01C2169.83 1480.62 2159.71 1471.49 2152.32 1459.63C2144.94 1447.77 2141.25 1434.21 2141.25 1418.97C2141.25 1403.79 2144.79 1390.39 2151.86 1378.76C2158.94 1367.14 2168.92 1358.15 2181.81 1351.79C2194.7 1345.43 2209.59 1342.25 2226.47 1342.25C2239.87 1342.25 2252.16 1344.87 2263.34 1350.1C2274.52 1355.33 2283.49 1362.83 2290.26 1372.61C2297.03 1382.39 2300.42 1393.5 2300.42 1405.94L2300.42 1406.97C2300.42 1408.68 2299.72 1410.11 2298.31 1411.27C2296.91 1412.44 2295.22 1413.02 2293.24 1413.02ZM2162.38 1409.22L2278.78 1407.79C2279.87 1407.79 2280.42 1407.17 2280.42 1405.94C2280.42 1387.96 2275.46 1373.48 2265.55 1362.51C2255.63 1351.54 2242.54 1346.05 2226.27 1346.05C2206.51 1346.05 2191.18 1351.43 2180.27 1362.2C2169.37 1372.97 2163.4 1388.64 2162.38 1409.22Z" fill="#333333" fill-rule="nonzero" opacity="1" stroke="none"/>
<path d="M2354.71 1347.89L2354.71 1349.02C2357.24 1352.1 2358.5 1356.44 2358.5 1362.05L2358.5 1432.4L2371.53 1432.4C2386.09 1432.4 2397.18 1428.79 2404.81 1421.58C2412.43 1414.37 2416.24 1403.89 2416.24 1390.15C2416.24 1376.41 2412.43 1365.93 2404.81 1358.71C2397.18 1351.5 2386.09 1347.89 2371.53 1347.89L2354.71 1347.89ZM2320.25 1494.96L2320.25 1493.11L2328.25 1493.11C2333.85 1493.11 2337.32 1492.52 2338.66 1491.32C2339.99 1490.12 2340.66 1487 2340.66 1481.94L2340.66 1356.92C2340.66 1351.93 2339.99 1348.83 2338.66 1347.64C2337.32 1346.44 2333.85 1345.84 2328.25 1345.84L2320.25 1345.84L2320.25 1343.89L2378.4 1343.89C2395.83 1343.89 2409.87 1348.13 2420.5 1356.61C2431.13 1365.09 2436.44 1376.27 2436.44 1390.15C2436.44 1403.89 2431.13 1415 2420.5 1423.48C2409.87 1431.96 2395.83 1436.2 2378.4 1436.2L2358.5 1436.2L2358.5 1481.94C2358.5 1486.93 2359.2 1490.04 2360.6 1491.27C2362.01 1492.5 2365.51 1493.11 2371.12 1493.11L2376.76 1493.11L2376.76 1494.96L2320.25 1494.96Z" fill="#333333" fill-rule="nonzero" opacity="1" stroke="none"/>
<path d="M2445.51 1494.96L2445.51 1493.73L2447.56 1493.73C2452.21 1493.73 2455.85 1492.65 2458.48 1490.5C2461.11 1488.35 2464.41 1483.88 2468.38 1477.12L2499.86 1421.02L2469.92 1362.66C2466.57 1356.24 2463.57 1351.89 2460.94 1349.64C2458.31 1347.38 2455.32 1346.25 2451.97 1346.25L2449.3 1346.25L2449.3 1344.41L2488.99 1344.41L2488.99 1346.25L2476.38 1346.25L2476.38 1346.66C2478.09 1347.21 2480.14 1348.63 2482.53 1350.92C2484.92 1353.21 2486.8 1355.65 2488.17 1358.25L2513.6 1407.79L2540.88 1362.05C2544.24 1356.85 2545.91 1352.99 2545.91 1350.46C2545.91 1348.89 2545.12 1347.76 2543.55 1347.07C2541.98 1346.39 2539.35 1346.05 2535.65 1346.05L2527.45 1346.05L2527.45 1344.2L2566.11 1344.2L2566.11 1346.05L2563.34 1346.05C2559.86 1346.05 2556.99 1347.09 2554.73 1349.18C2552.47 1351.26 2549.33 1355.69 2545.29 1362.46L2515.86 1411.99L2549.29 1476.91C2553.67 1484.02 2556.47 1488.26 2557.7 1489.63C2559.89 1492.09 2562.7 1493.32 2566.11 1493.32L2570.01 1493.32L2570.01 1495.17L2516.48 1495.17L2516.48 1493.32L2521.3 1493.32C2529.43 1493.32 2533.5 1491.54 2533.5 1487.99C2533.5 1485.8 2532.03 1482.38 2529.09 1477.73L2502.02 1425.02L2472.99 1476.91C2469.78 1482.38 2468.17 1486.31 2468.17 1488.7C2468.17 1490.41 2469.01 1491.61 2470.68 1492.29C2472.36 1492.98 2475.11 1493.32 2478.94 1493.32L2486.84 1493.32L2486.84 1494.96L2445.51 1494.96Z" fill="#333333" fill-rule="nonzero" opacity="1" stroke="none"/>
<path d="M2650.04 1351.48C2650.04 1358.66 2648.44 1364.15 2645.22 1367.94C2642.01 1371.74 2637.36 1374.94 2631.27 1377.53L2629.84 1374.35C2636.95 1371.28 2641.63 1367.38 2643.89 1362.66C2644.64 1360.68 2645.29 1359.42 2645.84 1358.87L2644.5 1358.25C2643.41 1359.89 2641.87 1360.71 2639.89 1360.71C2633.05 1360.71 2629.63 1357.64 2629.63 1351.48C2629.63 1345.19 2633.05 1342.05 2639.89 1342.05C2642.97 1342.05 2645.43 1342.9 2647.27 1344.61C2649.12 1346.32 2650.04 1348.61 2650.04 1351.48ZM2614.66 1351.48C2614.66 1355.31 2614.2 1358.66 2613.28 1361.53C2612.35 1364.41 2610.97 1366.83 2609.12 1368.82C2607.28 1370.8 2605.35 1372.44 2603.33 1373.74C2601.31 1375.04 2598.87 1376.3 2596 1377.53L2594.35 1374.35C2601.4 1371.41 2606.15 1367.52 2608.61 1362.66C2609.43 1360.54 2609.98 1359.28 2610.25 1358.87L2609.23 1358.25C2607.86 1359.89 2606.32 1360.71 2604.61 1360.71C2597.64 1360.71 2594.15 1357.64 2594.15 1351.48C2594.15 1348.48 2595.06 1346.15 2596.87 1344.51C2598.68 1342.87 2601.26 1342.05 2604.61 1342.05C2607.62 1342.05 2610.05 1342.92 2611.89 1344.66C2613.74 1346.41 2614.66 1348.68 2614.66 1351.48Z" fill="#333333" fill-rule="nonzero" opacity="1" stroke="none"/>
</g>
<g opacity="1" vectornator:layerName="Group 1">
<path d="M772.927 1615.23L772.927 1614.31L776.926 1614.31C779.627 1614.31 781.335 1613.88 782.053 1613.03C782.771 1612.17 783.13 1610.43 783.13 1607.8L783.13 1547.2C783.13 1544.57 782.771 1542.82 782.053 1541.97C781.335 1541.12 779.627 1540.69 776.926 1540.69L772.927 1540.69L772.927 1539.71L842.961 1539.71L842.961 1540.69L838.86 1540.69C836.194 1540.69 834.511 1541.11 833.81 1541.94C833.109 1542.78 832.759 1544.53 832.759 1547.2L832.759 1607.8C832.759 1610.47 833.109 1612.22 833.81 1613.06C834.511 1613.89 836.194 1614.31 838.86 1614.31L842.961 1614.31L842.961 1615.23L814.507 1615.23L814.507 1614.31L817.634 1614.31C820.266 1614.31 821.941 1613.88 822.659 1613.03C823.377 1612.17 823.735 1610.43 823.735 1607.8L823.735 1541.61L792.051 1541.61L792.051 1607.8C792.051 1610.43 792.427 1612.17 793.179 1613.03C793.931 1613.88 795.657 1614.31 798.357 1614.31L801.279 1614.31L801.279 1615.23L772.927 1615.23Z" fill="#333333" fill-rule="nonzero" opacity="1" stroke="none"/>
<path d="M875.653 1577.24L875.55 1577.14C875.55 1569.55 877.225 1562.85 880.575 1557.04C883.924 1551.23 888.65 1546.74 894.751 1543.56C900.852 1540.38 907.884 1538.79 915.848 1538.79C924.051 1538.79 931.127 1541.03 937.074 1545.51C937.45 1545.88 937.86 1546.58 938.304 1547.61L939.073 1547.4C938.868 1546.58 938.766 1545.58 938.766 1544.38L938.561 1536.69L939.586 1536.69L940.663 1567.04L938.561 1567.14L938.202 1557.4C937.894 1552.79 935.399 1548.83 930.716 1545.53C926.034 1542.23 920.804 1540.59 915.028 1540.59C905.526 1540.59 898.28 1543.56 893.29 1549.51C888.299 1555.45 885.804 1564.1 885.804 1575.45C885.804 1587.99 888.41 1597.56 893.623 1604.16C898.835 1610.76 906.38 1614.05 916.258 1614.05C921.83 1614.05 927.008 1612.76 931.793 1610.18C936.578 1607.6 939.979 1604.14 941.996 1599.8L943.995 1600.52C941.808 1605.58 938.202 1609.43 933.177 1612.08C928.153 1614.73 922.479 1616.05 916.156 1616.05C908.158 1616.05 901.091 1614.45 894.956 1611.23C888.821 1608.02 884.07 1603.48 880.703 1597.6C877.336 1591.72 875.653 1584.93 875.653 1577.24Z" fill="#333333" fill-rule="nonzero" opacity="1" stroke="none"/>
<path d="M975.764 1615.23L975.764 1614.31L979.763 1614.31C982.463 1614.31 984.172 1613.88 984.89 1613.03C985.608 1612.17 985.966 1610.43 985.966 1607.8L985.966 1547.2C985.966 1544.57 985.608 1542.82 984.89 1541.97C984.172 1541.12 982.463 1540.69 979.763 1540.69L975.764 1540.69L975.764 1539.71L1004.12 1539.71L1004.12 1540.69L1001.19 1540.69C998.493 1540.69 996.767 1541.12 996.015 1541.97C995.263 1542.82 994.887 1544.57 994.887 1547.2L994.887 1608.11L1027.75 1539.71L1045.8 1539.71L1045.8 1540.69L1041.7 1540.69C1039.03 1540.69 1037.35 1541.11 1036.65 1541.94C1035.95 1542.78 1035.6 1544.53 1035.6 1547.2L1035.6 1607.8C1035.6 1610.47 1035.95 1612.22 1036.65 1613.06C1037.35 1613.89 1039.03 1614.31 1041.7 1614.31L1045.8 1614.31L1045.8 1615.23L1017.34 1615.23L1017.34 1614.31L1020.47 1614.31C1023.1 1614.31 1024.78 1613.88 1025.5 1613.03C1026.21 1612.17 1026.57 1610.43 1026.57 1607.8L1026.57 1546.89L993.708 1615.23L975.764 1615.23Z" fill="#333333" fill-rule="nonzero" opacity="1" stroke="none"/>
<path d="M1076.59 1615.23L1076.59 1614.62L1077.62 1614.62C1079.94 1614.62 1081.76 1614.08 1083.08 1613C1084.39 1611.93 1086.04 1609.7 1088.03 1606.31L1103.77 1578.27L1088.79 1549.1C1087.12 1545.88 1085.62 1543.71 1084.31 1542.59C1082.99 1541.46 1081.5 1540.89 1079.82 1540.89L1078.49 1540.89L1078.49 1539.97L1098.33 1539.97L1098.33 1540.89L1092.02 1540.89L1092.02 1541.1C1092.88 1541.37 1093.9 1542.08 1095.1 1543.23C1096.3 1544.37 1097.24 1545.59 1097.92 1546.89L1110.64 1571.65L1124.27 1548.79C1125.95 1546.19 1126.79 1544.26 1126.79 1543C1126.79 1542.21 1126.39 1541.65 1125.61 1541.3C1124.82 1540.96 1123.5 1540.79 1121.66 1540.79L1117.56 1540.79L1117.56 1539.87L1136.89 1539.87L1136.89 1540.79L1135.5 1540.79C1133.76 1540.79 1132.32 1541.31 1131.19 1542.35C1130.07 1543.4 1128.49 1545.61 1126.48 1548.99L1111.76 1573.76L1128.48 1606.21C1130.66 1609.77 1132.07 1611.88 1132.68 1612.57C1133.78 1613.8 1135.18 1614.41 1136.89 1614.41L1138.83 1614.41L1138.83 1615.34L1112.07 1615.34L1112.07 1614.41L1114.48 1614.41C1118.55 1614.41 1120.58 1613.52 1120.58 1611.75C1120.58 1610.65 1119.85 1608.94 1118.38 1606.62L1104.84 1580.27L1090.33 1606.21C1088.73 1608.94 1087.92 1610.91 1087.92 1612.11C1087.92 1612.96 1088.34 1613.56 1089.18 1613.9C1090.02 1614.24 1091.39 1614.41 1093.31 1614.41L1097.25 1614.41L1097.25 1615.23L1076.59 1615.23Z" fill="#333333" fill-rule="nonzero" opacity="1" stroke="none"/>
<path d="M1213.87 1616.05C1205.36 1616.05 1197.87 1614.46 1191.39 1611.26C1184.92 1608.06 1179.91 1603.54 1176.37 1597.7C1172.83 1591.86 1171.06 1585.1 1171.06 1577.45C1171.06 1565.9 1174.99 1556.58 1182.83 1549.51C1190.67 1542.43 1201.02 1538.89 1213.87 1538.89C1222.32 1538.89 1229.77 1540.49 1236.23 1543.69C1242.69 1546.88 1247.69 1551.4 1251.22 1557.25C1254.76 1563.09 1256.53 1569.83 1256.53 1577.45C1256.53 1585.1 1254.76 1591.86 1251.22 1597.7C1247.69 1603.54 1242.69 1608.06 1236.23 1611.26C1229.77 1614.46 1222.32 1616.05 1213.87 1616.05ZM1214.28 1614.21C1224.74 1614.21 1232.72 1611.23 1238.2 1605.29C1243.69 1599.34 1246.43 1590.73 1246.43 1579.45C1246.43 1566.9 1243.61 1557.33 1237.97 1550.71C1232.33 1544.1 1224.16 1540.79 1213.46 1540.79C1202.97 1540.79 1194.96 1543.76 1189.42 1549.71C1183.88 1555.66 1181.11 1564.27 1181.11 1575.55C1181.11 1588.1 1183.94 1597.67 1189.6 1604.29C1195.25 1610.9 1203.48 1614.21 1214.28 1614.21Z" fill="#333333" fill-rule="nonzero" opacity="1" stroke="none"/>
<path d="M1293.84 1539.71L1354.64 1539.71L1354.64 1540.69L1350.54 1540.69C1347.87 1540.69 1346.19 1541.11 1345.49 1541.94C1344.79 1542.78 1344.44 1544.53 1344.44 1547.2L1344.44 1607.8C1344.44 1610.47 1344.79 1612.22 1345.49 1613.06C1346.19 1613.89 1347.87 1614.31 1350.54 1614.31L1354.64 1614.31L1354.64 1615.23L1326.19 1615.23L1326.19 1614.31L1329.31 1614.31C1331.95 1614.31 1333.62 1613.88 1334.34 1613.03C1335.06 1612.17 1335.42 1610.43 1335.42 1607.8L1335.42 1541.61L1308.34 1541.61L1308.34 1567.25C1308.34 1573.94 1307.86 1580.28 1306.88 1586.24C1305.91 1592.21 1304.61 1597.31 1302.99 1601.54C1301.36 1605.78 1299.61 1609.37 1297.73 1612.31C1295.85 1615.25 1293.89 1617.49 1291.84 1619.03L1285.12 1612C1286.97 1610.57 1288.76 1608.92 1290.5 1607.06C1292.25 1605.19 1294.03 1602.92 1295.86 1600.24C1297.69 1597.55 1299.29 1594.73 1300.65 1591.75C1302.02 1588.78 1303.14 1585.37 1304.01 1581.52C1304.88 1577.68 1305.34 1573.76 1305.37 1569.76L1305.37 1548.43C1305.37 1547.1 1305.35 1546.05 1305.29 1545.28C1305.24 1544.51 1305.08 1543.81 1304.81 1543.17C1304.53 1542.54 1304.24 1542.08 1303.94 1541.79C1303.63 1541.5 1303.07 1541.26 1302.27 1541.07C1301.47 1540.88 1300.66 1540.77 1299.86 1540.74C1299.06 1540.71 1297.89 1540.69 1296.35 1540.69L1293.84 1540.69L1293.84 1539.71Z" fill="#333333" fill-rule="nonzero" opacity="1" stroke="none"/>
<path d="M1429.73 1616.05C1421.22 1616.05 1413.73 1614.46 1407.25 1611.26C1400.77 1608.06 1395.77 1603.54 1392.23 1597.7C1388.69 1591.86 1386.92 1585.1 1386.92 1577.45C1386.92 1565.9 1390.84 1556.58 1398.69 1549.51C1406.53 1542.43 1416.88 1538.89 1429.73 1538.89C1438.18 1538.89 1445.63 1540.49 1452.09 1543.69C1458.55 1546.88 1463.54 1551.4 1467.08 1557.25C1470.62 1563.09 1472.39 1569.83 1472.39 1577.45C1472.39 1585.1 1470.62 1591.86 1467.08 1597.7C1463.54 1603.54 1458.55 1608.06 1452.09 1611.26C1445.63 1614.46 1438.18 1616.05 1429.73 1616.05ZM1430.14 1614.21C1440.6 1614.21 1448.57 1611.23 1454.06 1605.29C1459.55 1599.34 1462.29 1590.73 1462.29 1579.45C1462.29 1566.9 1459.47 1557.33 1453.83 1550.71C1448.19 1544.1 1440.02 1540.79 1429.32 1540.79C1418.83 1540.79 1410.81 1543.76 1405.28 1549.71C1399.74 1555.66 1396.97 1564.27 1396.97 1575.55C1396.97 1588.1 1399.8 1597.67 1405.46 1604.29C1411.11 1610.9 1419.34 1614.21 1430.14 1614.21Z" fill="#333333" fill-rule="nonzero" opacity="1" stroke="none"/>
<path d="M1504.77 1615.23L1504.77 1614.31L1508.77 1614.31C1511.57 1614.31 1513.31 1614.01 1513.98 1613.41C1514.64 1612.82 1514.98 1611.25 1514.98 1608.72L1514.98 1546.23C1514.98 1543.73 1514.64 1542.18 1513.98 1541.59C1513.31 1540.99 1511.57 1540.69 1508.77 1540.69L1504.77 1540.69L1504.77 1539.71L1548.15 1539.71C1549.04 1539.71 1549.67 1539.78 1550.04 1539.92C1550.42 1540.06 1550.83 1540.31 1551.27 1540.69L1551.38 1540.69L1550.97 1533.56L1552.04 1533.46L1554.25 1564.22L1552.15 1564.22L1551.58 1556.84C1551.45 1554.1 1550.8 1551.73 1549.66 1549.71C1548.51 1547.69 1546.98 1546.11 1545.05 1544.94C1543.11 1543.78 1540.97 1542.94 1538.61 1542.41C1536.25 1541.88 1533.62 1541.61 1530.72 1541.61L1521.38 1541.61L1521.38 1541.71C1523.06 1543.25 1523.9 1545.08 1523.9 1547.2L1523.9 1608.72C1523.9 1611.22 1524.25 1612.77 1524.95 1613.39C1525.65 1614 1527.4 1614.31 1530.2 1614.31L1537.64 1614.31L1537.64 1615.23L1504.77 1615.23Z" fill="#333333" fill-rule="nonzero" opacity="1" stroke="none"/>
<path d="M1585.35 1615.23L1585.35 1614.31L1589.35 1614.31C1592.15 1614.31 1593.89 1614.02 1594.55 1613.44C1595.22 1612.86 1595.55 1611.32 1595.55 1608.83L1595.55 1546.12C1595.55 1543.63 1595.22 1542.1 1594.55 1541.53C1593.89 1540.97 1592.15 1540.69 1589.35 1540.69L1585.35 1540.69L1585.35 1539.71L1614.73 1539.71L1614.73 1540.89L1610.78 1540.89C1607.94 1540.89 1606.18 1541.18 1605.5 1541.76C1604.82 1542.35 1604.47 1543.88 1604.47 1546.38L1604.47 1608.83C1604.47 1611.32 1604.82 1612.86 1605.5 1613.44C1606.18 1614.02 1607.94 1614.31 1610.78 1614.31L1614.73 1614.31L1614.73 1615.23L1585.35 1615.23Z" fill="#333333" fill-rule="nonzero" opacity="1" stroke="none"/>
<path d="M1678.95 1615.23L1678.95 1614.31L1682.95 1614.31C1685.75 1614.31 1687.49 1614.02 1688.15 1613.44C1688.82 1612.86 1689.15 1611.32 1689.15 1608.83L1689.15 1582.68L1672.03 1582.68C1666.35 1582.68 1662.03 1581.33 1659.06 1578.63C1656.08 1575.93 1654.6 1572 1654.6 1566.84L1654.6 1546.23C1654.6 1543.73 1654.26 1542.18 1653.6 1541.59C1652.93 1540.99 1651.2 1540.69 1648.39 1540.69L1645.47 1540.69L1645.47 1539.71L1669.52 1539.71L1669.52 1540.69L1661.72 1540.69L1661.72 1540.89C1662.17 1541.27 1662.46 1541.62 1662.59 1541.94C1662.73 1542.27 1662.8 1542.82 1662.8 1543.61L1662.8 1565.96C1662.8 1570.85 1663.65 1574.56 1665.34 1577.09C1667.03 1579.62 1669.53 1580.88 1672.85 1580.88L1689.15 1580.88L1689.15 1546.12C1689.15 1543.63 1688.82 1542.1 1688.15 1541.53C1687.49 1540.97 1685.75 1540.69 1682.95 1540.69L1678.95 1540.69L1678.95 1539.71L1708.38 1539.71L1708.38 1540.89L1704.38 1540.89C1701.54 1540.89 1699.78 1541.18 1699.1 1541.76C1698.41 1542.35 1698.07 1543.88 1698.07 1546.38L1698.07 1608.83C1698.07 1611.32 1698.41 1612.86 1699.1 1613.44C1699.78 1614.02 1701.54 1614.31 1704.38 1614.31L1708.38 1614.31L1708.38 1615.23L1678.95 1615.23Z" fill="#333333" fill-rule="nonzero" opacity="1" stroke="none"/>
<path d="M1739.17 1615.23L1739.17 1614.31L1743.17 1614.31C1745.87 1614.31 1747.58 1613.88 1748.3 1613.03C1749.02 1612.17 1749.38 1610.43 1749.38 1607.8L1749.38 1547.2C1749.38 1544.57 1749.02 1542.82 1748.3 1541.97C1747.58 1541.12 1745.87 1540.69 1743.17 1540.69L1739.17 1540.69L1739.17 1539.71L1767.52 1539.71L1767.52 1540.69L1764.6 1540.69C1761.9 1540.69 1760.18 1541.12 1759.42 1541.97C1758.67 1542.82 1758.3 1544.57 1758.3 1547.2L1758.3 1574.58L1789.98 1574.58L1789.98 1547.2C1789.98 1544.57 1789.6 1542.82 1788.85 1541.97C1788.1 1541.12 1786.38 1540.69 1783.67 1540.69L1780.75 1540.69L1780.75 1539.71L1809.21 1539.71L1809.21 1540.69L1805.11 1540.69C1802.44 1540.69 1800.76 1541.11 1800.06 1541.94C1799.35 1542.78 1799 1544.53 1799 1547.2L1799 1607.8C1799 1610.47 1799.35 1612.22 1800.06 1613.06C1800.76 1613.89 1802.44 1614.31 1805.11 1614.31L1809.21 1614.31L1809.21 1615.23L1780.75 1615.23L1780.75 1614.31L1783.88 1614.31C1786.51 1614.31 1788.19 1613.88 1788.9 1613.03C1789.62 1612.17 1789.98 1610.43 1789.98 1607.8L1789.98 1576.47L1758.3 1576.47L1758.3 1607.8C1758.3 1610.43 1758.67 1612.17 1759.42 1613.03C1760.18 1613.88 1761.9 1614.31 1764.6 1614.31L1767.52 1614.31L1767.52 1615.23L1739.17 1615.23Z" fill="#333333" fill-rule="nonzero" opacity="1" stroke="none"/>
<path d="M1840 1615.23L1840 1614.31L1844 1614.31C1846.7 1614.31 1848.41 1613.88 1849.13 1613.03C1849.85 1612.17 1850.2 1610.43 1850.2 1607.8L1850.2 1547.2C1850.2 1544.57 1849.85 1542.82 1849.13 1541.97C1848.41 1541.12 1846.7 1540.69 1844 1540.69L1840 1540.69L1840 1539.71L1868.35 1539.71L1868.35 1540.69L1865.43 1540.69C1862.73 1540.69 1861 1541.12 1860.25 1541.97C1859.5 1542.82 1859.13 1544.57 1859.13 1547.2L1859.13 1608.11L1891.99 1539.71L1910.04 1539.71L1910.04 1540.69L1905.93 1540.69C1903.27 1540.69 1901.58 1541.11 1900.88 1541.94C1900.18 1542.78 1899.83 1544.53 1899.83 1547.2L1899.83 1607.8C1899.83 1610.47 1900.18 1612.22 1900.88 1613.06C1901.58 1613.89 1903.27 1614.31 1905.93 1614.31L1910.04 1614.31L1910.04 1615.23L1881.58 1615.23L1881.58 1614.31L1884.71 1614.31C1887.34 1614.31 1889.02 1613.88 1889.73 1613.03C1890.45 1612.17 1890.81 1610.43 1890.81 1607.8L1890.81 1546.89L1857.95 1615.23L1840 1615.23Z" fill="#333333" fill-rule="nonzero" opacity="1" stroke="none"/>
<path d="M1940.83 1615.23L1940.83 1614.31L1944.83 1614.31C1947.53 1614.31 1949.24 1613.88 1949.96 1613.03C1950.67 1612.17 1951.03 1610.43 1951.03 1607.8L1951.03 1547.2C1951.03 1544.57 1950.67 1542.82 1949.96 1541.97C1949.24 1541.12 1947.53 1540.69 1944.83 1540.69L1940.83 1540.69L1940.83 1539.71L1969.18 1539.71L1969.18 1540.69L1966.26 1540.69C1963.56 1540.69 1961.83 1541.12 1961.08 1541.97C1960.33 1542.82 1959.95 1544.57 1959.95 1547.2L1959.95 1608.11L1992.82 1539.71L2010.86 1539.71L2010.86 1540.69L2006.76 1540.69C2004.1 1540.69 2002.41 1541.11 2001.71 1541.94C2001.01 1542.78 2000.66 1544.53 2000.66 1547.2L2000.66 1607.8C2000.66 1610.47 2001.01 1612.22 2001.71 1613.06C2002.41 1613.89 2004.1 1614.31 2006.76 1614.31L2010.86 1614.31L2010.86 1615.23L1982.41 1615.23L1982.41 1614.31L1985.54 1614.31C1988.17 1614.31 1989.84 1613.88 1990.56 1613.03C1991.28 1612.17 1991.64 1610.43 1991.64 1607.8L1991.64 1546.89L1958.77 1615.23L1940.83 1615.23ZM1961.59 1520.85L1965.7 1520.54C1965.7 1523.38 1966.87 1525.84 1969.21 1527.92C1971.55 1530.01 1974.34 1531.05 1977.59 1531.05C1980.8 1531.05 1983.56 1530.01 1985.87 1527.92C1988.18 1525.84 1989.33 1523.38 1989.33 1520.54L1993.43 1520.85C1993.43 1524.2 1991.89 1527.04 1988.79 1529.38C1985.7 1531.72 1981.97 1532.9 1977.59 1532.9C1973.18 1532.9 1969.41 1531.72 1966.29 1529.38C1963.16 1527.04 1961.59 1524.2 1961.59 1520.85Z" fill="#333333" fill-rule="nonzero" opacity="1" stroke="none"/>
<path d="M2099.16 1615.23L2099.16 1614.31L2103.27 1614.31C2105.97 1614.31 2107.68 1613.88 2108.39 1613.03C2109.11 1612.17 2109.47 1610.43 2109.47 1607.8L2109.47 1547.2C2109.47 1544.57 2109.11 1542.82 2108.39 1541.97C2107.68 1541.12 2105.97 1540.69 2103.27 1540.69L2099.16 1540.69L2099.16 1539.71L2126.34 1539.71L2126.34 1540.69L2124.59 1540.69C2121.93 1540.69 2120.25 1541.11 2119.54 1541.94C2118.84 1542.78 2118.49 1544.53 2118.49 1547.2L2118.49 1613.34L2147.67 1613.34L2147.67 1547.2C2147.67 1544.57 2147.29 1542.82 2146.54 1541.97C2145.79 1541.12 2144.06 1540.69 2141.36 1540.69L2139.57 1540.69L2139.57 1539.71L2166.79 1539.71L2166.79 1540.69L2162.79 1540.69C2160.12 1540.69 2158.44 1541.11 2157.74 1541.94C2157.04 1542.78 2156.69 1544.53 2156.69 1547.2L2156.69 1606.83C2156.69 1609.49 2157.04 1611.24 2157.74 1612.08C2158.44 1612.92 2160.12 1613.34 2162.79 1613.34L2175.51 1613.34L2175.51 1630.77L2172.33 1630.77L2172.33 1621.75C2172.33 1619.11 2171.97 1617.37 2171.25 1616.52C2170.53 1615.66 2168.84 1615.23 2166.17 1615.23L2099.16 1615.23Z" fill="#333333" fill-rule="nonzero" opacity="1" stroke="none"/>
<path d="M2276.23 1574.27L2210.71 1574.27L2210.71 1575.55C2210.71 1587.89 2213.61 1597.42 2219.42 1604.13C2225.24 1610.85 2233.15 1614.21 2243.16 1614.21C2250.85 1614.21 2257.65 1612.78 2263.57 1609.93C2269.48 1607.07 2274.13 1603.07 2277.51 1597.9L2279.1 1599.08C2275.51 1604.48 2270.57 1608.66 2264.29 1611.62C2258 1614.58 2250.78 1616.05 2242.65 1616.05C2234.62 1616.05 2227.39 1614.46 2220.96 1611.26C2214.54 1608.06 2209.48 1603.5 2205.79 1597.57C2202.1 1591.64 2200.25 1584.87 2200.25 1577.24C2200.25 1569.66 2202.02 1562.96 2205.56 1557.15C2209.09 1551.34 2214.08 1546.84 2220.53 1543.66C2226.97 1540.48 2234.41 1538.89 2242.85 1538.89C2249.55 1538.89 2255.7 1540.2 2261.29 1542.82C2266.87 1545.43 2271.36 1549.18 2274.74 1554.07C2278.13 1558.96 2279.82 1564.51 2279.82 1570.73L2279.82 1571.24C2279.82 1572.1 2279.47 1572.82 2278.77 1573.4C2278.07 1573.98 2277.22 1574.27 2276.23 1574.27ZM2210.81 1572.37L2269 1571.65C2269.55 1571.65 2269.82 1571.35 2269.82 1570.73C2269.82 1561.74 2267.34 1554.51 2262.39 1549.02C2257.43 1543.53 2250.89 1540.79 2242.75 1540.79C2232.87 1540.79 2225.21 1543.48 2219.76 1548.87C2214.31 1554.25 2211.32 1562.08 2210.81 1572.37Z" fill="#333333" fill-rule="nonzero" opacity="1" stroke="none"/>
<path d="M2312.41 1615.23L2312.41 1614.31L2316.41 1614.31C2319.11 1614.31 2320.82 1613.88 2321.53 1613.03C2322.25 1612.17 2322.61 1610.43 2322.61 1607.8L2322.61 1547.2C2322.61 1544.57 2322.25 1542.82 2321.53 1541.97C2320.82 1541.12 2319.11 1540.69 2316.41 1540.69L2312.41 1540.69L2312.41 1539.71L2340.76 1539.71L2340.76 1540.69L2337.84 1540.69C2335.14 1540.69 2333.41 1541.12 2332.66 1541.97C2331.91 1542.82 2331.53 1544.57 2331.53 1547.2L2331.53 1574.58L2363.22 1574.58L2363.22 1547.2C2363.22 1544.57 2362.84 1542.82 2362.09 1541.97C2361.34 1541.12 2359.61 1540.69 2356.91 1540.69L2353.99 1540.69L2353.99 1539.71L2382.44 1539.71L2382.44 1540.69L2378.34 1540.69C2375.68 1540.69 2373.99 1541.11 2373.29 1541.94C2372.59 1542.78 2372.24 1544.53 2372.24 1547.2L2372.24 1607.8C2372.24 1610.47 2372.59 1612.22 2373.29 1613.06C2373.99 1613.89 2375.68 1614.31 2378.34 1614.31L2382.44 1614.31L2382.44 1615.23L2353.99 1615.23L2353.99 1614.31L2357.12 1614.31C2359.75 1614.31 2361.42 1613.88 2362.14 1613.03C2362.86 1612.17 2363.22 1610.43 2363.22 1607.8L2363.22 1576.47L2331.53 1576.47L2331.53 1607.8C2331.53 1610.43 2331.91 1612.17 2332.66 1613.03C2333.41 1613.88 2335.14 1614.31 2337.84 1614.31L2340.76 1614.31L2340.76 1615.23L2312.41 1615.23Z" fill="#333333" fill-rule="nonzero" opacity="1" stroke="none"/>
<path d="M2422.88 1615.23L2422.88 1614.31L2431.69 1614.31C2434.46 1614.31 2436.17 1614.01 2436.82 1613.41C2437.47 1612.82 2437.8 1611.25 2437.8 1608.72L2437.8 1541.61L2430.87 1541.61C2427.93 1541.61 2425.58 1541.76 2423.8 1542.07C2422.02 1542.38 2420.48 1542.98 2419.18 1543.87C2417.89 1544.76 2416.95 1545.98 2416.39 1547.53C2415.83 1549.09 2415.48 1551.15 2415.34 1553.71L2414.93 1558.02L2412.83 1557.91L2414.62 1533.56L2415.85 1533.66L2415.34 1539.71L2469.07 1539.71L2468.56 1533.77L2469.84 1533.66L2471.53 1557.91L2469.43 1558.02L2469.07 1553.71C2468.87 1551.15 2468.47 1549.1 2467.89 1547.56C2467.31 1546.02 2466.38 1544.8 2465.1 1543.89C2463.82 1542.99 2462.29 1542.38 2460.53 1542.07C2458.77 1541.76 2456.44 1541.61 2453.54 1541.61L2446.82 1541.61L2446.82 1608.72C2446.82 1611.25 2447.14 1612.82 2447.79 1613.41C2448.44 1614.01 2450.15 1614.31 2452.92 1614.31L2461.53 1614.31L2461.53 1615.23L2422.88 1615.23Z" fill="#333333" fill-rule="nonzero" opacity="1" stroke="none"/>
<path d="M2519.35 1541.71L2519.35 1542.28C2520.61 1543.82 2521.24 1545.99 2521.24 1548.79L2521.24 1583.96L2527.76 1583.96C2535.04 1583.96 2540.58 1582.16 2544.39 1578.55C2548.2 1574.94 2550.11 1569.71 2550.11 1562.84C2550.11 1555.97 2548.2 1550.73 2544.39 1547.12C2540.58 1543.52 2535.04 1541.71 2527.76 1541.71L2519.35 1541.71ZM2502.12 1615.23L2502.12 1614.31L2506.12 1614.31C2508.92 1614.31 2510.66 1614.01 2511.32 1613.41C2511.99 1612.82 2512.32 1611.25 2512.32 1608.72L2512.32 1546.23C2512.32 1543.73 2511.99 1542.18 2511.32 1541.59C2510.66 1540.99 2508.92 1540.69 2506.12 1540.69L2502.12 1540.69L2502.12 1539.71L2531.19 1539.71C2539.91 1539.71 2546.92 1541.83 2552.24 1546.07C2557.55 1550.31 2560.21 1555.9 2560.21 1562.84C2560.21 1569.71 2557.55 1575.26 2552.24 1579.5C2546.92 1583.74 2539.91 1585.86 2531.19 1585.86L2521.24 1585.86L2521.24 1608.72C2521.24 1611.22 2521.59 1612.77 2522.3 1613.39C2523 1614 2524.75 1614.31 2527.55 1614.31L2530.37 1614.31L2530.37 1615.23L2502.12 1615.23Z" fill="#333333" fill-rule="nonzero" opacity="1" stroke="none"/>
</g>
</g>
</g>
</g>
</g>
</svg>
